<svg width="43" height="46" viewBox="0 0 43 46" fill="none" xmlns="http://www.w3.org/2000/svg">
<path d="M0.859375 18.1553H40.9716V44.4105H0.859375V18.1553Z" fill="#39B0E4"/>
<path fill-rule="evenodd" clip-rule="evenodd" d="M0.132812 18.8852C0.132812 17.6768 1.11239 16.6973 2.32075 16.6973H40.245C41.4534 16.6973 42.4329 17.6768 42.4329 18.8852V43.6818C42.4329 44.8902 41.4534 45.8698 40.245 45.8698H24.5528C24.2051 45.8698 23.8625 45.7869 23.5533 45.6281L21.616 44.6333C21.4069 44.526 21.1588 44.526 20.9497 44.6333L19.0125 45.6281C18.7032 45.7869 18.3606 45.8698 18.013 45.8698H2.32075C1.11238 45.8698 0.132812 44.8902 0.132812 43.6818V40.8768C0.132812 40.474 0.459337 40.1475 0.862125 40.1475C1.26491 40.1475 1.59144 40.474 1.59144 40.8768V43.6818C1.59144 44.0846 1.91796 44.4111 2.32075 44.4111H18.013C18.1289 44.4111 18.2431 44.3835 18.3462 44.3306L20.2834 43.3358C20.9108 43.0136 21.655 43.0136 22.2823 43.3358L24.2196 44.3306C24.3227 44.3835 24.4369 44.4111 24.5528 44.4111H40.245C40.6478 44.4111 40.9743 44.0846 40.9743 43.6818V18.8852C40.9743 18.4824 40.6478 18.1559 40.245 18.1559H2.32075C1.91796 18.1559 1.59144 18.4824 1.59144 18.8852V36.2578C1.59144 36.6606 1.26491 36.9871 0.862125 36.9871C0.459337 36.9871 0.132812 36.6606 0.132812 36.2578V18.8852Z" fill="#404040"/>
<path d="M3.05078 17.0328C3.05078 16.3984 3.46072 15.8369 4.06485 15.6435L12.1672 13.0508L20.839 15.8258C21.1282 15.9183 21.439 15.9183 21.7282 15.8258L30.4 13.0508L38.5023 15.6435C39.1065 15.8369 39.5164 16.3984 39.5164 17.0328V40.7647C39.5164 41.5702 38.8634 42.2233 38.0578 42.2233H4.50941C3.70383 42.2233 3.05078 41.5702 3.05078 40.7647V17.0328Z" fill="#F0F5FA"/>
<path fill-rule="evenodd" clip-rule="evenodd" d="M30.4 13.0508L21.7282 15.8258C21.439 15.9183 21.1282 15.9183 20.839 15.8258L12.1672 13.0508L4.06485 15.6435C3.46072 15.8369 3.05078 16.3984 3.05078 17.0328V40.7647C3.05078 41.5702 3.70383 42.2233 4.50941 42.2233H38.0578C38.8634 42.2233 39.5164 41.5702 39.5164 40.7647V17.0328C39.5164 16.3984 39.1065 15.8369 38.5023 15.6435L30.4 13.0508ZM12.1672 14.5823L4.50941 17.0328V40.7647H38.0578V17.0328L30.4 14.5823L22.1727 17.215C21.5944 17.4001 20.9728 17.4001 20.3945 17.215L12.1672 14.5823Z" fill="#404040"/>
<path d="M6.69531 30.1894C15.4471 31.9398 19.8229 38.455 20.9169 41.4938V14.8739C19.4583 8.45591 10.8281 5.14969 6.69531 4.29883V30.1894Z" fill="#F0F5FA"/>
<path fill-rule="evenodd" clip-rule="evenodd" d="M6.23728 3.73432C6.4072 3.59582 6.63042 3.5411 6.84513 3.5853C8.9775 4.02432 12.2498 5.08996 15.1903 6.87617C18.1176 8.65433 20.8376 11.2228 21.6308 14.713C21.6429 14.7661 21.649 14.8203 21.649 14.8747V41.4946C21.649 41.849 21.3942 42.1521 21.045 42.213C20.6959 42.274 20.3535 42.0751 20.2335 41.7416C19.2052 38.8853 15.0012 32.5946 6.55503 30.9054C6.21413 30.8372 5.96875 30.5379 5.96875 30.1902V4.29963C5.96875 4.08041 6.06736 3.87282 6.23728 3.73432ZM7.42738 5.21611V29.6006C13.9897 31.0984 18.0922 35.198 20.1903 38.4688V14.9584C19.5017 12.0679 17.1939 9.79992 14.433 8.12281C12.0386 6.66832 9.39296 5.71449 7.42738 5.21611Z" fill="#404040"/>
<path d="M20.9199 39.7409C20.9276 39.9739 20.9273 40.1943 20.9199 40.4001V39.7409C20.8006 36.1213 18.7486 29.4651 11.0742 27.2724V1.38184C14.2346 1.9896 20.6282 5.46599 20.9199 14.5095V39.7409Z" fill="#F0F5FA"/>
<path fill-rule="evenodd" clip-rule="evenodd" d="M10.6086 0.819371C10.7763 0.680823 10.9972 0.624389 11.2108 0.665473C14.6196 1.32101 21.3424 5.02094 21.6477 14.4858C21.648 14.4936 21.6481 14.5015 21.6481 14.5093V39.7289C21.6559 39.9731 21.6555 40.2061 21.6476 40.4259C21.6334 40.8234 21.3034 41.1362 20.9058 41.1291C20.5081 41.122 20.1895 40.7976 20.1895 40.3999V39.753C20.072 36.3106 18.1205 30.0443 10.8727 27.9735C10.5596 27.8841 10.3438 27.5979 10.3438 27.2723V1.38166C10.3438 1.16411 10.4409 0.957918 10.6086 0.819371ZM20.1895 33.9382V14.5212C19.9321 6.69235 14.9021 3.2942 11.8024 2.3198V26.7315C16.2382 28.1573 18.7974 31.0415 20.1895 33.9382Z" fill="#404040"/>
<path d="M35.8675 34.9701C31.5255 34.095 24.3342 38.4952 21.2812 40.8046V14.914C27.5228 9.95471 33.6061 9.20109 35.8675 9.44419V34.9701Z" fill="#F0F5FA"/>
<path fill-rule="evenodd" clip-rule="evenodd" d="M20.8303 14.3427C27.2134 9.27096 33.4856 8.45402 35.9482 8.71875C36.3187 8.75858 36.5996 9.07127 36.5996 9.44388V18.8851C36.5996 19.2878 36.273 19.6144 35.8703 19.6144C35.4675 19.6144 35.1409 19.2878 35.1409 18.8851V10.1337C32.7039 10.1071 27.4627 11.0449 22.0133 15.2684V39.3792C23.5552 38.3134 25.617 37.051 27.7835 36.0328C29.1725 35.38 30.6213 34.8196 32.0156 34.479C33.0831 34.2182 34.1467 34.0792 35.1409 34.142V22.8963C35.1409 22.4935 35.4675 22.167 35.8703 22.167C36.273 22.167 36.5996 22.4935 36.5996 22.8963V34.9698C36.5996 35.1885 36.5014 35.3957 36.3322 35.5342C36.163 35.6727 35.9405 35.728 35.7262 35.6848C34.7858 35.4952 33.6394 35.5838 32.3618 35.896C31.0911 36.2064 29.7372 36.7263 28.4039 37.3529C25.736 38.6067 23.2181 40.2557 21.724 41.386C21.5033 41.553 21.207 41.5806 20.9592 41.4573C20.7114 41.334 20.5547 41.0811 20.5547 40.8043V14.9137C20.5547 14.6913 20.6562 14.4811 20.8303 14.3427Z" fill="#404040"/>
<path d="M3.78125 38.6345C13.613 36.3468 19.5468 39.5878 21.2848 41.4942H3.78125V38.6345Z" fill="#C5D7E6"/>
<path fill-rule="evenodd" clip-rule="evenodd" d="M3.61481 37.9245C13.6502 35.5893 19.8727 38.8642 21.8226 41.0032C22.0172 41.2166 22.0674 41.5248 21.9508 41.7891C21.8341 42.0533 21.5725 42.2238 21.2836 42.2238H3.78009C3.37731 42.2238 3.05078 41.8973 3.05078 41.4945V38.6348C3.05078 38.2957 3.28452 38.0013 3.61481 37.9245ZM4.50941 39.2191V40.7652H19.1943C16.6768 39.2258 11.7615 37.6658 4.50941 39.2191Z" fill="#404040"/>
<path d="M38.7891 38.6345C28.9573 36.3468 23.0235 39.5878 21.2856 41.4942H38.7891V38.6345Z" fill="#C5D7E6"/>
<path fill-rule="evenodd" clip-rule="evenodd" d="M38.9516 37.9245C28.9162 35.5893 22.6937 38.8642 20.7438 41.0032C20.5492 41.2166 20.499 41.5248 20.6156 41.7891C20.7323 42.0533 20.994 42.2238 21.2828 42.2238H38.7863C39.1891 42.2238 39.5156 41.8973 39.5156 41.4945V38.6348C39.5156 38.2957 39.2819 38.0013 38.9516 37.9245ZM38.057 39.2191V40.7652H23.3722C25.8896 39.2258 30.8049 37.6658 38.057 39.2191Z" fill="#404040"/>
</svg>
