<svg width="50" height="46" viewBox="0 0 50 46" fill="none" xmlns="http://www.w3.org/2000/svg">
<path d="M1.47266 40.2641C3.11693 37.9621 2.15777 33.0019 1.47266 30.8096C9.28293 32.1798 25.2323 34.9202 26.5478 34.9202C27.8632 34.9202 27.6439 40.6752 27.3699 43.5527L25.7256 44.7859L1.47266 40.2641Z" fill="#E4DCC9"/>
<path d="M26.9589 43.9642C28.2743 40.018 26.9589 36.291 26.1367 34.9208L31.8917 29.988L44.6347 27.9326V31.6322L26.9589 43.9642Z" fill="#EAB14D"/>
<path d="M25.3175 35.3309L1.88672 30.3981L12.5745 22.1768L33.5389 29.1649L25.3175 35.3309Z" fill="#FFB74C"/>
<path fill-rule="evenodd" clip-rule="evenodd" d="M10.8469 22.7523C11.0225 22.6206 11.2435 22.5646 11.4606 22.5968L44.7571 27.5296C45.1602 27.5893 45.4587 27.9353 45.4587 28.3428V31.6314C45.4587 31.9015 45.326 32.1544 45.1037 32.3079L28.108 44.043C27.9211 44.5577 27.4711 44.8905 27.1833 45.066C26.7504 45.3301 26.2562 45.5008 25.9269 45.5831C25.8123 45.6118 25.6929 45.6154 25.5768 45.5937L1.32385 41.072C1.0701 41.0247 0.853299 40.8609 0.738378 40.6298C0.623457 40.3987 0.623761 40.127 0.739198 39.8961C1.4712 38.4321 1.64222 36.6778 1.52789 35.0281C1.4139 33.3835 1.02173 31.9222 0.707202 31.1044C0.575217 30.7612 0.687122 30.3721 0.981257 30.1515L10.8469 22.7523ZM28.2904 41.919L43.8145 31.2V29.0521L20.1983 25.5535L32.1582 29.6198C32.4468 29.7179 32.6575 29.9678 32.7054 30.2689C32.7534 30.57 32.6307 30.8729 32.3868 31.0559L27.1875 34.9554C27.2338 35.0095 27.2769 35.0651 27.3169 35.1213C27.7612 35.7452 27.9913 36.6771 28.1239 37.598C28.3141 38.9196 28.3394 40.5109 28.2904 41.919ZM25.1133 34.4557L30.154 30.6751L11.4863 24.3281L3.45873 30.3488L25.1133 34.4557ZM2.67029 31.8728L25.1632 36.1387C25.3555 36.1752 25.5544 36.1419 25.7243 36.0448C25.8124 35.9945 25.8648 35.9796 25.8889 35.9755C25.9047 35.9874 25.935 36.0153 25.9776 36.0751C26.1773 36.3555 26.3686 36.9445 26.4964 37.8323C26.7438 39.5512 26.6874 41.8644 26.5525 43.484C26.5524 43.4849 26.5523 43.4857 26.5523 43.4866C26.5182 43.5264 26.4476 43.5887 26.327 43.6623C26.1313 43.7817 25.8899 43.879 25.6894 43.9421L2.62679 39.6423C3.17352 38.079 3.27149 36.4045 3.16822 34.9144C3.09024 33.7893 2.89541 32.7386 2.67029 31.8728ZM25.905 35.9742C25.905 35.9743 25.9033 35.9744 25.9 35.9741C25.9035 35.9739 25.9051 35.9741 25.905 35.9742ZM25.8797 35.9691C25.8776 35.9683 25.8766 35.9677 25.8765 35.9676C25.8765 35.9675 25.8776 35.9679 25.8797 35.9691Z" fill="#404040"/>
<path d="M24.0839 31.6318C22.4396 29.6587 23.6729 25.0547 24.495 22.9994L48.7476 19.2998C47.761 21.6018 48.6105 25.7399 49.1586 27.5211L24.0839 31.6318Z" fill="#E4DCC9"/>
<path d="M24.4953 22.9992L19.5625 19.7107L37.6495 11.9004L48.3372 19.2996L24.4953 22.9992Z" fill="#FF6E6E"/>
<path d="M6.40625 20.1219V13.1338C12.5723 16.0113 24.7398 22.0128 24.0821 22.9994C23.4244 23.986 23.534 29.1654 23.6711 31.6318L6.40625 20.1219Z" fill="#ED4C4C"/>
<path fill-rule="evenodd" clip-rule="evenodd" d="M29.2372 5.3451C29.4616 5.29232 29.6977 5.33611 29.8882 5.46581L49.2084 18.62C49.4932 18.8138 49.6268 19.1647 49.5433 19.4989C49.3527 20.2614 49.1357 21.5939 49.1259 23.0458C49.116 24.5095 49.3177 26.0045 49.8921 27.1532C50.0091 27.3872 50.0078 27.663 49.8884 27.8959C49.7691 28.1287 49.546 28.2909 49.2877 28.3325L23.8015 32.4432C23.5968 32.4762 23.3871 32.4306 23.2146 32.3156L5.94975 20.8057C5.72103 20.6532 5.58365 20.3965 5.58365 20.1217V13.3175C5.53827 13.1709 5.53058 13.023 5.54694 12.8914C5.5745 12.6698 5.66731 12.4892 5.73817 12.3729C5.88344 12.1344 6.10065 11.9052 6.30254 11.7142C6.81437 11.2299 7.53688 10.7063 8.00508 10.3941C8.08668 10.3397 8.17736 10.3004 8.27282 10.2779L29.2372 5.3451ZM8.79609 11.844C8.63815 11.9518 8.46229 12.0766 8.28435 12.209L24.6769 22.1492C24.8065 22.1317 24.9794 22.1075 25.1924 22.0769C25.6774 22.0074 26.3625 21.9065 27.2015 21.7814C28.8791 21.5311 31.1671 21.1844 33.6896 20.7991C37.9159 20.1535 42.7979 19.3999 46.5658 18.8099L29.2618 7.02849L8.79609 11.844ZM47.7094 20.295C43.8411 20.9025 38.5061 21.7267 33.9379 22.4245C31.4146 22.8099 29.1244 23.1569 27.4441 23.4076C26.6042 23.5329 25.9154 23.6344 25.4257 23.7046C25.1812 23.7396 24.9842 23.7672 24.8421 23.7861C24.8337 23.7872 24.8254 23.7883 24.8172 23.7894C24.81 23.803 24.8025 23.8176 24.7945 23.8333C24.7567 23.9078 24.7237 23.9788 24.6851 24.0614C24.6628 24.1093 24.6387 24.1611 24.6107 24.2198C24.5768 24.2909 24.5373 24.3721 24.4927 24.4553V30.6662L48.0071 26.8735C47.5991 25.6297 47.4734 24.2666 47.4817 23.0347C47.4885 22.0331 47.5843 21.0821 47.7094 20.295ZM22.8485 30.0954L7.22792 19.6817V13.4914L23.2657 23.2164C23.2358 23.2787 23.2062 23.3421 23.1794 23.3995C23.1599 23.4412 23.1419 23.4798 23.1262 23.5127C23.0633 23.6447 23.0196 23.7267 22.9866 23.7763C22.8965 23.9114 22.8485 24.07 22.8485 24.2323V30.0954Z" fill="#404040"/>
<path d="M17.5055 20.1215C16.8478 13.5444 17.7796 12.9963 18.3276 13.5444L38.4701 10.2559C36.8259 12.5578 37.785 15.5997 38.4701 16.8329L17.5055 20.1215Z" fill="#E4DCC9"/>
<path d="M3.94253 11.4901C2.29826 7.215 3.80551 5.05004 4.76467 4.50195C9.69741 7.51645 19.3163 13.5454 18.3297 13.5454C17.3431 13.5454 17.3705 17.9301 17.5076 20.1225L3.94253 11.4901Z" fill="#1996CD"/>
<path d="M18.326 13.5449L5.17188 4.50143L24.492 1.21289L38.0572 10.2564L18.326 13.5449Z" fill="#39B0E4"/>
<path fill-rule="evenodd" clip-rule="evenodd" d="M24.3608 0.401813C24.563 0.368114 24.7705 0.411165 24.9426 0.522522L38.9189 9.566C39.1036 9.68551 39.2327 9.87407 39.2773 10.0895C39.322 10.3049 39.2784 10.5292 39.1563 10.7123C38.6478 11.475 38.5031 12.5565 38.5931 13.7068C38.6817 14.8397 38.9882 15.9094 39.2356 16.528C39.3286 16.7604 39.3106 17.0224 39.1868 17.2399C39.0631 17.4574 38.8469 17.6067 38.5997 17.6455L17.6353 20.9341C17.4376 20.9651 17.2353 20.9229 17.0665 20.8155L3.50132 12.183C3.33166 12.0751 3.20745 11.9087 3.1522 11.7153C2.4677 9.31953 2.44371 7.5268 2.75249 6.23228C3.0569 4.95613 3.70417 4.11246 4.39717 3.76596C4.47047 3.72931 4.54884 3.70382 4.62968 3.69035L24.3608 0.401813ZM4.82326 5.52833L17.1075 13.7179C17.0218 13.8388 16.9355 13.9736 16.8648 14.1128C16.7917 14.2567 16.6857 14.4988 16.6857 14.778V18.6242L4.65085 10.9656C4.10491 8.91998 4.13658 7.51642 4.35189 6.61379C4.47802 6.08503 4.66175 5.74146 4.82326 5.52833ZM18.33 19.1607L37.3824 16.1721C37.1899 15.4995 37.0204 14.6854 36.9538 13.835C36.8912 13.0345 36.916 12.1511 37.1316 11.3081L18.7373 14.3113C18.6515 14.4075 18.5592 14.5181 18.4785 14.6279C18.4077 14.7242 18.3587 14.8025 18.3308 14.8573C18.3305 14.8579 18.3303 14.8584 18.33 14.859V19.1607ZM18.5168 12.6813L6.9507 4.97046L24.3169 2.07609L36.2358 9.78836L18.5168 12.6813Z" fill="#404040"/>
</svg>
