<svg width="11" height="11" viewBox="0 0 11 11" fill="none" xmlns="http://www.w3.org/2000/svg">
<path d="M5.49996 7.7915C5.62982 7.7915 5.73875 7.7475 5.82675 7.6595C5.91445 7.57181 5.95829 7.46303 5.95829 7.33317V5.48838C5.95829 5.35852 5.91445 5.25157 5.82675 5.16755C5.73875 5.08352 5.62982 5.0415 5.49996 5.0415C5.3701 5.0415 5.26132 5.08535 5.17363 5.17305C5.08563 5.26105 5.04163 5.36998 5.04163 5.49984V7.34463C5.04163 7.47449 5.08563 7.58143 5.17363 7.66546C5.26132 7.74949 5.3701 7.7915 5.49996 7.7915ZM5.49996 4.12484C5.62982 4.12484 5.73875 4.08084 5.82675 3.99284C5.91445 3.90514 5.95829 3.79637 5.95829 3.6665C5.95829 3.53664 5.91445 3.42771 5.82675 3.33971C5.73875 3.25202 5.62982 3.20817 5.49996 3.20817C5.3701 3.20817 5.26132 3.25202 5.17363 3.33971C5.08563 3.42771 5.04163 3.53664 5.04163 3.6665C5.04163 3.79637 5.08563 3.90514 5.17363 3.99284C5.26132 4.08084 5.3701 4.12484 5.49996 4.12484ZM5.49996 10.0832C4.86593 10.0832 4.2701 9.96278 3.71246 9.722C3.15482 9.48153 2.66975 9.15505 2.25725 8.74255C1.84475 8.33005 1.51826 7.84498 1.27779 7.28734C1.03701 6.7297 0.916626 6.13387 0.916626 5.49984C0.916626 4.86581 1.03701 4.26998 1.27779 3.71234C1.51826 3.1547 1.84475 2.66963 2.25725 2.25713C2.66975 1.84463 3.15482 1.51799 3.71246 1.27721C4.2701 1.03674 4.86593 0.916504 5.49996 0.916504C6.13399 0.916504 6.72982 1.03674 7.28746 1.27721C7.8451 1.51799 8.33017 1.84463 8.74267 2.25713C9.15517 2.66963 9.48165 3.1547 9.72213 3.71234C9.9629 4.26998 10.0833 4.86581 10.0833 5.49984C10.0833 6.13387 9.9629 6.7297 9.72213 7.28734C9.48165 7.84498 9.15517 8.33005 8.74267 8.74255C8.33017 9.15505 7.8451 9.48153 7.28746 9.722C6.72982 9.96278 6.13399 10.0832 5.49996 10.0832Z" fill="white"/>
</svg>
