<svg width="20" height="20" viewBox="0 0 20 20" fill="none" xmlns="http://www.w3.org/2000/svg">
<path d="M17.0973 0H2.90283C1.47952 0 0.322021 1.15749 0.322021 2.58081V14.1945C0.322021 15.6178 1.47952 16.7753 2.90283 16.7753V19.3548C2.90283 19.6051 3.04736 19.8322 3.27447 19.9394C3.36093 19.9794 3.45513 20 3.54804 20C3.69643 20 3.84354 19.9497 3.96097 19.8503L7.65282 16.7753H17.0973C18.5206 16.7753 19.6781 15.6178 19.6781 14.1945V2.58081C19.6781 1.15749 18.5206 0 17.0973 0Z" fill="#2196F3"/>
<path d="M4.83844 11.6137H3.54803C3.19188 11.6137 2.90283 11.3246 2.90283 10.9684C2.90283 10.6123 3.19188 10.3232 3.54803 10.3232H4.83844C5.19459 10.3232 5.48364 10.0342 5.48364 9.67804C5.48364 9.32189 5.19459 9.03284 4.83844 9.03284C3.77127 9.03284 2.90283 8.1644 2.90283 7.09723C2.90283 6.03006 3.77127 5.16162 4.83844 5.16162H6.12884C6.48499 5.16162 6.77404 5.45067 6.77404 5.80682C6.77404 6.16298 6.48499 6.45203 6.12884 6.45203H4.83844C4.48229 6.45203 4.19324 6.74108 4.19324 7.09723C4.19324 7.45338 4.48229 7.74243 4.83844 7.74243C5.9056 7.74243 6.77404 8.61088 6.77404 9.67804C6.77404 10.7452 5.9056 11.6137 4.83844 11.6137Z" fill="#FAFAFA"/>
<path d="M15.1617 11.6137H13.8713C13.5151 11.6137 13.2261 11.3246 13.2261 10.9684C13.2261 10.6123 13.5151 10.3232 13.8713 10.3232H15.1617C15.5165 10.3232 15.8069 10.0342 15.8069 9.67804C15.8069 9.32189 15.5165 9.03284 15.1617 9.03284C14.0945 9.03284 13.2261 8.1644 13.2261 7.09723C13.2261 6.03006 14.0945 5.16162 15.1617 5.16162H16.4521C16.8082 5.16162 17.0973 5.45067 17.0973 5.80682C17.0973 6.16298 16.8082 6.45203 16.4521 6.45203H15.1617C14.8068 6.45203 14.5165 6.74108 14.5165 7.09723C14.5165 7.45338 14.8068 7.74243 15.1617 7.74243C16.2288 7.74243 17.0973 8.61088 17.0973 9.67804C17.0973 10.7452 16.2288 11.6137 15.1617 11.6137Z" fill="#FAFAFA"/>
<path d="M11.2905 11.6135C10.9343 11.6135 10.6453 11.3245 10.6453 10.9683V8.53977L10.5769 8.67655C10.3575 9.114 9.64133 9.114 9.42196 8.67655L9.35486 8.53977V10.9683C9.35486 11.3245 9.06581 11.6135 8.70966 11.6135C8.3535 11.6135 8.06445 11.3245 8.06445 10.9683V5.80669C8.06445 5.50731 8.27092 5.24665 8.56126 5.17826C8.84902 5.10858 9.15227 5.25052 9.28647 5.51764L10.0001 6.94482L10.7137 5.51893C10.8466 5.24923 11.1421 5.10987 11.4389 5.17826C11.7305 5.24665 11.9357 5.50731 11.9357 5.80669V10.9683C11.9357 11.3245 11.6466 11.6135 11.2905 11.6135Z" fill="#FAFAFA"/>
</svg>
