
<svg width="40" height="41" viewBox="0 0 40 41" fill="none" xmlns="http://www.w3.org/2000/svg">
<path d="M7.70381 4.06689C6.30863 4.06689 5.16711 5.14352 5.16711 6.45939V38.6075C5.16711 39.9234 6.30863 41 7.70381 41H33.0708C34.4659 41 35.6075 39.9234 35.6075 38.6075V13.6369L25.4607 4.06689H7.70381Z" fill="#D2DBE8"/>
<path d="M27.76 13.1179H35.6079L25.144 4.06689V10.8551C25.144 12.0996 26.3212 13.1179 27.76 13.1179Z" fill="#B7C1CF"/>
<path d="M35.6113 19.4548L28.9525 13.1191H35.6113V19.4548Z" fill="#B9C5D2"/>
<path d="M31.803 33.4162C31.803 34.1554 31.2572 34.7603 30.5901 34.7603H1.21286C0.545786 34.7603 0 34.1554 0 33.4162V19.0704C0 18.3312 0.545786 17.7263 1.21286 17.7263H30.5901C31.2572 17.7263 31.803 18.3312 31.803 19.0704V33.4162Z" fill="#009688"/>
<path d="M30.7113 34.8402H5.16711V35.7453H30.7113C31.3114 35.7453 31.8024 35.338 31.8024 34.8402V33.9351C31.8024 34.4329 31.3114 34.8402 30.7113 34.8402Z" fill="#D3DAE4"/>
<path d="M6.40959 26.7424C6.04872 26.7424 5.78774 26.6903 5.62664 26.5861C5.47198 26.4819 5.39465 26.3531 5.39465 26.1998C5.39465 26.114 5.40432 26.0435 5.42365 25.9883C5.44298 25.927 5.47198 25.8565 5.51065 25.7768C5.60731 25.8626 5.72652 25.9362 5.86829 25.9975C6.01006 26.0527 6.15827 26.0803 6.31293 26.0803C6.4998 26.0803 6.63513 26.0404 6.7189 25.9607C6.80912 25.881 6.86711 25.7645 6.89289 25.6112C6.92511 25.4579 6.94122 25.2464 6.94122 24.9766V20.5621C6.94122 20.4333 6.95088 20.3506 6.97022 20.3138C6.99599 20.2708 7.05399 20.2463 7.1442 20.2402C7.24087 20.2279 7.43741 20.2218 7.73383 20.2218V25.1422C7.73383 25.6511 7.63717 26.0465 7.44385 26.3286C7.25053 26.6045 6.90578 26.7424 6.40959 26.7424Z" fill="white"/>
<path d="M9.9358 26.7516C9.57493 26.7516 9.28818 26.6934 9.07552 26.5769C8.86287 26.4604 8.69855 26.2305 8.58256 25.8871C8.47301 25.5376 8.41823 25.0287 8.41823 24.3604C8.41823 22.7663 8.95631 21.9692 10.0325 21.9692C10.3869 21.9692 10.6704 22.0397 10.8831 22.1808C11.0957 22.3156 11.2568 22.5578 11.3664 22.9073C11.4759 23.2507 11.5307 23.7289 11.5307 24.342C11.5307 25.1759 11.3954 25.786 11.1247 26.1722C10.8605 26.5585 10.4642 26.7516 9.9358 26.7516ZM9.95513 26.1262C10.1871 26.1262 10.3643 25.9975 10.4868 25.74C10.6156 25.4825 10.6801 25.0165 10.6801 24.342C10.6801 23.8638 10.6543 23.499 10.6028 23.2476C10.5576 22.9962 10.4868 22.8245 10.3901 22.7326C10.2934 22.6406 10.1646 22.5946 10.0035 22.5946C9.76503 22.5946 9.58138 22.7234 9.4525 22.9809C9.33006 23.2384 9.26884 23.7044 9.26884 24.3788C9.26884 24.8693 9.29462 25.2403 9.34617 25.4917C9.39772 25.743 9.47183 25.9117 9.56849 25.9975C9.66515 26.0833 9.79403 26.1262 9.95513 26.1262Z" fill="white"/>
<path d="M13.3767 26.7516C12.8612 26.7516 12.4874 26.6597 12.2554 26.4757V20.2402C12.2554 20.1237 12.2748 20.044 12.3134 20.0011C12.3521 19.952 12.4197 19.9244 12.5164 19.9183C12.6131 19.906 12.7838 19.8999 13.0287 19.8999V22.2911C13.3187 22.0765 13.6634 21.9692 14.063 21.9692C14.4625 21.9692 14.7589 22.1072 14.9522 22.3831C15.152 22.659 15.2519 23.125 15.2519 23.781C15.2519 24.9644 15.0715 25.7553 14.7106 26.1538C14.3562 26.5524 13.9115 26.7516 13.3767 26.7516ZM13.483 26.0987C13.7214 26.0987 13.9309 25.9484 14.1113 25.648C14.2917 25.3414 14.3819 24.7712 14.3819 23.9374C14.3819 23.4591 14.3272 23.125 14.2176 22.9349C14.1081 22.7387 13.9373 22.6406 13.7053 22.6406C13.4347 22.6406 13.2091 22.7264 13.0287 22.8981V25.9699C13.1318 26.0557 13.2832 26.0987 13.483 26.0987Z" fill="white"/>
<path d="M20.5679 26.5125C20.5679 26.5677 20.555 26.6045 20.5292 26.6229C20.5099 26.6413 20.4358 26.6535 20.3069 26.6597C20.1845 26.6597 20.0137 26.6597 19.7946 26.6597V23.5419H18.2481V26.5125C18.2481 26.5677 18.2352 26.6045 18.2094 26.6229C18.1901 26.6413 18.116 26.6535 17.9871 26.6597C17.8582 26.6597 17.6842 26.6597 17.4651 26.6597V20.3689C17.4651 20.3138 17.4748 20.277 17.4941 20.2586C17.5199 20.2402 17.5972 20.231 17.7261 20.231C17.855 20.2249 18.029 20.2218 18.2481 20.2218V22.8429H19.7946V20.3689C19.7946 20.3138 19.8043 20.277 19.8236 20.2586C19.8494 20.2402 19.9235 20.231 20.0459 20.231C20.1748 20.2249 20.3488 20.2218 20.5679 20.2218V26.5125Z" fill="white"/>
<path d="M22.6089 26.7516C22.1965 26.7516 21.8711 26.6597 21.6327 26.4757C21.4007 26.2857 21.2847 25.9117 21.2847 25.3537C21.2847 24.7712 21.4007 24.3758 21.6327 24.1673C21.8711 23.9527 22.1869 23.8454 22.58 23.8454C22.8828 23.8454 23.118 23.8853 23.2856 23.965V23.2384C23.2856 23.0299 23.2372 22.8859 23.1406 22.8061C23.0439 22.7264 22.8925 22.6866 22.6863 22.6866C22.4543 22.6866 22.2191 22.708 21.9807 22.751C21.7422 22.7878 21.5489 22.8368 21.4007 22.8981C21.3298 22.7694 21.2944 22.6253 21.2944 22.4659C21.2944 22.3432 21.3298 22.2605 21.4007 22.2175C21.4974 22.1562 21.6842 22.101 21.9613 22.052C22.2384 21.9968 22.5445 21.9692 22.8796 21.9692C23.2985 21.9692 23.6013 22.0551 23.7882 22.2267C23.9751 22.3984 24.0685 22.6866 24.0685 23.0913V23.5787C24.0685 24.9276 24.0492 25.881 24.0105 26.4389C23.8559 26.5309 23.6593 26.6045 23.4209 26.6597C23.1825 26.721 22.9118 26.7516 22.6089 26.7516ZM22.7443 26.1262C22.8474 26.1262 22.9473 26.1109 23.0439 26.0803C23.1406 26.0496 23.2115 26.0159 23.2566 25.9791C23.2759 25.7706 23.2856 25.274 23.2856 24.4892C23.1631 24.4279 23.0117 24.3972 22.8313 24.3972C22.5993 24.3972 22.4188 24.4616 22.29 24.5904C22.1611 24.7191 22.0966 24.9674 22.0966 25.3353C22.0966 25.648 22.1482 25.8595 22.2513 25.9699C22.3609 26.0741 22.5252 26.1262 22.7443 26.1262Z" fill="white"/>
<path d="M24.8758 22.4015C24.8758 22.285 24.8951 22.2053 24.9338 22.1624C24.9789 22.1133 25.0498 22.0857 25.1464 22.0796C25.2431 22.0673 25.4139 22.0612 25.6587 22.0612V26.5125C25.6587 26.5677 25.6458 26.6045 25.6201 26.6229C25.6007 26.6413 25.5266 26.6535 25.3977 26.6597C25.2689 26.6597 25.0949 26.6597 24.8758 26.6597V22.4015ZM25.2334 21.4174C24.9757 21.4174 24.8468 21.2396 24.8468 20.884C24.8468 20.4916 24.995 20.2954 25.2914 20.2954C25.4332 20.2954 25.5331 20.3352 25.5911 20.4149C25.6491 20.4946 25.6781 20.6326 25.6781 20.8288C25.6781 21.0127 25.6394 21.1568 25.5621 21.2611C25.4847 21.3653 25.3752 21.4174 25.2334 21.4174Z" fill="white"/>
<path d="M10.5122 30.4597C10.6222 30.6003 10.7202 30.785 10.8061 31.0139C10.8955 31.2428 10.9453 31.5224 10.9556 31.8527C10.9556 31.8887 10.9487 31.9148 10.935 31.9312C10.9247 31.9475 10.8989 31.959 10.8576 31.9655C10.8164 31.9721 10.7494 31.9753 10.6566 31.9753C10.5638 31.9753 10.4521 31.9704 10.3215 31.9606C10.3146 31.6205 10.2785 31.3442 10.2132 31.1317C10.1479 30.9158 10.0723 30.7491 9.98642 30.6313C9.9658 30.6346 9.93486 30.6362 9.89362 30.6362H9.85238V31.8625C9.85238 31.8985 9.84207 31.923 9.82145 31.9361C9.80427 31.9459 9.74928 31.9524 9.65648 31.9557C9.56369 31.959 9.43824 31.9606 9.28015 31.9606V28.6252C9.28015 28.6088 9.28702 28.5892 9.30077 28.5663C9.31452 28.5402 9.34201 28.5271 9.38326 28.5271H9.86785C10.0981 28.5271 10.2854 28.5565 10.4298 28.6154C10.5741 28.6742 10.6841 28.7772 10.7597 28.9244C10.8353 29.0715 10.8731 29.2759 10.8731 29.5375C10.8731 29.9724 10.7528 30.2798 10.5122 30.4597ZM9.85238 30.131H9.96064C10.05 30.131 10.117 30.0869 10.1617 29.9986C10.2064 29.9103 10.2287 29.7468 10.2287 29.5081C10.2287 29.3315 10.2098 29.2023 10.172 29.1206C10.1376 29.0388 10.0792 28.998 9.99673 28.998H9.85238V30.131Z" fill="white"/>
<path d="M12.0574 31.475H12.7895C12.7895 31.6058 12.7878 31.7105 12.7843 31.7889C12.7809 31.8674 12.7723 31.9165 12.7586 31.9361C12.7482 31.9524 12.7259 31.9606 12.6915 31.9606H11.4852V28.6252C11.4852 28.6088 11.4921 28.5892 11.5058 28.5663C11.5196 28.5402 11.5471 28.5271 11.5883 28.5271H12.8256C12.8256 28.6513 12.8239 28.7527 12.8204 28.8312C12.817 28.9097 12.8084 28.9604 12.7946 28.9832C12.7809 29.0029 12.7568 29.0127 12.7225 29.0127H12.0574V29.8514H12.6864C12.6864 29.9724 12.6847 30.0738 12.6812 30.1556C12.6778 30.234 12.6692 30.2864 12.6554 30.3125C12.6451 30.3387 12.6245 30.3518 12.5936 30.3518H12.0574V31.475Z" fill="white"/>
<path d="M13.9612 32.0097C13.7412 32.0097 13.5728 31.9786 13.456 31.9165C13.3425 31.8511 13.2858 31.7726 13.2858 31.681C13.2858 31.6222 13.2961 31.5584 13.3168 31.4897C13.3408 31.4178 13.3735 31.3508 13.4147 31.2886C13.4697 31.3377 13.5402 31.3769 13.6261 31.4063C13.7154 31.4358 13.8048 31.4505 13.8942 31.4505C14.0316 31.4505 14.1296 31.4178 14.188 31.3524C14.2464 31.287 14.2756 31.1922 14.2756 31.0679C14.2756 30.9829 14.2585 30.9028 14.2241 30.8275C14.1932 30.7523 14.133 30.6575 14.0437 30.5431L13.5745 29.9495C13.4611 29.8089 13.3838 29.683 13.3425 29.5719C13.3013 29.4607 13.2807 29.3462 13.2807 29.2285C13.2807 28.9996 13.3597 28.8181 13.5178 28.684C13.6759 28.5467 13.9027 28.478 14.1983 28.478C14.4492 28.478 14.6279 28.5009 14.7345 28.5467C14.8444 28.5925 14.8994 28.6611 14.8994 28.7527C14.8994 28.8606 14.8547 28.962 14.7654 29.0568C14.7345 29.0339 14.6743 29.0127 14.585 28.9931C14.4956 28.9702 14.4062 28.9587 14.3169 28.9587C14.1863 28.9587 14.0849 28.98 14.0127 29.0225C13.9405 29.065 13.9045 29.1288 13.9045 29.2138C13.9045 29.289 13.9182 29.3577 13.9457 29.4198C13.9732 29.4819 14.023 29.5588 14.0952 29.6503L14.5901 30.2537C14.7104 30.4008 14.7912 30.5349 14.8324 30.6559C14.8771 30.7736 14.8994 30.906 14.8994 31.0532C14.8994 31.3377 14.829 31.5682 14.6881 31.7448C14.5471 31.9214 14.3049 32.0097 13.9612 32.0097Z" fill="white"/>
<path d="M16.3751 32.0097C16.1208 32.0097 15.9249 31.9672 15.7874 31.8821C15.6534 31.7971 15.564 31.6843 15.5193 31.5437C15.4747 31.4031 15.4523 31.2281 15.4523 31.0188V28.6301C15.4523 28.5908 15.4609 28.5663 15.4781 28.5565C15.4953 28.5434 15.5382 28.5353 15.607 28.532C15.6791 28.5287 15.8252 28.5271 16.0452 28.5271V31.0385C16.0452 31.2085 16.0675 31.3295 16.1122 31.4014C16.1569 31.4734 16.2445 31.5093 16.3751 31.5093C16.5023 31.5093 16.6036 31.4897 16.6793 31.4505V28.6301C16.6793 28.5908 16.6878 28.5663 16.705 28.5565C16.7222 28.5434 16.7652 28.5353 16.8339 28.532C16.9027 28.5287 17.0453 28.5271 17.2618 28.5271V31.8233C17.1862 31.8691 17.0693 31.9116 16.9112 31.9508C16.7531 31.99 16.5744 32.0097 16.3751 32.0097Z" fill="white"/>
<path d="M19.9984 28.5271V31.8625C19.9984 31.8985 19.9898 31.923 19.9726 31.9361C19.9555 31.9459 19.8987 31.9524 19.8025 31.9557C19.7063 31.959 19.5757 31.9606 19.4107 31.9606L19.4365 31.0188C19.4434 30.7867 19.4571 30.5627 19.4777 30.3469C19.5018 30.1278 19.5241 29.9495 19.5448 29.8122C19.5654 29.6749 19.5791 29.5882 19.586 29.5522L19.5705 29.5424C19.4434 30.0231 19.3557 30.3272 19.3076 30.4548L19.0602 31.1071C19.0533 31.13 19.0344 31.1415 19.0035 31.1415H18.7663L18.524 30.4548C18.4759 30.3174 18.3917 30.0133 18.2714 29.5424L18.2559 29.5522C18.2628 29.5882 18.2766 29.6749 18.2972 29.8122C18.3212 29.9463 18.3436 30.1212 18.3642 30.337C18.3883 30.5529 18.4003 30.7785 18.4003 31.0139L18.4158 31.8625C18.4158 31.8985 18.4054 31.923 18.3848 31.9361C18.3642 31.9459 18.3075 31.9524 18.2147 31.9557C18.1219 31.959 17.9999 31.9606 17.8487 31.9606V28.6252C17.8487 28.5827 17.8573 28.5565 17.8745 28.5467C17.8916 28.5336 17.9174 28.5271 17.9518 28.5271H18.3848L18.7972 29.7435C18.8419 29.8678 18.8746 29.9757 18.8952 30.0673C18.9193 30.1588 18.933 30.216 18.9364 30.2389C18.9399 30.216 18.9519 30.1588 18.9725 30.0673C18.9931 29.9757 19.0224 29.8711 19.0602 29.7533L19.4159 28.6252C19.4296 28.5859 19.4416 28.5598 19.452 28.5467C19.4657 28.5336 19.488 28.5271 19.519 28.5271H19.9984Z" fill="white"/>
<path d="M21.1496 31.475H21.8816C21.8816 31.6058 21.8799 31.7105 21.8764 31.7889C21.873 31.8674 21.8644 31.9165 21.8507 31.9361C21.8404 31.9524 21.818 31.9606 21.7836 31.9606H20.5773V28.6252C20.5773 28.6088 20.5842 28.5892 20.5979 28.5663C20.6117 28.5402 20.6392 28.5271 20.6804 28.5271H21.9177C21.9177 28.6513 21.916 28.7527 21.9125 28.8312C21.9091 28.9097 21.9005 28.9604 21.8868 28.9832C21.873 29.0029 21.8489 29.0127 21.8146 29.0127H21.1496V29.8514H21.7785C21.7785 29.9724 21.7768 30.0738 21.7733 30.1556C21.7699 30.234 21.7613 30.2864 21.7476 30.3125C21.7373 30.3387 21.7166 30.3518 21.6857 30.3518H21.1496V31.475Z" fill="white"/>
<mask id="mask0" mask-type="alpha" maskUnits="userSpaceOnUse" x="23" y="1" width="17" height="15">
<path fill-rule="evenodd" clip-rule="evenodd" d="M31.6791 15.7151C27.4084 15.7151 23.9463 12.4208 23.9463 8.35757C23.9463 4.29435 27.4084 1 31.6791 1C35.9498 1 39.4119 4.29435 39.4119 8.35757C39.4119 12.4208 35.9498 15.7151 31.6791 15.7151Z" fill="white"/>
</mask>
<g mask="url(#mask0)">
<path fill-rule="evenodd" clip-rule="evenodd" d="M19.114 -3.59961H44.2457V20.3125H19.114V-3.59961Z" fill="#A0B0C7"/>
</g>
<path fill-rule="evenodd" clip-rule="evenodd" d="M31.6791 15.7151C35.9498 15.7151 39.4119 12.421 39.4119 8.35757C39.4119 4.2941 35.9498 1 31.6791 1C27.4084 1 23.9463 4.2941 23.9463 8.35757C23.9463 12.421 27.4084 15.7151 31.6791 15.7151Z" stroke="#FFF9EB"/>
<mask id="mask1" mask-type="alpha" maskUnits="userSpaceOnUse" x="29" y="4" width="6" height="8">
<path fill-rule="evenodd" clip-rule="evenodd" d="M34.0209 7.56602C34.2478 7.56602 34.399 7.71041 34.399 7.92654V11.5235C34.399 11.7037 34.2478 11.884 34.0209 11.884H29.4835C29.2944 11.884 29.1053 11.7037 29.1053 11.5235V7.92654C29.1053 7.71041 29.2944 7.56602 29.4835 7.56602H29.8616V6.55895C29.8616 5.62362 30.58 4.79589 31.5631 4.68829C32.6975 4.58068 33.6428 5.44336 33.6428 6.48722C33.6428 6.70334 33.4537 6.84682 33.2646 6.84682C33.0756 6.84682 32.8865 6.70334 32.8865 6.48722C32.8865 5.80388 32.2437 5.29989 31.5253 5.40749C30.9959 5.51602 30.6178 5.98322 30.6178 6.52308V7.56602H34.0209ZM32.1312 9.97702C32.3959 9.83355 32.585 9.54569 32.5094 9.22195C32.4337 8.96996 32.2069 8.75383 31.9422 8.68209C31.4506 8.57449 30.9969 8.89822 30.9969 9.36543C30.9969 9.61742 31.1481 9.83355 31.375 9.97702V10.4451C31.375 10.6613 31.5263 10.8048 31.7531 10.8048C31.98 10.8048 32.1312 10.6613 32.1312 10.4451V9.97702Z" fill="white"/>
</mask>
<g mask="url(#mask1)">
<path fill-rule="evenodd" clip-rule="evenodd" d="M24.2678 0.0791016H39.2275V16.481H24.2678V0.0791016Z" fill="white"/>
</g>
<rect x="32.8875" y="6.51758" width="0.754224" height="1.83939" fill="white"/>
</svg>
