<?xml version="1.0" encoding="UTF-8"?>
<svg width="24px" height="23px" viewBox="0 0 24 23" version="1.1" xmlns="http://www.w3.org/2000/svg" xmlns:xlink="http://www.w3.org/1999/xlink">
    <!-- Generator: Sketch 59.1 (86144) - https://sketch.com -->
    <title>briefcase</title>
    <desc>Created with Sketch.</desc>
    <g id="Page-1" stroke="none" stroke-width="1" fill="none" fill-rule="evenodd">
        <g id="briefcase" transform="translate(0.000000, 0.000000)">
            <path d="M20.7642158,21.7701799 L3.18895603,21.7701799 C2.14528111,21.7701799 1.29933971,20.9370731 1.29933971,19.9094546 L1.29933971,7.39629751 L22.6540149,7.39629751 L22.6540149,19.9094546 C22.6540149,20.9370731 21.8078907,21.7701799 20.7642158,21.7701799 Z" id="Path" fill="#4DB6AC"></path>
            <path d="M21.6145431,7.39629751 L1.29915693,7.39629751 L1.29915693,12.7715462 C1.42817718,12.8165303 1.56121787,12.8530575 1.69864451,12.8796881 L10.3779047,14.463131 L13.5752671,14.463131 L21.6145431,12.996467 L21.6145431,19.9094546 C21.6145431,20.937253 20.7684189,21.7701799 19.724744,21.7701799 L20.7642158,21.7701799 C21.8078907,21.7701799 22.6538321,20.937253 22.6538321,19.9094546 L22.6538321,7.39629751 L21.6145431,7.39629751 Z" id="Path" fill="#40806E" fill-rule="nonzero"></path>
            <polygon id="Path" fill="#C9D2E3" fill-rule="nonzero" points="13.4884617 13.5326784 13.4884617 15.5794582 10.4647101 15.5794582 10.4647101 13.5326784"></polygon>
            <polygon id="Path" fill="#ADBBD5" fill-rule="nonzero" points="10.4647101 13.5326784 13.4884617 13.5326784 13.4884617 14.463131 10.4647101 14.463131"></polygon>
            <path d="M11.9765859,13.5326784 L13.4884617,13.5326784 L22.0726929,11.9666894 C22.9593871,11.7953896 23.598823,11.0302988 23.598823,10.1406919 L23.598823,7.0704322 C23.598823,6.04281377 22.7526989,5.20970689 21.7090239,5.20970689 L2.24414787,5.20970689 C1.2004729,5.20970689 0.354348767,6.04281377 0.354348767,7.0704322 L0.354348767,10.1406919 C0.354348767,11.0302988 0.993784723,11.7953896 1.88047893,11.9666894 L10.4647101,13.5326784 L11.9765859,13.5326784 Z" id="Path" fill="#4DB6AC"></path>
            <path d="M21.7090239,5.20970689 L20.5752541,5.20970689 C21.6189291,5.20970689 22.4650532,6.04281377 22.4650532,7.0704322 L22.4650532,10.6096069 C22.4650532,11.1636319 22.2168812,11.669434 21.8153834,12.0134729 L22.0726929,11.9666894 C22.9593871,11.7953896 23.598823,11.0302988 23.598823,10.1406919 L23.598823,7.0704322 C23.598823,6.04281377 22.7526989,5.20970689 21.7090239,5.20970689 Z" id="Path" fill="#40806E" fill-rule="nonzero"></path>
            <path d="M21.7090239,5.20970689 L20.5752541,5.20970689 C21.6189291,5.20970689 22.4650532,6.04281377 22.4650532,7.0704322 L22.4650532,10.6096069 C22.4650532,11.1636319 22.2168812,11.669434 21.8153834,12.0134729 L22.0726929,11.9666894 C22.9593871,11.7953896 23.598823,11.0302988 23.598823,10.1406919 L23.598823,7.0704322 C23.598823,6.04281377 22.7526989,5.20970689 21.7090239,5.20970689 Z" id="Path" fill="#40806E" fill-rule="nonzero"></path>
            <polygon id="Path" fill="#FFD664" fill-rule="nonzero" points="11.9765859 17.9519234 13.4884617 17.4867871 13.4884617 15.5794582 10.4647101 15.5794582 10.4647101 17.4867871"></polygon>
            <path d="M12.7324324,15.5794582 L12.7324324,17.7192653 L13.4884617,17.4867871 L13.4884617,15.5794582 C13.4884617,15.5794582 13.1105384,15.5794582 12.7324324,15.5794582 Z" id="Path" fill="#F9C646" fill-rule="nonzero"></path>
            <polygon id="Path" fill="#FFD664" fill-rule="nonzero" points="6.30718854 3.81429792 9.14197858 3.81429792 9.14197858 5.20970689 6.30718854 5.20970689"></polygon>
            <path d="M8.5277619,3.81429792 L8.5277619,4.18640694 C8.5277619,4.44335657 8.31613947,4.65154331 8.05517509,4.65154331 L6.30718854,4.65154331 L6.30718854,5.20970689 L9.14179585,5.20970689 L9.14179585,3.81429792 L8.5277619,3.81429792 Z" id="Path" fill="#F9C646" fill-rule="nonzero"></path>
            <polygon id="Path" fill="#FFD664" fill-rule="nonzero" points="14.8113759 3.81429792 17.6459832 3.81429792 17.6459832 5.20970689 14.8113759 5.20970689"></polygon>
            <path d="M17.0317666,3.81429792 L17.0317666,4.18640694 C17.0317666,4.44335657 16.8203269,4.65154331 16.5593624,4.65154331 L14.8111932,4.65154331 L14.8111932,5.20970689 L17.6459832,5.20970689 L17.6459832,3.81429792 L17.0317666,3.81429792 Z" id="Path" fill="#F9C646" fill-rule="nonzero"></path>
            <path d="M16.9846175,3.81429792 L15.4727417,3.81429792 L15.4727417,2.97687255 C15.4727417,2.36130916 14.9639707,1.86036542 14.3387891,1.86036542 L9.61438266,1.86036542 C8.98920109,1.86036542 8.48043011,2.36130916 8.48043011,2.97687255 L8.48043011,3.81429792 L6.96855428,3.81429792 L6.96855428,2.97687255 C6.96855428,1.54043797 8.15550384,0.371929144 9.61438266,0.371929144 L14.3387891,0.371929144 C15.7976679,0.371929144 16.9844348,1.54043797 16.9844348,2.97687255 L16.9844348,3.81429792 L16.9846175,3.81429792 Z" id="Path" fill="#C9D2E3" fill-rule="nonzero"></path>
            <path d="M7.81906437,2.97687255 L7.81906437,3.81429792 L8.48043011,3.81429792 L8.48043011,2.97687255 C8.48043011,2.36130916 8.98920109,1.86036542 9.61438266,1.86036542 L8.95283423,1.86036542 C8.32765261,1.86036542 7.81906437,2.36130916 7.81906437,2.97687255 Z" id="Path" fill="#ADBBD5" fill-rule="nonzero"></path>
            <path d="M14.3387891,0.371929144 L13.6774234,0.371929144 C15.1363022,0.371929144 16.323069,1.54043797 16.323069,2.97687255 L16.323069,3.81429792 L16.9846175,3.81429792 L16.9846175,2.97687255 C16.9846175,1.54043797 15.7976679,0.371929144 14.3387891,0.371929144 Z" id="Path" fill="#ADBBD5" fill-rule="nonzero"></path>
            <path d="M21.7090239,4.86080969 L18.000332,4.86080969 L18.000332,3.81429792 C18.000332,3.62158571 17.8417066,3.46540067 17.6459832,3.46540067 L17.3389663,3.46540067 L17.3389663,2.97687255 C17.3389663,1.34808566 15.9930258,0.0230318959 14.3387891,0.0230318959 L9.61438266,0.0230318959 C7.96014602,0.0230318959 6.61438825,1.34808566 6.61438825,2.97687255 L6.61438825,3.46540067 L6.30718854,3.46540067 C6.11146521,3.46540067 5.95283982,3.62158571 5.95283982,3.81429792 L5.95283982,4.86098961 L4.60050316,4.86098961 C4.40477982,4.86098961 4.24615439,5.01717466 4.24615439,5.20970689 C4.24615439,5.40241909 4.40477982,5.55860414 4.60050316,5.55860414 L21.7090239,5.55860414 C22.5556963,5.55860414 23.2444742,6.23696547 23.2444742,7.07061213 L23.2444742,10.1406919 C23.2444742,10.8616982 22.7229109,11.4855387 22.0081827,11.6237301 L13.4557498,13.1839611 L10.4972392,13.1839611 L1.94864404,11.6242698 C1.23026087,11.4855387 0.708697535,10.8616982 0.708697535,10.1406919 L0.708697535,7.0704322 C0.708697535,6.2367855 1.39747548,5.55860414 2.24414787,5.55860414 L2.95576937,5.55860414 C3.15149266,5.55860414 3.3101181,5.40241909 3.3101181,5.20970689 C3.3101181,5.01699469 3.15149266,4.86080969 2.95576937,4.86080969 L2.24414787,4.86080969 C1.00675981,4.86080969 5.68434189e-14,5.85208089 5.68434189e-14,7.0704322 L5.68434189e-14,10.1406919 C5.68434189e-14,10.8723145 0.367689374,11.5352012 0.944808159,11.9404186 L0.944808159,19.9094546 C0.944808159,21.1278059 1.95156802,22.1190771 3.18895603,22.1190771 L17.1026728,22.1190771 C17.2983961,22.1190771 17.4570216,21.9628921 17.4570216,21.7701799 C17.4570216,21.5774677 17.2983961,21.4212826 17.1026728,21.4212826 L3.18895603,21.4212826 C2.34228364,21.4212826 1.65350569,20.7431013 1.65350569,19.9094546 L1.65350569,12.2716821 C1.70686817,12.286077 1.76096163,12.2990324 1.81596883,12.3096487 L10.1103613,13.8229162 L10.1103613,17.4867871 C10.1103613,17.6393734 10.2110556,17.7741459 10.3590816,17.8196699 L11.8709575,18.2849862 C11.9053141,18.2954225 11.94095,18.3008206 11.9765859,18.3008206 C12.0122218,18.3008206 12.0478577,18.2954225 12.0822143,18.2849862 L13.5940902,17.8196699 C13.7421162,17.7741459 13.8428105,17.6393734 13.8428105,17.4867871 L13.8428105,13.8229162 L22.1408579,12.3091089 C22.1945859,12.2986726 22.2474001,12.2858971 22.2996661,12.2720419 L22.2996661,19.9094546 C22.2996661,20.7432812 21.6108881,21.4212826 20.7642158,21.4212826 L18.760199,21.4212826 C18.5644757,21.4212826 18.4058502,21.5774677 18.4058502,21.7701799 C18.4058502,21.9628921 18.5644757,22.1190771 18.760199,22.1190771 L20.7642158,22.1190771 C22.0016038,22.1190771 23.0081808,21.1278059 23.0081808,19.9094546 L23.0081808,11.9409584 C23.5849342,11.5361009 23.9531718,10.8726743 23.9531718,10.1406919 L23.9531718,7.0704322 C23.9531718,5.85208089 22.946412,4.86080969 21.7090239,4.86080969 Z M7.32290305,2.97687255 C7.32290305,1.73279032 8.35086165,0.720826391 9.61438266,0.720826391 L14.3387891,0.720826391 C15.6023101,0.720826391 16.6302687,1.73279032 16.6302687,2.97687255 L16.6302687,3.46540067 L15.8270904,3.46540067 L15.8270904,2.97687255 C15.8270904,2.16895685 15.1593285,1.5116481 14.3387891,1.5116481 L13.5533373,1.5116481 C13.357614,1.5116481 13.1989886,1.66783314 13.1989886,1.86036542 C13.1989886,2.05307758 13.357614,2.20926267 13.5533373,2.20926267 L14.3387891,2.20926267 C14.7686129,2.20926267 15.1183929,2.55366146 15.1183929,2.97687255 L15.1183929,3.46540067 L14.8111932,3.46540067 C14.6154699,3.46540067 14.4568444,3.62158571 14.4568444,3.81429792 L14.4568444,4.86098961 L9.49614461,4.86098961 L9.49614461,3.81429792 C9.49614461,3.62158571 9.33751918,3.46540067 9.14179585,3.46540067 L8.83477887,3.46540067 L8.83477887,2.97687255 C8.83477887,2.55366146 9.1845589,2.20926267 9.61438266,2.20926267 L11.9056796,2.20926267 C12.1014029,2.20926267 12.2600284,2.05307758 12.2600284,1.86036542 C12.2600284,1.66783314 12.1014029,1.5116481 11.9056796,1.5116481 L9.61438266,1.5116481 C8.79384328,1.5116481 8.12608134,2.16895685 8.12608134,2.97687255 L8.12608134,3.46540067 L7.32290305,3.46540067 L7.32290305,2.97687255 Z M6.66153731,4.86080969 L6.66153731,4.16301519 L8.78762986,4.16301519 L8.78762986,4.86080969 L6.66153731,4.86080969 Z M15.1655419,4.86080969 L15.1655419,4.16301519 L17.2916345,4.16301519 L17.2916345,4.86080969 L15.1655419,4.86080969 Z M10.8190588,13.8815756 L13.134113,13.8815756 L13.134113,15.2305609 L10.8190588,15.2305609 L10.8190588,13.8815756 Z M13.134113,17.2301973 L11.9765859,17.586472 L10.8190588,17.2301973 L10.8190588,15.9283554 L13.134113,15.9283554 L13.134113,17.2301973 Z" id="Shape" fill="#000000" fill-rule="nonzero"></path>
        </g>
    </g>
</svg>