
<svg width="68" height="77" viewBox="0 0 68 77" fill="none" xmlns="http://www.w3.org/2000/svg">
<path d="M43.4234 19.7185C43.2597 19.2098 42.8197 18.8397 42.2899 18.7628L37.4317 18.057L35.2581 13.6535C34.7847 12.6955 33.2154 12.6955 32.7408 13.6535L30.5683 18.057L25.709 18.7628C25.181 18.8397 24.741 19.2098 24.5755 19.7185C24.4101 20.2271 24.5491 20.7839 24.9316 21.1576L28.4469 24.5849L27.6174 29.4237C27.5271 29.9494 27.7435 30.4826 28.1753 30.7965C28.6095 31.1104 29.1803 31.1526 29.6537 30.9045L33.9997 28.6188L38.3458 30.9045C38.5523 31.0112 38.7752 31.0646 38.9987 31.0646C39.2885 31.0646 39.5784 30.9731 39.8236 30.7965C40.2542 30.4826 40.4719 29.9499 40.3815 29.4237L39.552 24.5849L43.0673 21.1576C43.451 20.7845 43.5888 20.2277 43.4234 19.7185Z" fill="#FFAB00" stroke="#404040" stroke-width="2"/>
<path d="M34.0002 7.74342C33.3091 7.74342 32.75 7.18432 32.75 6.49323V4.93152C32.75 4.24043 33.3091 3.68134 34.0002 3.68134C34.6901 3.68134 35.2492 4.24043 35.2492 4.93152V6.49323C35.2492 7.18432 34.6901 7.74342 34.0002 7.74342Z" fill="#FFAB00"/>
<path d="M34.0002 40.3187C33.3091 40.3187 32.75 39.7584 32.75 39.0685V37.5068C32.75 36.8157 33.3091 36.2566 34.0002 36.2566C34.6901 36.2566 35.2492 36.8157 35.2492 37.5068V39.0685C35.2492 39.7584 34.6901 40.3187 34.0002 40.3187Z" fill="#FFAB00"/>
<path d="M44.0819 11.9187C43.5938 11.4306 43.5938 10.6386 44.0819 10.1505L45.1866 9.04583C45.6747 8.55772 46.4667 8.55772 46.9536 9.04583C47.4429 9.53394 47.4429 10.3259 46.9536 10.814L45.8489 11.9187C45.3602 12.4068 44.5688 12.4068 44.0819 11.9187Z" fill="#FFAB00"/>
<path d="M48.2568 22C48.2568 21.3089 48.8159 20.7498 49.507 20.7498H51.0687C51.7587 20.7498 52.3189 21.3101 52.3189 22C52.3189 22.6899 51.7587 23.2502 51.0687 23.2502H49.507C48.8159 23.2502 48.2568 22.6899 48.2568 22Z" fill="#FFAB00"/>
<path d="M15.6816 22C15.6805 21.3089 16.2407 20.7498 16.9318 20.7498H18.4935C19.1835 20.7498 19.7437 21.3101 19.7437 22C19.7425 22.6899 19.1835 23.2502 18.4935 23.2502H16.9318C16.2413 23.2502 15.6816 22.6899 15.6816 22Z" fill="#FFAB00"/>
<path d="M21.0467 9.04638C21.5349 8.55827 22.3269 8.55827 22.815 9.04638L23.9197 10.1511C24.4078 10.6392 24.4078 11.4312 23.9197 11.9193C23.4315 12.4074 22.6395 12.4074 22.1514 11.9193L21.0467 10.8146C20.5586 10.3265 20.5586 9.53448 21.0467 9.04638Z" fill="#FFAB00"/>
<path d="M55.3321 54.486L53.6115 40.5089L50.3873 40.9058L50.3886 40.9035L44.1378 37.3857C43.471 37.0105 42.7058 36.8473 41.9439 36.9176L32.0741 37.8305C30.8608 37.9427 29.7767 38.6349 29.1646 39.6885L22.2081 51.6621C21.6944 52.5462 22.0976 53.6801 23.0542 54.0414L23.3388 54.1488C23.8862 54.3556 24.4489 54.4753 25.0112 54.5221L24.1298 55.2898L22.3663 56.8263L17.3507 61.1046C16.4578 61.8824 16.3651 63.2357 17.1429 64.1286L17.6517 64.7113C18.6505 65.8567 20.3889 65.9757 21.5364 64.9766L23.4534 67.1753C24.0766 67.891 24.9897 68.2076 25.8669 68.0996C26.3941 68.0348 26.9085 67.8162 27.338 67.4405L29.2528 69.6394C29.8783 70.3569 30.7912 70.6714 31.6685 70.5634C32.1957 70.4985 32.7102 70.2821 33.1398 69.9065L34.1805 70.8058C35.1795 71.9532 36.92 72.0718 38.0675 71.0728L39.4821 69.8386L51.3747 60.5765L51.3875 60.5647L56.0797 60.5601L55.3321 54.486Z" fill="#F29F5C"/>
<path d="M52.4003 63.0095L46.0284 57.5154L44.2565 55.9887L42.9886 54.8967L37.5372 50.1977L38.1668 44.8385C38.3798 43.026 37.2388 41.3291 35.4798 40.8423L23.5966 37.5542C22.3393 37.2063 21.0104 37.7897 20.4156 38.9508L18.9212 41.8679L12.5066 41.4325L10.8635 55.419L10.1494 61.4972L16.3934 61.9125L16.4063 61.9243L29.4507 73.1683L30.8722 74.3946C32.0251 75.3873 32.874 73.9812 33.8667 72.8283L35.633 71.6101C36.0647 71.9833 37.6075 72.4855 38.1351 72.5475C39.0128 72.6507 39.9241 72.3311 40.5456 71.6101L42.4482 69.4007C42.8799 69.7739 43.3954 69.9896 43.923 70.0516C44.8008 70.1547 45.7121 69.8331 46.3314 69.1139L48.236 66.9046C49.3889 67.8973 51.1268 67.7687 52.1192 66.6178L52.6248 66.0321C53.3977 65.135 53.2974 63.7822 52.4003 63.0095Z" fill="#F9C295"/>
<path d="M16.7204 61.8986L15.9646 62.8966C15.1416 63.9834 15.3554 65.5316 16.4422 66.3548C17.529 67.1778 19.0772 66.964 19.9003 65.8772L20.6561 64.8792C21.4791 63.7924 21.2653 62.2441 20.1785 61.421C19.0917 60.598 17.5434 60.8118 16.7204 61.8986Z" fill="#F29F5C"/>
<path d="M21.3235 63.9973L19.9001 65.8768C19.0771 66.9636 19.2909 68.5118 20.3777 69.335C21.4645 70.158 23.0127 69.9442 23.8359 68.8574L25.2592 66.9779C26.0822 65.8911 25.8684 64.3429 24.7816 63.5198C23.6947 62.6968 22.1465 62.9106 21.3235 63.9973Z" fill="#F29F5C"/>
<path d="M25.7755 66.296L23.8357 68.8575C23.0127 69.9442 23.2265 71.4925 24.3133 72.3156C25.4001 73.1386 26.9483 72.9248 27.7714 71.838L29.7112 69.2766C30.5342 68.1898 30.3204 66.6415 29.2336 65.8184C28.1469 64.9954 26.5986 65.2092 25.7755 66.296Z" fill="#F29F5C"/>
<path d="M29.8236 69.1279L27.7712 71.8379C26.9482 72.9247 27.162 74.473 28.2488 75.2961C29.3356 76.1191 30.8838 75.9053 31.707 74.8185L33.7594 72.1085C34.5824 71.0217 34.3686 69.4735 33.2818 68.6503C32.1949 67.8273 30.6466 68.0411 29.8236 69.1279Z" fill="#F29F5C"/>
<path d="M50.3896 40.9035L44.1387 37.3857C43.4719 37.0105 42.7068 36.8473 41.9449 36.9176L32.075 37.8305C30.8617 37.9427 29.7776 38.6349 29.1655 39.6885L22.209 51.6621C21.6953 52.5464 22.0985 53.6801 23.0551 54.0414L23.3397 54.1489C25.8896 55.112 28.7694 54.2924 30.4301 52.1311L33.0954 48.6624C33.0954 48.6624 39.5022 56.0805 46.5561 47.4175" fill="#F29F5C"/>
<path d="M63.4718 35.9922L66.7411 62.5502L59.0962 63.4913C57.6513 63.6691 56.3359 62.6422 56.1579 61.1972L53.5327 39.8714C53.3549 38.4265 54.3819 37.1111 55.8268 36.9332L63.4718 35.9922Z" fill="#5C9CEE"/>
<path d="M4.26155 35.9924L0.992188 62.5506L8.63716 63.4917C10.0821 63.6695 11.3975 62.6425 11.5754 61.1976L14.2006 39.8718C14.3784 38.4269 13.3514 37.1115 11.9065 36.9336L4.26155 35.9924Z" fill="#ED5575"/>
<path d="M33.8806 67.8595C33.073 67.2478 32.081 67.0456 31.1558 67.2181C31.0104 66.3414 30.5436 65.5662 29.8324 65.0275C29.0954 64.4694 28.1855 64.2318 27.2697 64.3581C27.0428 64.3895 26.8224 64.4424 26.6104 64.5153C26.4096 63.8267 25.9946 63.1943 25.3801 62.7289C24.3679 61.9623 23.0667 61.8396 21.9697 62.2908C21.7513 61.6334 21.3411 61.0571 20.777 60.6298C20.0401 60.0717 19.1297 59.8342 18.2142 59.9604C17.4717 60.0629 16.7978 60.395 16.2718 60.9098L12.6401 60.6683L14.866 42.5861L18.8546 42.8572C18.8773 42.8587 18.8998 42.8595 18.9221 42.8595C19.2923 42.8595 19.6342 42.6526 19.8048 42.3197L21.2995 39.403C21.6783 38.6647 22.5333 38.2894 23.3328 38.5107L28.2226 39.9923C28.7503 40.1379 29.2972 39.8285 29.4434 39.3004C29.5894 38.7723 29.2796 38.2256 28.7515 38.0796L23.8621 36.5982C22.1608 36.1272 20.3404 36.9257 19.5341 38.4975L18.3372 40.8329L15.109 40.6135L15.1855 39.9923C15.43 38.0067 14.0135 36.1926 12.0279 35.9481L4.38299 35.0075C3.83821 34.9408 3.34396 35.3272 3.27702 35.871C3.21008 36.4148 3.59677 36.91 4.1405 36.9769L11.7854 37.9181C12.2212 37.9716 12.61 38.1918 12.8802 38.5378C13.1503 38.8839 13.2696 39.3145 13.2159 39.7503L10.5907 61.0759C10.48 61.9754 9.6579 62.6166 8.75845 62.5065L1.1135 61.5654C0.568983 61.499 0.0744724 61.885 0.00753218 62.4289C-0.059408 62.9727 0.327284 63.4679 0.871008 63.5348L8.51595 64.476C8.66571 64.4944 8.81454 64.5034 8.96178 64.5034C10.3019 64.5034 11.5109 63.7588 12.1373 62.6239L14.8542 62.8045C14.5295 63.4331 14.405 64.1447 14.5037 64.86C14.6301 65.7756 15.1056 66.5874 15.8425 67.1454C16.4501 67.6056 17.1753 67.8479 17.9246 67.8479C18.084 67.8479 18.2445 67.8369 18.4052 67.8148C18.4156 67.8133 18.4256 67.8113 18.4358 67.8098C18.4371 67.8201 18.4379 67.8303 18.4392 67.8406C18.5657 68.7562 19.0412 69.5679 19.778 70.1259C20.4018 70.5982 21.1352 70.8264 21.8632 70.8264C22.0339 70.8264 22.2042 70.8125 22.3727 70.7877C22.487 71.6777 22.9436 72.5232 23.7138 73.1065C24.3375 73.5789 25.071 73.807 25.799 73.807C25.9691 73.807 26.1388 73.7932 26.3068 73.7685C26.3083 73.7795 26.3091 73.7906 26.3105 73.8016C26.437 74.7172 26.9125 75.5289 27.6495 76.0869C28.2571 76.547 28.9823 76.7894 29.7315 76.7894C29.891 76.7894 30.0515 76.7784 30.2121 76.7563C31.1279 76.6298 31.9395 76.1544 32.4975 75.4175L34.5499 72.7075C35.7021 71.1864 35.4018 69.0115 33.8806 67.8595ZM18.1339 65.8492C17.7435 65.9031 17.3551 65.8017 17.0408 65.5636C16.7264 65.3256 16.5236 64.9792 16.4697 64.5887C16.4157 64.198 16.5172 63.8099 16.7553 63.4954L17.5111 62.4974C17.7491 62.1831 18.0954 61.9803 18.4859 61.9263C18.8766 61.8727 19.2648 61.9738 19.5792 62.2119C19.8935 62.4499 20.0963 62.7963 20.1503 63.1868C20.2043 63.5773 20.1028 63.9655 19.8648 64.2799L19.1089 65.2779C18.8708 65.5923 18.5246 65.7952 18.1339 65.8492ZM20.9764 68.5441C20.662 68.3061 20.4592 67.9598 20.4052 67.5692C20.3513 67.1786 20.4527 66.7904 20.6909 66.476L21.4467 65.4781L22.1142 64.5965C22.4042 64.2136 22.8459 64.0122 23.2928 64.0122C23.6033 64.0122 23.9162 64.1095 24.1822 64.311C24.8311 64.8025 24.9593 65.7301 24.4678 66.3791L23.0445 68.2586C22.553 68.9075 21.6253 69.0356 20.9764 68.5441ZM24.9121 71.5247C24.5977 71.2867 24.3949 70.9403 24.341 70.5497C24.287 70.1593 24.3883 69.7711 24.6262 69.4569L26.0498 67.5769L26.5663 66.8949C26.8043 66.5806 27.1506 66.3778 27.5413 66.3238C27.9321 66.2701 28.3201 66.3713 28.6345 66.6095C29.2832 67.1007 29.4114 68.0279 28.9205 68.6768L26.9802 71.2389C26.4886 71.8875 25.5611 72.0161 24.9121 71.5247ZM32.9682 71.5096L30.9158 74.2196C30.6778 74.5339 30.3314 74.7367 29.9409 74.7907C29.55 74.8446 29.162 74.7432 28.8477 74.5052C28.5333 74.2672 28.3305 73.9209 28.2765 73.5304C28.2226 73.1397 28.324 72.7516 28.5622 72.4371L30.5021 69.8756L30.6147 69.7271C30.8527 69.4127 31.199 69.2099 31.5897 69.156C31.9804 69.1024 32.3685 69.2035 32.683 69.4416C33.3315 69.9328 33.4596 70.8607 32.9682 71.5096Z" fill="#404040"/>
<path d="M67.7269 62.4288C67.66 61.8851 67.1653 61.499 66.6209 61.5654L58.9761 62.5065C58.0753 62.6172 57.2546 61.9753 57.1439 61.0759L57.0656 60.4394L57.0474 60.292L54.5188 39.7503C54.4651 39.3145 54.5844 38.884 54.8545 38.5378C55.1247 38.1917 55.5135 37.9716 55.9493 37.918L63.5942 36.9769C64.1381 36.9099 64.5246 36.4148 64.4577 35.8709C64.3907 35.3272 63.8961 34.941 63.3517 35.0074L55.7068 35.9486C53.8384 36.1786 52.4745 37.7985 52.5235 39.6434L50.5956 39.8807L44.6258 36.5211C43.7804 36.0449 42.8221 35.8403 41.8544 35.9292L41.8484 35.93L40.0515 36.0962C39.5058 36.1466 39.1044 36.6299 39.155 37.1756C39.2054 37.7212 39.6878 38.1219 40.2343 38.0721L42.0363 37.9054C42.6001 37.8533 43.1589 37.9726 43.6521 38.2502L49.8417 41.7335C50.0354 41.8613 50.2711 41.9197 50.5095 41.8905L52.7487 41.6149L54.3911 54.9557L54.9591 59.5693L51.3875 59.5722C51.1494 59.5724 50.9195 59.6582 50.7397 59.8137L50.4633 60.0288L41.4968 52.3008C43.5459 51.7117 45.4992 50.2867 47.3255 48.044C47.6714 47.619 47.6075 46.9941 47.1826 46.648C46.7577 46.3021 46.1326 46.366 45.7867 46.7909C43.7454 49.2978 41.5991 50.5882 39.4072 50.6261C36.2141 50.6861 33.8679 48.0384 33.8463 48.0137C33.6512 47.788 33.3652 47.6631 33.067 47.6704C32.7688 47.6788 32.4903 47.8212 32.3085 48.0576L29.6432 51.5263C28.2389 53.3541 25.8467 54.0351 23.6902 53.2205L23.4056 53.1129C23.1557 53.0184 23.0539 52.8232 23.0155 52.7151C22.9771 52.607 22.9327 52.3912 23.0668 52.1603L30.0233 40.1868C30.4732 39.4124 31.2744 38.9008 32.1663 38.8183L41.1328 37.989C41.6785 37.9385 42.0799 37.4552 42.0293 36.9097C41.9788 36.3641 41.4955 35.9628 40.95 36.0131L31.9835 36.8423C30.4535 36.9839 29.0793 37.8615 28.3073 39.19L21.3508 51.1634C20.9593 51.8376 20.8844 52.6455 21.1457 53.3801C21.4069 54.1148 21.9751 54.6939 22.7043 54.9694L22.9889 55.0769C23.8282 55.3939 24.693 55.547 25.5462 55.547C27.7229 55.5468 29.8224 54.5501 31.2167 52.7355L33.2052 50.1476C34.2708 51.0659 36.2588 52.4262 38.7964 52.5933L51.7539 63.7609C51.9868 63.9616 52.1277 64.241 52.1505 64.5476C52.1732 64.8543 52.0753 65.1516 51.8749 65.3843L51.3699 65.9699C50.7356 66.7047 49.6205 66.7863 48.8844 66.1522C48.8433 66.1168 48.7995 66.0863 48.7547 66.0588L45.391 63.1584C44.9762 62.8007 44.3496 62.847 43.9916 63.262C43.6337 63.677 43.6802 64.3036 44.0952 64.6614L46.8286 67.0183L45.5817 68.4654C45.1986 68.9097 44.6221 69.1342 44.0401 69.0658C43.6918 69.0248 43.3657 68.8808 43.0971 68.6491C43.0924 68.645 43.0872 68.6416 43.0825 68.6376L39.957 65.9428C39.542 65.5851 38.9156 65.6314 38.5576 66.0464C38.1998 66.4614 38.2462 67.0879 38.6612 67.4458L41.0496 69.5052L39.7954 70.9619C39.4121 71.4064 36.3323 71.0154 35.7503 70.9468C35.2059 70.8825 34.7129 71.2723 34.649 71.8164C34.5851 72.3606 34.9744 72.8537 35.5186 72.9176C35.6656 72.9348 38.3141 73.5589 38.4601 73.5589C39.5436 73.5589 40.5807 73.0897 41.2988 72.2571L42.6397 70.6999C43.006 70.8745 43.3998 70.9887 43.8083 71.0367C45.0466 71.1823 46.2707 70.7054 47.0848 69.761L48.428 68.2022C49.9134 68.9068 51.748 68.5688 52.8725 67.2661L53.3782 66.6797C53.9248 66.0451 54.1916 65.2356 54.1296 64.4004C54.0675 63.5651 53.6837 62.804 53.0495 62.2578L52.2351 61.556L55.2119 61.5535C55.5372 63.268 57.046 64.5035 58.7725 64.5035C58.9196 64.5035 59.0687 64.4945 59.2184 64.4761L66.8633 63.5349C67.4072 63.4679 67.7938 62.9728 67.7269 62.4288Z" fill="#404040"/>
</svg>
