<svg width="30" height="20" viewBox="0 0 30 20" fill="none" xmlns="http://www.w3.org/2000/svg">
<path fill-rule="evenodd" clip-rule="evenodd" d="M23.7031 0.864919C23.3298 0.323384 22.7141 0 22.0564 0H0V20H22.0564C22.7141 20 23.3298 19.6766 23.7031 19.1351L29.2176 11.1351C29.6887 10.4517 29.6887 9.54832 29.2176 8.86492L23.7031 0.864919Z" fill="#FFAB00"/>
<path d="M20.6494 8.16167C20.585 7.96346 20.4137 7.81899 20.2075 7.78902L16.8941 7.30756L15.4124 4.30519C15.3201 4.1183 15.1298 4 14.9214 4C14.713 4 14.5226 4.1183 14.4304 4.30523L12.9486 7.3076L9.63531 7.78906C9.42907 7.81903 9.2577 7.9635 9.19331 8.16171C9.12892 8.35991 9.18265 8.5775 9.33187 8.72296L11.7294 11.06L11.1634 14.3599C11.1282 14.5653 11.2126 14.7729 11.3812 14.8954C11.5499 15.0179 11.7734 15.0341 11.9579 14.9371L14.9214 13.3791L17.8849 14.9371C18.0708 15.0348 18.2942 15.017 18.4615 14.8954C18.6301 14.7729 18.7146 14.5653 18.6794 14.3599L18.1134 11.06L20.5109 8.72296C20.6601 8.57747 20.7138 8.35988 20.6494 8.16167Z" fill="url(#paint0_linear)"/>
<defs>
<linearGradient id="paint0_linear" x1="14.9214" y1="15" x2="14.9214" y2="4" gradientUnits="userSpaceOnUse">
<stop stop-color="#FFE59A"/>
<stop offset="1" stop-color="#FFFFD5"/>
</linearGradient>
</defs>
</svg>
