<?xml version="1.0" encoding="UTF-8"?>
<svg width="22px" height="24px" viewBox="0 0 22 24" version="1.1" xmlns="http://www.w3.org/2000/svg" xmlns:xlink="http://www.w3.org/1999/xlink">
    <!-- Generator: Sketch 59.1 (86144) - https://sketch.com -->
    <title>Bottom Nav / Inactive / Jobs</title>
    <desc>Created with Sketch.</desc>
    <g id="Page-1" stroke="none" stroke-width="1" fill="none" fill-rule="evenodd">
        <g id="Bottom-Nav-/-Active-/-Applies-Copy" transform="translate(-1.000000, 0.000000)">
            <g id="Group-4" transform="translate(1.000000, 0.000000)">
                <path d="M16.7889489,0.350877193 L5.22069362,0.350877193 C4.6997617,0.350877193 4.27745532,0.772959064 4.27745532,1.29361404 L4.27745532,22.6596491 C4.27745532,23.1803041 4.6997617,23.602386 5.22069362,23.602386 L20.6739149,23.602386 C21.1948468,23.602386 21.6171532,23.1803041 21.6171532,22.6596491 L21.6171532,5.17651462 L16.7889489,0.350877193 Z" id="Path" fill="#FFFFFF" fill-rule="nonzero"></path>
                <path d="M17.7705702,1.33197661 L17.7705702,6.43054971 C17.7705702,6.69936842 17.9886043,6.91728655 18.257566,6.91728655 L19.1027872,6.91728655 L19.1027872,22.6595556 C19.1027872,23.1802105 18.6804809,23.6022924 18.1595489,23.6022924 L20.6739149,23.6022924 C21.1948468,23.6022924 21.6171532,23.1802105 21.6171532,22.6595556 L21.6171532,5.17651462 L17.7705702,1.33197661 Z" id="Path" fill="#D3DFE2" fill-rule="nonzero"></path>
                <path d="M16.7889489,4.68973099 L16.7889489,0.350877193 L21.6171064,5.17651462 L17.2759447,5.17651462 C17.006983,5.17651462 16.7889489,4.95859649 16.7889489,4.68973099 Z" id="Path" fill="#426175" fill-rule="nonzero"></path>
                <path d="M15.3160255,23.6023392 L1.22919149,23.6023392 C0.744208511,23.6023392 0.35106383,23.2094035 0.35106383,22.7246784 L0.35106383,13.9469006 C0.35106383,13.4621754 0.744208511,13.0692398 1.22919149,13.0692398 L15.3160723,13.0692398 C15.8010553,13.0692398 16.1942,13.4621754 16.1942,13.9469006 L16.1942,22.7246784 C16.1942,23.2094035 15.8010085,23.6023392 15.3160255,23.6023392 Z" id="Path" fill="#3891E4"></path>
                <path d="M12.1882069,4.81871345 L15.2097505,4.81871345 C15.3060297,4.81871345 15.3840851,4.66161404 15.3840851,4.46783626 C15.3840851,4.27405848 15.3060297,4.11695906 15.2097505,4.11695906 L12.1882069,4.11695906 C12.0919277,4.11695906 12.0138723,4.27405848 12.0138723,4.46783626 C12.0138723,4.66161404 12.0919277,4.81871345 12.1882069,4.81871345 Z" id="Path" fill="#263838" fill-rule="nonzero"></path>
                <path d="M12.1882069,7.07822222 L15.2097505,7.07822222 C15.3060297,7.07822222 15.3840851,6.92112281 15.3840851,6.72734503 C15.3840851,6.53356725 15.3060297,6.37646784 15.2097505,6.37646784 L12.1882069,6.37646784 C12.0919277,6.37646784 12.0138723,6.53356725 12.0138723,6.72734503 C12.0138723,6.92112281 12.0919277,7.07822222 12.1882069,7.07822222 Z" id="Path" fill="#263838" fill-rule="nonzero"></path>
                <path d="M7.1651897,9.59064327 L14.8029805,9.59064327 C15.0463529,9.59064327 15.2436596,9.43354386 15.2436596,9.23976608 C15.2436596,9.0459883 15.0463529,8.88888889 14.8029805,8.88888889 L7.1651897,8.88888889 C6.92181735,8.88888889 6.72451064,9.0459883 6.72451064,9.23976608 C6.72451064,9.43354386 6.92181735,9.59064327 7.1651897,9.59064327 Z" id="Path-Copy-2" fill="#263838" fill-rule="nonzero"></path>
                <path d="M15.3160255,12.7183158 L1.22919149,12.7183158 C0.551404255,12.7183158 0,13.2694269 0,13.9468538 L0,22.7246784 C0,23.4021053 0.551404255,23.9532164 1.22919149,23.9532164 L15.3160255,23.9532164 C15.9938128,23.9532164 16.545217,23.4021053 16.545217,22.7246784 L16.545217,13.9469006 C16.545217,13.2694737 15.9938128,12.7183158 15.3160255,12.7183158 Z M0.70212766,22.7246784 L0.70212766,13.9469006 C0.70212766,13.9314152 0.702829787,13.916117 0.704140426,13.9010058 L6.65247234,18.674386 L0.708025532,22.8036023 C0.704140426,22.7778246 0.70212766,22.7514854 0.70212766,22.7246784 Z M7.22330213,19.1324444 L7.59491489,19.4306433 C7.79502128,19.5912515 8.03472766,19.6714854 8.27457447,19.6714854 C8.51432766,19.6714854 8.75417447,19.5912047 8.95423404,19.4306433 L9.32584681,19.1324444 L15.2557362,23.251462 L1.29355319,23.251462 L7.22330213,19.1324444 Z M9.89662979,18.674386 L15.8413574,13.9038129 C15.8425277,13.9180351 15.8431362,13.9323977 15.8431362,13.9469006 L15.8431362,22.7246784 C15.8431362,22.7505965 15.841217,22.7760936 15.837566,22.8010292 L9.89662979,18.674386 Z M15.3160255,13.4200702 C15.3181787,13.4200702 15.3203319,13.4200702 15.3225319,13.4201637 L8.5145617,18.883462 C8.3732,18.9969123 8.17580851,18.9968655 8.03449362,18.883462 L1.22638298,13.4200702 C1.22731915,13.4200702 1.22825532,13.4200702 1.22919149,13.4200702 L15.3160255,13.4200702 L15.3160255,13.4200702 Z" id="Shape" fill="#0D579C" fill-rule="nonzero"></path>
                <path d="M21.8653319,4.92837427 L17.0371745,0.102783626 C16.9713617,0.0369590643 16.8820511,0 16.7889489,0 L5.22069362,0 C4.50700426,0 3.92639149,0.580304094 3.92639149,1.29361404 L3.92639149,11.6658246 C3.92639149,11.8596023 4.08357447,12.0167018 4.27745532,12.0167018 C4.47133617,12.0167018 4.62851915,11.8596023 4.62851915,11.6658246 L4.62851915,1.29361404 C4.62851915,0.967251462 4.89415745,0.701754386 5.22069362,0.701754386 L16.4378851,0.701754386 L16.4378851,4.68977778 C16.4378851,5.15162573 16.8138511,5.52739181 17.2759447,5.52739181 L21.2660894,5.52739181 L21.2660894,22.6596491 C21.2660894,22.9860117 21.0004511,23.2515088 20.6739617,23.2515088 L17.2247362,23.2515088 C17.0308553,23.2515088 16.8736723,23.4086082 16.8736723,23.602386 C16.8736723,23.7961637 17.0308553,23.9532632 17.2247362,23.9532632 L20.6739617,23.9532632 C21.3876511,23.9532632 21.968217,23.3729591 21.968217,22.6596491 L21.968217,5.17646784 C21.968217,5.0834152 21.9311915,4.99415205 21.8653319,4.92837427 Z M17.1400128,4.68977778 L17.1400128,1.19794152 L20.7695915,4.82559064 L17.2759447,4.82559064 C17.2009574,4.82559064 17.1400128,4.76467836 17.1400128,4.68977778 Z" id="Shape" fill="#263838" fill-rule="nonzero"></path>
                <rect id="Rectangle-Copy-3" stroke="#263838" stroke-width="0.707037643" x="6.70356137" y="4.00264163" width="3.22487725" height="3.22278692" rx="0.895581015"></rect>
            </g>
        </g>
    </g>
</svg>