<svg xmlns="http://www.w3.org/2000/svg" width="60" height="60" fill="none"><circle cx="30" cy="30" r="30" fill="#AAD0FB"/><path fill="#BECBE2" d="M25.492 9.766L12.57 22.387l3.356 3.356L28.948 12.72l-3.456-2.955z"/><path fill="#7E7474" d="M42.872 14.274L17.379 39.917 29 51.286 54.04 25.292 42.87 14.274z"/><path fill="#FED366" d="M35.209 27.496l-4.658 4.708 3.706 3.406 4.057-4.207-3.105-3.907z"/><path fill="#9E9696" d="M17.278 39.566l-7.212-7.212L35.008 6.711l7.613 7.212c-5.81 11.62-19.316 21.937-25.343 25.643z"/><path fill="#BECBE2" d="M29.2 33.005l-2.354-2.354 6.66-6.912 2.705 2.254-7.011 7.012z"/><path fill="#263838" fill-rule="evenodd" d="M54.105 24.092l-7.045-7.045-4.994-4.994-.001-.001h-.001l-5.153-5.154a2.673 2.673 0 00-1.903-.788c-.718 0-1.394.28-1.902.788l-4.578 4.578-1.852-1.852c-.81-.81-2.13-.81-2.94 0l-1.038 1.038-10.269 10.269c-.81.81-.81 2.129 0 2.94l1.852 1.852L9.703 30.3a2.672 2.672 0 00-.788 1.902c0 .718.28 1.394.788 1.902l3.51 3.51-5.293 5.291a1.002 1.002 0 001.416 1.417l5.293-5.292.228.228 2.735 2.735L3.9 55.685a1.002 1.002 0 001.417 1.417L19.009 43.41l2.98 2.982-6.323 6.323a1.002 1.002 0 001.417 1.417l6.323-6.324 3.491 3.49a2.673 2.673 0 001.902.789c.72 0 1.395-.28 1.903-.788l15.367-15.367a1.002 1.002 0 00-1.417-1.417L29.285 49.882a.682.682 0 01-.486.202.683.683 0 01-.485-.202l-4.2-4.198v-.001l-5.448-5.448a3.833 3.833 0 001.281-.65l7.82-6.043.57.57a1.002 1.002 0 001.417 0l.486-.485 1.023 1.023a4.365 4.365 0 003.096 1.28 4.365 4.365 0 003.096-1.28 4.35 4.35 0 001.283-3.096 4.35 4.35 0 00-1.283-3.096l-1.023-1.024.486-.485a1.002 1.002 0 000-1.417l-.57-.57 6.042-7.82c.303-.392.519-.828.65-1.282l2.603 2.604 7.045 7.044c.13.13.2.303.2.486a.682.682 0 01-.2.486l-2.37 2.37a1.002 1.002 0 001.417 1.416l2.37-2.37a2.673 2.673 0 00.787-1.902c0-.718-.28-1.394-.788-1.902zm-40.259-1.638a.075.075 0 010-.106l10.269-10.269 1.038-1.038a.071.071 0 01.053-.022c.032 0 .048.016.054.022l1.852 1.852-11.414 11.413-1.852-1.852zm19.976 2.815l-5.748 5.748.972.971.485-.485 4.776-4.777h.001l.485-.485-.971-.972zm2.217 4.605a2.36 2.36 0 01.695 1.68 2.36 2.36 0 01-.695 1.68 2.378 2.378 0 01-3.36 0l-1.023-1.023 3.36-3.36 1.023 1.023zm-1.12-6.34l5.886-7.617c.57-.737.502-1.79-.156-2.448l-5.155-5.155a.682.682 0 00-.486-.2.682.682 0 00-.485.2L11.12 31.717a.683.683 0 000 .971l5.154 5.154a1.86 1.86 0 002.449.157l7.616-5.885-.39-.39a1.002 1.002 0 010-1.416l7.165-7.164a1.002 1.002 0 011.416 0l.39.39z" clip-rule="evenodd"/><path fill="#263838" d="M13.403 55.392a1.01 1.01 0 00-.708.294 1.01 1.01 0 00-.293.708c0 .263.107.522.293.708.187.186.445.293.708.293.264 0 .522-.107.709-.293a1.01 1.01 0 00.293-.708 1.01 1.01 0 00-.293-.708 1.01 1.01 0 00-.709-.294zM48.187 31.383a1.01 1.01 0 00-.709.294 1.01 1.01 0 00-.293.708c0 .263.107.522.293.708.187.186.445.294.709.294a1.005 1.005 0 00.708-1.71 1.007 1.007 0 00-.708-.294z"/></svg>