<svg width="92" height="24" viewBox="0 0 92 24" fill="none" xmlns="http://www.w3.org/2000/svg">
<path fill-rule="evenodd" clip-rule="evenodd" d="M84.2333 0.856415C83.8593 0.31982 83.2465 0 82.5925 0H2C0.895432 0 0 0.895431 0 2V22C0 23.1046 0.895432 24 2 24H82.5925C83.2465 24 83.8593 23.6802 84.2333 23.1436L91.203 13.1436C91.6819 12.4564 91.6819 11.5436 91.203 10.8564L84.2333 0.856415Z" fill="#FFAB00"/>
<path d="M24.7644 16V9.664H22.6164V8.176H28.6884V9.664H26.5404V16H24.7644ZM31.4063 16.144C31.0303 16.144 30.6663 16.076 30.3143 15.94C29.9623 15.796 29.6503 15.592 29.3783 15.328C29.1143 15.064 28.9023 14.74 28.7423 14.356C28.5823 13.964 28.5023 13.52 28.5023 13.024C28.5023 12.528 28.5823 12.088 28.7423 11.704C28.9023 11.312 29.1143 10.984 29.3783 10.72C29.6503 10.456 29.9623 10.256 30.3143 10.12C30.6663 9.976 31.0303 9.904 31.4063 9.904C31.7823 9.904 32.1423 9.976 32.4863 10.12C32.8383 10.256 33.1463 10.456 33.4103 10.72C33.6823 10.984 33.8983 11.312 34.0583 11.704C34.2183 12.088 34.2983 12.528 34.2983 13.024C34.2983 13.52 34.2183 13.964 34.0583 14.356C33.8983 14.74 33.6823 15.064 33.4103 15.328C33.1463 15.592 32.8383 15.796 32.4863 15.94C32.1423 16.076 31.7823 16.144 31.4063 16.144ZM31.4063 14.716C31.7663 14.716 32.0383 14.564 32.2223 14.26C32.4063 13.956 32.4983 13.544 32.4983 13.024C32.4983 12.504 32.4063 12.092 32.2223 11.788C32.0383 11.484 31.7663 11.332 31.4063 11.332C31.0383 11.332 30.7623 11.484 30.5783 11.788C30.4023 12.092 30.3143 12.504 30.3143 13.024C30.3143 13.544 30.4023 13.956 30.5783 14.26C30.7623 14.564 31.0383 14.716 31.4063 14.716ZM35.5066 18.208V10.048H36.9466L37.0666 10.636H37.1146C37.3466 10.428 37.6066 10.256 37.8946 10.12C38.1906 9.976 38.4946 9.904 38.8066 9.904C39.1666 9.904 39.4906 9.976 39.7786 10.12C40.0666 10.264 40.3106 10.468 40.5106 10.732C40.7106 10.996 40.8626 11.316 40.9666 11.692C41.0786 12.06 41.1346 12.472 41.1346 12.928C41.1346 13.44 41.0626 13.896 40.9186 14.296C40.7826 14.688 40.5946 15.024 40.3546 15.304C40.1226 15.576 39.8546 15.784 39.5506 15.928C39.2546 16.072 38.9466 16.144 38.6266 16.144C38.3706 16.144 38.1226 16.092 37.8826 15.988C37.6426 15.876 37.4186 15.72 37.2106 15.52L37.2706 16.468V18.208H35.5066ZM38.2186 14.704C38.5226 14.704 38.7826 14.568 38.9986 14.296C39.2146 14.016 39.3226 13.568 39.3226 12.952C39.3226 11.88 38.9786 11.344 38.2906 11.344C37.9466 11.344 37.6066 11.524 37.2706 11.884V14.32C37.4306 14.464 37.5906 14.564 37.7506 14.62C37.9106 14.676 38.0666 14.704 38.2186 14.704ZM44.9318 16V8.176H46.8638L48.1238 11.656C48.2038 11.888 48.2798 12.128 48.3518 12.376C48.4238 12.616 48.4998 12.856 48.5798 13.096H48.6278C48.7078 12.856 48.7798 12.616 48.8438 12.376C48.9158 12.128 48.9918 11.888 49.0718 11.656L50.3078 8.176H52.2278V16H50.6198V13.132C50.6198 12.94 50.6278 12.728 50.6438 12.496C50.6598 12.264 50.6798 12.032 50.7038 11.8C50.7278 11.56 50.7518 11.328 50.7758 11.104C50.7998 10.872 50.8238 10.66 50.8478 10.468H50.7998L50.1638 12.328L49.0478 15.316H48.0758L46.9598 12.328L46.3358 10.468H46.2878C46.3118 10.66 46.3358 10.872 46.3598 11.104C46.3838 11.328 46.4078 11.56 46.4318 11.8C46.4558 12.032 46.4758 12.264 46.4918 12.496C46.5078 12.728 46.5158 12.94 46.5158 13.132V16H44.9318ZM55.4284 16.144C55.1564 16.144 54.9084 16.096 54.6844 16C54.4684 15.912 54.2844 15.788 54.1324 15.628C53.9804 15.46 53.8604 15.268 53.7724 15.052C53.6924 14.836 53.6524 14.6 53.6524 14.344C53.6524 13.72 53.9164 13.232 54.4444 12.88C54.9724 12.528 55.8244 12.292 57.0004 12.172C56.9844 11.908 56.9044 11.7 56.7604 11.548C56.6244 11.388 56.3924 11.308 56.0644 11.308C55.8084 11.308 55.5524 11.356 55.2964 11.452C55.0484 11.548 54.7804 11.68 54.4924 11.848L53.8564 10.684C54.2404 10.452 54.6404 10.264 55.0564 10.12C55.4804 9.976 55.9284 9.904 56.4004 9.904C57.1684 9.904 57.7524 10.124 58.1524 10.564C58.5604 10.996 58.7644 11.672 58.7644 12.592V16H57.3244L57.2044 15.388H57.1564C56.9004 15.612 56.6324 15.796 56.3524 15.94C56.0724 16.076 55.7644 16.144 55.4284 16.144ZM56.0284 14.776C56.2284 14.776 56.4004 14.732 56.5444 14.644C56.6884 14.556 56.8404 14.432 57.0004 14.272V13.228C56.3764 13.316 55.9444 13.444 55.7044 13.612C55.4644 13.78 55.3444 13.98 55.3444 14.212C55.3444 14.404 55.4044 14.548 55.5244 14.644C55.6524 14.732 55.8204 14.776 56.0284 14.776ZM62.3376 16.144C61.9696 16.144 61.6536 16.088 61.3896 15.976C61.1336 15.864 60.9216 15.708 60.7536 15.508C60.5936 15.308 60.4736 15.068 60.3936 14.788C60.3216 14.5 60.2856 14.184 60.2856 13.84V11.428H59.4696V10.12L60.3816 10.048L60.5856 8.464H62.0496V10.048H63.4776V11.428H62.0496V13.816C62.0496 14.152 62.1176 14.396 62.2536 14.548C62.3976 14.692 62.5856 14.764 62.8176 14.764C62.9136 14.764 63.0096 14.752 63.1056 14.728C63.2096 14.704 63.3016 14.676 63.3816 14.644L63.6576 15.928C63.4976 15.976 63.3096 16.024 63.0936 16.072C62.8776 16.12 62.6256 16.144 62.3376 16.144ZM67.0204 16.144C66.6044 16.144 66.2164 16.076 65.8564 15.94C65.5044 15.796 65.1964 15.592 64.9324 15.328C64.6684 15.064 64.4604 14.74 64.3084 14.356C64.1564 13.964 64.0804 13.52 64.0804 13.024C64.0804 12.528 64.1644 12.088 64.3324 11.704C64.5004 11.312 64.7244 10.984 65.0044 10.72C65.2924 10.456 65.6244 10.256 66.0004 10.12C66.3764 9.976 66.7684 9.904 67.1764 9.904C67.5444 9.904 67.8684 9.964 68.1484 10.084C68.4364 10.204 68.6924 10.356 68.9164 10.54L68.0884 11.68C67.8084 11.448 67.5404 11.332 67.2844 11.332C66.8524 11.332 66.5124 11.484 66.2644 11.788C66.0164 12.092 65.8924 12.504 65.8924 13.024C65.8924 13.544 66.0164 13.956 66.2644 14.26C66.5204 14.564 66.8404 14.716 67.2244 14.716C67.4164 14.716 67.6004 14.676 67.7764 14.596C67.9604 14.508 68.1324 14.404 68.2924 14.284L68.9884 15.436C68.6924 15.692 68.3724 15.876 68.0284 15.988C67.6844 16.092 67.3484 16.144 67.0204 16.144ZM70.03 16V7.588H71.794V9.652L71.71 10.72C71.934 10.52 72.194 10.336 72.49 10.168C72.786 9.992 73.138 9.904 73.546 9.904C74.194 9.904 74.662 10.116 74.95 10.54C75.246 10.964 75.394 11.552 75.394 12.304V16H73.63V12.532C73.63 12.1 73.57 11.804 73.45 11.644C73.338 11.484 73.154 11.404 72.898 11.404C72.674 11.404 72.482 11.456 72.322 11.56C72.162 11.656 71.986 11.796 71.794 11.98V16H70.03Z" fill="white"/>
<path d="M18.2884 10.4536C18.2195 10.2415 18.0361 10.0869 17.8154 10.0548L14.2697 9.53957L12.684 6.3266C12.5853 6.1266 12.3816 6 12.1586 6C11.9356 6 11.7318 6.1266 11.6331 6.32664L10.0474 9.53961L6.50169 10.0548C6.28099 10.0869 6.09759 10.2415 6.02868 10.4536C5.95978 10.6657 6.01728 10.8986 6.17696 11.0543L8.74271 13.5552L8.137 17.0866C8.09931 17.3064 8.18966 17.5286 8.37009 17.6597C8.55056 17.7908 8.78974 17.8081 8.98716 17.7043L12.1586 16.037L15.33 17.7043C15.5289 17.8088 15.7679 17.7898 15.947 17.6597C16.1275 17.5286 16.2179 17.3064 16.1802 17.0866L15.5745 13.5552L18.1402 11.0543C18.2999 10.8986 18.3573 10.6657 18.2884 10.4536Z" fill="url(#paint0_linear)"/>
<defs>
<linearGradient id="paint0_linear" x1="12.1586" y1="17.7716" x2="12.1586" y2="6" gradientUnits="userSpaceOnUse">
<stop stop-color="#FFE59A"/>
<stop offset="1" stop-color="#FFFFD5"/>
</linearGradient>
</defs>
</svg>
