<svg width="133" height="43" viewBox="0 0 133 43" fill="none" xmlns="http://www.w3.org/2000/svg">
<rect x="0.654785" y="0.413086" width="132.242" height="42.5864" rx="6.72416" fill="url(#paint0_linear_629_475)"/>
<g filter="url(#filter0_d_629_475)">
<path d="M13.231 29.0365V27.1127C13.231 26.8286 13.4609 26.5981 13.7444 26.5981H29.1549C29.4384 26.5981 29.6684 26.8286 29.6684 27.1127V29.0365C29.6684 29.3206 29.4384 29.551 29.1549 29.551H13.7444C13.4609 29.551 13.231 29.3206 13.231 29.0365ZM27.2721 15.7433C27.2721 14.7035 28.1154 13.8613 29.155 13.8613C30.1946 13.8613 31.0379 14.7034 31.0379 15.7433C31.0379 16.6055 30.4587 17.3316 29.6684 17.5551V24.6872C29.6684 24.9715 29.4387 25.2019 29.155 25.2019H13.7444C13.4608 25.2019 13.2308 24.9715 13.2308 24.6872V17.5551C12.4408 17.3315 11.8616 16.6055 11.8616 15.7433C11.8616 14.7035 12.7049 13.8613 13.7445 13.8613C14.7838 13.8613 15.6276 14.7034 15.6276 15.7433C15.6276 16.464 15.2207 17.0906 14.6211 17.405L17.5964 22.0254L20.573 17.405C19.9735 17.0904 19.5667 16.464 19.5667 15.7433C19.5667 14.7035 20.4101 13.8613 21.4498 13.8613C22.4894 13.8613 23.3327 14.7034 23.3327 15.7433C23.3327 16.464 22.9259 17.0906 22.3263 17.4052L25.3015 22.0254L28.2781 17.405C27.6787 17.0904 27.2721 16.464 27.2721 15.7433H27.2721Z" fill="white"/>
</g>
<g filter="url(#filter1_d_629_475)">
<path d="M43.4378 29.621C42.362 29.621 41.4676 29.4193 40.7549 29.0158C40.0421 28.6124 39.4437 27.987 38.9595 27.1398L41.2995 25.3848C41.5282 25.8151 41.7904 26.1311 42.0863 26.3329C42.3821 26.5346 42.6713 26.6354 42.9537 26.6354C43.1823 26.6354 43.384 26.6086 43.5589 26.5548C43.7471 26.4875 43.9018 26.3732 44.0228 26.2118C44.1439 26.0504 44.238 25.8353 44.3052 25.5663C44.3725 25.2973 44.4061 24.9544 44.4061 24.5375V16.2668H47.8758V24.8199C47.8758 25.4789 47.7816 26.0975 47.5934 26.6758C47.4185 27.2541 47.1496 27.7651 46.7865 28.2089C46.4234 28.6392 45.9594 28.9822 45.3946 29.2377C44.8432 29.4932 44.1909 29.621 43.4378 29.621ZM54.8863 29.621C54.2408 29.621 53.6155 29.5067 53.0103 29.278C52.4051 29.036 51.8672 28.693 51.3965 28.2492C50.9393 27.792 50.5694 27.2339 50.287 26.5749C50.018 25.916 49.8836 25.1696 49.8836 24.3358C49.8836 23.502 50.018 22.7556 50.287 22.0966C50.5694 21.4377 50.9393 20.8863 51.3965 20.4425C51.8672 19.9853 52.4051 19.6423 53.0103 19.4137C53.6155 19.1716 54.2408 19.0506 54.8863 19.0506C55.5319 19.0506 56.1505 19.1716 56.7422 19.4137C57.3474 19.6423 57.8786 19.9853 58.3358 20.4425C58.8065 20.8863 59.1831 21.4377 59.4655 22.0966C59.7479 22.7556 59.8891 23.502 59.8891 24.3358C59.8891 25.1696 59.7479 25.916 59.4655 26.5749C59.1831 27.2339 58.8065 27.792 58.3358 28.2492C57.8786 28.693 57.3474 29.036 56.7422 29.278C56.1505 29.5067 55.5319 29.621 54.8863 29.621ZM54.8863 26.8372C55.4108 26.8372 55.7807 26.6153 55.9958 26.1715C56.2244 25.7142 56.3388 25.1023 56.3388 24.3358C56.3388 23.5692 56.2244 22.9641 55.9958 22.5203C55.7807 22.063 55.4108 21.8344 54.8863 21.8344C54.3619 21.8344 53.9853 22.063 53.7567 22.5203C53.5415 22.9641 53.4339 23.5692 53.4339 24.3358C53.4339 25.1023 53.5415 25.7142 53.7567 26.1715C53.9853 26.6153 54.3619 26.8372 54.8863 26.8372ZM67.3039 29.621C66.8601 29.621 66.4231 29.5134 65.9927 29.2982C65.5624 29.0696 65.1522 28.7334 64.7622 28.2896H64.6815L64.3991 29.3789H61.696V15.3389H65.1656V18.6068L65.0849 20.0592C65.4346 19.7365 65.8246 19.4877 66.255 19.3128C66.6853 19.138 67.1224 19.0506 67.5662 19.0506C68.1579 19.0506 68.6958 19.1716 69.18 19.4137C69.6641 19.6558 70.0743 19.9987 70.4105 20.4425C70.7601 20.8863 71.0291 21.4242 71.2174 22.0563C71.4057 22.6884 71.4998 23.3877 71.4998 24.1542C71.4998 25.0284 71.3788 25.8084 71.1367 26.4942C70.9081 27.1667 70.5988 27.7382 70.2088 28.2089C69.8188 28.6661 69.3682 29.0158 68.8572 29.2579C68.3596 29.4999 67.8419 29.621 67.3039 29.621ZM66.4567 26.7968C66.8601 26.7968 67.2098 26.6086 67.5056 26.232C67.8015 25.8554 67.9494 25.183 67.9494 24.2148C67.9494 23.381 67.8284 22.7825 67.5863 22.4194C67.3577 22.0563 67.0081 21.8747 66.5374 21.8747C66.2684 21.8747 66.0263 21.9285 65.8112 22.0361C65.6094 22.1437 65.3943 22.332 65.1656 22.601V26.3127C65.3674 26.501 65.5758 26.6287 65.791 26.696C66.0062 26.7632 66.2281 26.7968 66.4567 26.7968ZM77.7184 29.3789V16.2668H81.1881V21.1485H85.1016V16.2668H88.5712V29.3789H85.1016V24.1744H81.1881V29.3789H77.7184ZM95.8664 29.621C95.1268 29.621 94.4409 29.5067 93.8088 29.278C93.1768 29.036 92.6254 28.693 92.1547 28.2492C91.6974 27.792 91.3343 27.2339 91.0654 26.5749C90.7964 25.916 90.6619 25.1696 90.6619 24.3358C90.6619 23.5154 90.7964 22.7825 91.0654 22.137C91.3478 21.478 91.7109 20.9199 92.1547 20.4627C92.6119 20.0054 93.1297 19.6558 93.708 19.4137C94.2862 19.1716 94.8847 19.0506 95.5033 19.0506C96.243 19.0506 96.8885 19.1784 97.4399 19.4339C97.9913 19.6894 98.4485 20.039 98.8116 20.4828C99.1747 20.9266 99.4437 21.4444 99.6185 22.0361C99.8068 22.6278 99.9009 23.2599 99.9009 23.9323C99.9009 24.2416 99.8807 24.5308 99.8404 24.7998C99.8135 25.0687 99.7866 25.2637 99.7597 25.3848H94.0106C94.1719 25.9899 94.4611 26.4136 94.878 26.6556C95.2949 26.8842 95.7857 26.9986 96.3506 26.9986C96.7002 26.9986 97.0364 26.9515 97.3592 26.8573C97.6954 26.7498 98.045 26.5951 98.4082 26.3934L99.5378 28.451C98.9864 28.841 98.3745 29.1368 97.7021 29.3386C97.0431 29.5268 96.4312 29.621 95.8664 29.621ZM93.9702 23.1254H96.9557C96.9557 22.7354 96.8549 22.3992 96.6531 22.1168C96.4649 21.821 96.1085 21.673 95.584 21.673C95.194 21.673 94.8511 21.7873 94.5552 22.016C94.2728 22.2446 94.0778 22.6144 93.9702 23.1254ZM101.805 29.3789V19.2927H104.629L104.871 21.0275H104.951C105.328 20.3416 105.772 19.844 106.283 19.5347C106.807 19.212 107.318 19.0506 107.816 19.0506C108.125 19.0506 108.374 19.0708 108.562 19.1111C108.751 19.138 108.919 19.1851 109.067 19.2523L108.502 22.2378C108.314 22.1975 108.132 22.1639 107.957 22.137C107.796 22.0966 107.601 22.0765 107.372 22.0765C107.009 22.0765 106.626 22.2042 106.222 22.4597C105.832 22.7018 105.516 23.1389 105.274 23.771V29.3789H101.805ZM114.517 29.621C113.872 29.621 113.246 29.5067 112.641 29.278C112.036 29.036 111.498 28.693 111.027 28.2492C110.57 27.792 110.2 27.2339 109.918 26.5749C109.649 25.916 109.515 25.1696 109.515 24.3358C109.515 23.502 109.649 22.7556 109.918 22.0966C110.2 21.4377 110.57 20.8863 111.027 20.4425C111.498 19.9853 112.036 19.6423 112.641 19.4137C113.246 19.1716 113.872 19.0506 114.517 19.0506C115.163 19.0506 115.781 19.1716 116.373 19.4137C116.978 19.6423 117.51 19.9853 117.967 20.4425C118.437 20.8863 118.814 21.4377 119.096 22.0966C119.379 22.7556 119.52 23.502 119.52 24.3358C119.52 25.1696 119.379 25.916 119.096 26.5749C118.814 27.2339 118.437 27.792 117.967 28.2492C117.51 28.693 116.978 29.036 116.373 29.278C115.781 29.5067 115.163 29.621 114.517 29.621ZM114.517 26.8372C115.042 26.8372 115.412 26.6153 115.627 26.1715C115.855 25.7142 115.97 25.1023 115.97 24.3358C115.97 23.5692 115.855 22.9641 115.627 22.5203C115.412 22.063 115.042 21.8344 114.517 21.8344C113.993 21.8344 113.616 22.063 113.388 22.5203C113.172 22.9641 113.065 23.5692 113.065 24.3358C113.065 25.1023 113.172 25.7142 113.388 26.1715C113.616 26.6153 113.993 26.8372 114.517 26.8372Z" fill="white"/>
</g>
<defs>
<filter id="filter0_d_629_475" x="9.62019" y="13.8613" width="23.659" height="20.1722" filterUnits="userSpaceOnUse" color-interpolation-filters="sRGB">
<feFlood flood-opacity="0" result="BackgroundImageFix"/>
<feColorMatrix in="SourceAlpha" type="matrix" values="0 0 0 0 0 0 0 0 0 0 0 0 0 0 0 0 0 0 127 0" result="hardAlpha"/>
<feOffset dy="2.24139"/>
<feGaussianBlur stdDeviation="1.12069"/>
<feComposite in2="hardAlpha" operator="out"/>
<feColorMatrix type="matrix" values="0 0 0 0 0.67451 0 0 0 0 0.219608 0 0 0 0 0.160784 0 0 0 0.3 0"/>
<feBlend mode="normal" in2="BackgroundImageFix" result="effect1_dropShadow_629_475"/>
<feBlend mode="normal" in="SourceGraphic" in2="effect1_dropShadow_629_475" result="shape"/>
</filter>
<filter id="filter1_d_629_475" x="36.7181" y="15.3389" width="85.0433" height="18.765" filterUnits="userSpaceOnUse" color-interpolation-filters="sRGB">
<feFlood flood-opacity="0" result="BackgroundImageFix"/>
<feColorMatrix in="SourceAlpha" type="matrix" values="0 0 0 0 0 0 0 0 0 0 0 0 0 0 0 0 0 0 127 0" result="hardAlpha"/>
<feOffset dy="2.24139"/>
<feGaussianBlur stdDeviation="1.12069"/>
<feComposite in2="hardAlpha" operator="out"/>
<feColorMatrix type="matrix" values="0 0 0 0 0.67451 0 0 0 0 0.219608 0 0 0 0 0.160784 0 0 0 0.3 0"/>
<feBlend mode="normal" in2="BackgroundImageFix" result="effect1_dropShadow_629_475"/>
<feBlend mode="normal" in="SourceGraphic" in2="effect1_dropShadow_629_475" result="shape"/>
</filter>
<linearGradient id="paint0_linear_629_475" x1="54.4481" y1="0.41309" x2="77.9826" y2="42.9994" gradientUnits="userSpaceOnUse">
<stop stop-color="#FF7765"/>
<stop offset="0.478533" stop-color="#FF8C7C"/>
<stop offset="1" stop-color="#FF7765"/>
</linearGradient>
</defs>
</svg>
