<svg width="32" height="36" viewBox="0 0 32 36" fill="none" xmlns="http://www.w3.org/2000/svg">
<path d="M6.85074 0C5.59369 0 4.56519 1.01958 4.56519 2.26573V33.7343C4.56519 34.9804 5.59369 36 6.85074 36H29.7063C30.9633 36 31.9918 34.9804 31.9918 33.7343V9.06294L22.8496 0H6.85074Z" fill="#E2E5E7"/>
<path d="M25.144 9.06294H32.0007L22.8585 0V6.7972C22.8585 8.04336 23.887 9.06294 25.144 9.06294Z" fill="#B0B7BD"/>
<path d="M31.9978 15.8634L25.1411 9.06616H31.9978V15.8634Z" fill="#CAD1D8"/>
<path d="M30.4741 27.8168C30.4741 28.4398 29.9598 28.9496 29.3313 28.9496H1.14278C0.51425 28.9496 0 28.4398 0 27.8168V16.4881C0 15.865 0.51425 15.3552 1.14278 15.3552H29.3313C29.9598 15.3552 30.4741 15.865 30.4741 16.4881V27.8168Z" fill="#E8834D"/>
<path d="M29.3254 28.9495H4.56519V30.0824H29.3254C29.9539 30.0824 30.4681 29.5726 30.4681 28.9495V27.8167C30.4681 28.4397 29.9539 28.9495 29.3254 28.9495Z" fill="#CAD1D8"/>
<path d="M4.96135 24.8109C4.69724 24.8109 4.56519 24.7378 4.56519 24.5918V19.7885C4.56519 19.6928 4.5855 19.6223 4.62613 19.577C4.67184 19.5317 4.74041 19.509 4.83183 19.509H6.05841C7.0793 19.509 7.58974 19.9874 7.58974 20.944C7.58974 21.5432 7.35102 21.9686 6.8736 22.2204V22.2506C7.07676 22.3613 7.24944 22.6357 7.39165 23.0738L7.84877 24.5314C7.85384 24.5465 7.85892 24.5641 7.864 24.5843C7.86908 24.5994 7.87162 24.6145 7.87162 24.6296C7.87162 24.7454 7.73449 24.8033 7.46022 24.8033H7.23928C7.00057 24.8033 6.86852 24.7454 6.84312 24.6296L6.4241 23.1795C6.36315 23.0083 6.29205 22.89 6.21078 22.8246C6.1346 22.7591 6.01524 22.7264 5.85271 22.7264H5.57083V24.5918C5.57083 24.7378 5.43624 24.8109 5.16705 24.8109H4.96135ZM6.11174 21.805C6.24888 21.805 6.36569 21.737 6.4622 21.6011C6.5587 21.4651 6.60695 21.2839 6.60695 21.0573C6.60695 20.8156 6.5587 20.6394 6.4622 20.5286C6.37077 20.4128 6.2438 20.3549 6.08127 20.3549H5.56321V21.805H6.11174Z" fill="white"/>
<path d="M9.97201 24.8486C9.39808 24.8486 8.97398 24.6825 8.69972 24.3502C8.43053 24.0128 8.29594 23.5118 8.29594 22.8472C8.29594 21.4777 8.814 20.7929 9.85011 20.7929C10.7745 20.7929 11.2367 21.4626 11.2367 22.8019C11.2367 22.8573 11.191 22.9378 11.0995 23.0436C11.0132 23.1493 10.9446 23.2022 10.8938 23.2022H9.29396C9.3092 23.5143 9.37523 23.7409 9.49204 23.8819C9.60886 24.0178 9.77901 24.0858 10.0025 24.0858C10.1345 24.0858 10.2514 24.0682 10.3529 24.0329C10.4545 23.9927 10.5485 23.9499 10.6348 23.9046C10.7212 23.8542 10.772 23.829 10.7872 23.829C10.8532 23.829 10.9269 23.897 11.0081 24.0329C11.0945 24.1639 11.1376 24.2646 11.1376 24.335C11.1376 24.4307 11.0742 24.5188 10.9472 24.5994C10.8253 24.6749 10.6704 24.7353 10.4824 24.7806C10.2996 24.826 10.1295 24.8486 9.97201 24.8486ZM10.3301 22.5753C10.3301 22.2078 10.2894 21.9384 10.2082 21.7672C10.132 21.596 10.0076 21.5104 9.83488 21.5104C9.65711 21.5104 9.52252 21.5935 9.43109 21.7597C9.33967 21.9208 9.2838 22.1927 9.26349 22.5753H10.3301Z" fill="white"/>
<path d="M12.7078 24.8562C12.4437 24.8562 12.1999 24.8083 11.9765 24.7127C11.753 24.617 11.6412 24.5037 11.6412 24.3728C11.6412 24.2822 11.6844 24.1689 11.7708 24.0329C11.8622 23.897 11.9409 23.829 12.0069 23.829C12.0222 23.829 12.0653 23.8542 12.1364 23.9046C12.2075 23.9499 12.2812 23.9902 12.3574 24.0254C12.4336 24.0556 12.5199 24.0707 12.6164 24.0707C12.7586 24.0707 12.8678 24.038 12.944 23.9725C13.0253 23.9071 13.0659 23.8139 13.0659 23.6931C13.0659 23.5571 13.0202 23.4514 12.9288 23.3759C12.8373 23.3004 12.6824 23.2022 12.464 23.0813C12.2253 22.9504 12.0399 22.8044 11.9079 22.6433C11.7758 22.4771 11.7098 22.2481 11.7098 21.956C11.7098 21.5985 11.8215 21.3141 12.045 21.1026C12.2685 20.8911 12.5605 20.7854 12.9211 20.7854C13.1446 20.7854 13.3554 20.8206 13.5535 20.8911C13.7566 20.9616 13.8582 21.0598 13.8582 21.1857C13.8582 21.2713 13.8252 21.3846 13.7592 21.5255C13.6932 21.6615 13.6322 21.7295 13.5763 21.7295C13.5611 21.7295 13.5002 21.7043 13.3935 21.6539C13.2919 21.5985 13.1802 21.5709 13.0583 21.5709C12.9313 21.5709 12.8272 21.5985 12.7459 21.6539C12.6697 21.7093 12.6316 21.7924 12.6316 21.9032C12.6316 22.0139 12.6697 22.1046 12.7459 22.175C12.8221 22.2455 12.9415 22.3236 13.104 22.4092L13.2487 22.4922C13.4824 22.6232 13.6627 22.7742 13.7897 22.9454C13.9166 23.1166 13.9801 23.3457 13.9801 23.6327C13.9801 24.0002 13.8633 24.2973 13.6297 24.5239C13.4011 24.7454 13.0938 24.8562 12.7078 24.8562Z" fill="white"/>
<path d="M15.4775 24.8562C15.1778 24.8562 14.9492 24.7655 14.7918 24.5843C14.6343 24.398 14.5556 24.1336 14.5556 23.7913V21.0497C14.5556 20.9037 14.6851 20.8307 14.9442 20.8307H15.1346C15.2718 20.8307 15.3708 20.8483 15.4317 20.8836C15.4927 20.9188 15.5232 20.9742 15.5232 21.0497V23.5949C15.5232 23.751 15.5511 23.8693 15.607 23.9499C15.6679 24.0254 15.7644 24.0632 15.8965 24.0632C15.9981 24.0632 16.092 24.0329 16.1784 23.9725C16.2647 23.9071 16.3358 23.824 16.3917 23.7233V21.0497C16.3917 20.9037 16.5212 20.8307 16.7802 20.8307H16.9783C17.2323 20.8307 17.3592 20.9037 17.3592 21.0497V23.5496C17.3592 23.892 17.3719 24.1412 17.3973 24.2973C17.4227 24.4483 17.4354 24.539 17.4354 24.5692C17.4354 24.6497 17.3491 24.7076 17.1764 24.7429C17.0037 24.7781 16.8488 24.7957 16.7117 24.7957C16.6253 24.7957 16.5669 24.7681 16.5364 24.7127C16.506 24.6522 16.4831 24.5792 16.4679 24.4936C16.4577 24.4081 16.4475 24.3401 16.4374 24.2897C16.3257 24.4559 16.1885 24.5918 16.026 24.6976C15.8635 24.8033 15.6806 24.8562 15.4775 24.8562Z" fill="white"/>
<path d="M21.9945 20.7929C22.2738 20.7929 22.4897 20.8861 22.6421 21.0724C22.7995 21.2587 22.8782 21.5356 22.8782 21.9032V24.5918C22.8782 24.7378 22.7487 24.8109 22.4897 24.8109H22.2992C22.0402 24.8109 21.9107 24.7378 21.9107 24.5918V22.092C21.9107 21.9258 21.8802 21.7999 21.8193 21.7143C21.7634 21.6288 21.672 21.586 21.545 21.586C21.4485 21.586 21.3596 21.6162 21.2784 21.6766C21.1971 21.732 21.126 21.8025 21.065 21.8881V21.9183V24.5918C21.065 24.7378 20.9355 24.8109 20.6765 24.8109H20.4784C20.2194 24.8109 20.0899 24.7378 20.0899 24.5918V22.092C20.0899 21.9258 20.0594 21.7999 19.9984 21.7143C19.9426 21.6288 19.8512 21.586 19.7242 21.586C19.6124 21.586 19.5159 21.6212 19.4347 21.6917C19.3534 21.7622 19.2899 21.8402 19.2442 21.9258V24.5918C19.2442 24.6674 19.2112 24.7227 19.1452 24.758C19.0842 24.7932 18.9877 24.8109 18.8557 24.8109H18.6576C18.4036 24.8109 18.2767 24.7378 18.2767 24.5918V22.0995C18.2767 21.7521 18.264 21.5029 18.2386 21.3518C18.2132 21.2008 18.2005 21.1127 18.2005 21.0875C18.2005 21.0069 18.2868 20.949 18.4595 20.9138C18.6373 20.8735 18.7922 20.8534 18.9242 20.8534C19.0106 20.8534 19.069 20.8836 19.0995 20.944C19.1299 20.9994 19.1503 21.0699 19.1604 21.1555C19.1756 21.2411 19.1883 21.309 19.1985 21.3594C19.3102 21.1932 19.4474 21.0573 19.6099 20.9516C19.7775 20.8458 19.9654 20.7929 20.1737 20.7929C20.3718 20.7929 20.5394 20.8383 20.6765 20.9289C20.8187 21.0195 20.9203 21.1555 20.9812 21.3367C21.093 21.1756 21.2352 21.0447 21.4079 20.944C21.5856 20.8433 21.7812 20.7929 21.9945 20.7929Z" fill="white"/>
<path d="M25.276 24.8486C24.7021 24.8486 24.278 24.6825 24.0037 24.3502C23.7345 24.0128 23.5999 23.5118 23.5999 22.8472C23.5999 21.4777 24.118 20.7929 25.1541 20.7929C26.0785 20.7929 26.5407 21.4626 26.5407 22.8019C26.5407 22.8573 26.495 22.9378 26.4035 23.0436C26.3172 23.1493 26.2486 23.2022 26.1978 23.2022H24.5979C24.6132 23.5143 24.6792 23.7409 24.796 23.8819C24.9128 24.0178 25.083 24.0858 25.3065 24.0858C25.4385 24.0858 25.5553 24.0682 25.6569 24.0329C25.7585 23.9927 25.8525 23.9499 25.9388 23.9046C26.0252 23.8542 26.0759 23.829 26.0912 23.829C26.1572 23.829 26.2309 23.897 26.3121 24.0329C26.3985 24.1639 26.4416 24.2646 26.4416 24.335C26.4416 24.4307 26.3781 24.5188 26.2512 24.5994C26.1293 24.6749 25.9744 24.7353 25.7864 24.7806C25.6036 24.826 25.4334 24.8486 25.276 24.8486ZM25.6341 22.5753C25.6341 22.2078 25.5934 21.9384 25.5122 21.7672C25.436 21.596 25.3115 21.5104 25.1389 21.5104C24.9611 21.5104 24.8265 21.5935 24.7351 21.7597C24.6437 21.9208 24.5878 22.1927 24.5675 22.5753H25.6341Z" fill="white"/>
</svg>
