<svg width="146" height="27" viewBox="0 0 146 27" fill="none" xmlns="http://www.w3.org/2000/svg">
<path d="M2.48403 16.691C1.53592 15.6639 2.26444 14 3.66225 14H22.3966C23.2821 14 24 14.7179 24 15.6034V25.3966C24 26.2821 23.2821 27 22.3966 27H3.66225C2.26444 27 1.53592 25.3361 2.48403 24.309L4.99607 21.5876C5.56305 20.9734 5.56305 20.0266 4.99607 19.4124L2.48403 16.691Z" fill="#DE5745"/>
<path d="M143.516 16.691C144.464 15.6639 143.736 14 142.338 14H123.603C122.718 14 122 14.7179 122 15.6034V25.3966C122 26.2821 122.718 27 123.603 27H142.338C143.736 27 144.464 25.3361 143.516 24.309L141.004 21.5876C140.437 20.9734 140.437 20.0266 141.004 19.4124L143.516 16.691Z" fill="#DE5745"/>
<path d="M20 4C20 1.79086 21.7909 0 24 0H127C129.209 0 131 1.79086 131 4V21C131 23.2091 129.209 25 127 25H24C21.7909 25 20 23.2091 20 21V4Z" fill="url(#paint0_linear_2390_88)"/>
<defs>
<linearGradient id="paint0_linear_2390_88" x1="14.9545" y1="-3.4722" x2="171.38" y2="16.7862" gradientUnits="userSpaceOnUse">
<stop offset="0.166667" stop-color="#FF6360"/>
<stop offset="0.401042" stop-color="#FF6360" stop-opacity="0.75"/>
<stop offset="0.604167" stop-color="#FF6360"/>
</linearGradient>
</defs>
</svg>
