
<svg width="167" height="130" viewBox="0 0 167 130" fill="none" xmlns="http://www.w3.org/2000/svg">
<path opacity="0.689918" d="M6.54685 120.344C7.25525 119.794 10.803 116.122 11.4515 115.449C11.5109 115.388 11.6053 115.377 11.6768 115.424L12.9032 116.227C12.9903 116.284 13.01 116.404 12.9459 116.486L5.75233 125.683C5.69228 125.76 5.58163 125.774 5.50418 125.715L0.943798 122.23C0.871404 122.175 0.852495 122.074 0.899994 121.996L2.46996 119.426C2.52157 119.342 2.63219 119.316 2.71612 119.368L4.25452 120.33C4.25452 120.33 5.55886 121.198 6.54685 120.344Z" fill="#FFE1E1"/>
<path opacity="0.689918" d="M157.902 120.344C158.611 119.794 162.159 116.122 162.807 115.449C162.866 115.388 162.961 115.377 163.032 115.424L164.259 116.227C164.346 116.284 164.365 116.404 164.301 116.486L157.108 125.683C157.048 125.76 156.937 125.774 156.86 125.715L152.299 122.23C152.227 122.175 152.208 122.074 152.255 121.996L153.825 119.426C153.877 119.342 153.988 119.316 154.072 119.368L155.61 120.33C155.61 120.33 156.914 121.198 157.902 120.344Z" fill="#FFE1E1"/>
<path opacity="0.689918" d="M127.631 120.344C128.339 119.794 131.887 116.122 132.536 115.449C132.595 115.388 132.689 115.377 132.761 115.424L133.987 116.227C134.074 116.284 134.094 116.404 134.03 116.486L126.836 125.683C126.776 125.76 126.666 125.774 126.588 125.715L122.028 122.23C121.955 122.175 121.936 122.074 121.984 121.996L123.554 119.426C123.606 119.342 123.716 119.316 123.8 119.368L125.339 120.33C125.339 120.33 126.643 121.198 127.631 120.344Z" fill="#FFE1E1"/>
<path opacity="0.689918" d="M97.3613 120.344C98.0697 119.794 101.617 116.122 102.266 115.449C102.325 115.388 102.42 115.377 102.491 115.424L103.718 116.227C103.805 116.284 103.824 116.404 103.76 116.486L96.5668 125.683C96.5067 125.76 96.3961 125.774 96.3186 125.715L91.7583 122.23C91.6859 122.175 91.6669 122.074 91.7144 121.996L93.2844 119.426C93.336 119.342 93.4466 119.316 93.5306 119.368L95.069 120.33C95.069 120.33 96.3733 121.198 97.3613 120.344Z" fill="#FFE1E1"/>
<path opacity="0.689918" d="M67.0879 120.344C67.7963 119.794 71.3441 116.122 71.9926 115.449C72.0519 115.388 72.1463 115.377 72.2179 115.424L73.4442 116.227C73.5313 116.284 73.551 116.404 73.4869 116.486L66.2933 125.683C66.2333 125.76 66.1226 125.774 66.0452 125.715L61.4848 122.23C61.4124 122.175 61.3935 122.074 61.441 121.996L63.011 119.426C63.0626 119.342 63.1732 119.316 63.2571 119.368L64.7955 120.33C64.7955 120.33 66.0999 121.198 67.0879 120.344Z" fill="#FFE1E1"/>
<path opacity="0.689918" d="M36.8183 120.344C37.5267 119.794 41.0745 116.122 41.723 115.449C41.7824 115.388 41.8767 115.377 41.9483 115.424L43.1747 116.227C43.2618 116.284 43.2815 116.404 43.2173 116.486L36.0238 125.683C35.9638 125.76 35.8531 125.774 35.7757 125.715L31.2153 122.23C31.1429 122.175 31.124 122.074 31.1715 121.996L32.7414 119.426C32.7931 119.342 32.9037 119.316 32.9876 119.368L34.526 120.33C34.526 120.33 35.8303 121.198 36.8183 120.344Z" fill="#FFE1E1"/>
<path opacity="0.689918" d="M6.54685 91.7212C7.25525 91.1711 10.803 87.4989 11.4515 86.8261C11.5109 86.7645 11.6053 86.7543 11.6768 86.8011L12.9032 87.6041C12.9903 87.6611 13.01 87.7805 12.9459 87.8625L5.75233 97.0598C5.69228 97.1365 5.58163 97.1507 5.50418 97.0915L0.943798 93.6071C0.871404 93.5518 0.852495 93.4508 0.899994 93.373L2.46996 90.8033C2.52157 90.7188 2.63219 90.6927 2.71612 90.7452L4.25452 91.7074C4.25452 91.7074 5.55886 92.5752 6.54685 91.7212Z" fill="#FFE1E1"/>
<path opacity="0.689918" d="M157.902 91.7212C158.611 91.1711 162.159 87.4989 162.807 86.8261C162.866 86.7645 162.961 86.7543 163.032 86.8011L164.259 87.6041C164.346 87.6611 164.365 87.7805 164.301 87.8625L157.108 97.0598C157.048 97.1365 156.937 97.1507 156.86 97.0915L152.299 93.6071C152.227 93.5518 152.208 93.4508 152.255 93.373L153.825 90.8033C153.877 90.7188 153.988 90.6927 154.072 90.7452L155.61 91.7074C155.61 91.7074 156.914 92.5752 157.902 91.7212Z" fill="#FFE1E1"/>
<path opacity="0.689918" d="M127.631 91.7212C128.339 91.1711 131.887 87.4989 132.536 86.8261C132.595 86.7645 132.689 86.7543 132.761 86.8011L133.987 87.6041C134.074 87.6611 134.094 87.7805 134.03 87.8625L126.836 97.0598C126.776 97.1365 126.666 97.1507 126.588 97.0915L122.028 93.6071C121.955 93.5518 121.936 93.4508 121.984 93.373L123.554 90.8033C123.606 90.7188 123.716 90.6927 123.8 90.7452L125.339 91.7074C125.339 91.7074 126.643 92.5752 127.631 91.7212Z" fill="#FFE1E1"/>
<path opacity="0.689918" d="M97.3613 91.7212C98.0697 91.1711 101.617 87.4989 102.266 86.8261C102.325 86.7645 102.42 86.7543 102.491 86.8011L103.718 87.6041C103.805 87.6611 103.824 87.7805 103.76 87.8625L96.5668 97.0598C96.5067 97.1365 96.3961 97.1507 96.3186 97.0915L91.7583 93.6071C91.6859 93.5518 91.6669 93.4508 91.7144 93.373L93.2844 90.8033C93.336 90.7188 93.4466 90.6927 93.5306 90.7452L95.069 91.7074C95.069 91.7074 96.3733 92.5752 97.3613 91.7212Z" fill="#FFE1E1"/>
<path opacity="0.689918" d="M67.0879 91.7212C67.7963 91.1711 71.3441 87.4989 71.9926 86.8261C72.0519 86.7645 72.1463 86.7543 72.2179 86.8011L73.4442 87.6041C73.5313 87.6611 73.551 87.7805 73.4869 87.8625L66.2933 97.0598C66.2333 97.1365 66.1226 97.1507 66.0452 97.0915L61.4848 93.6071C61.4124 93.5518 61.3935 93.4508 61.441 93.373L63.011 90.8033C63.0626 90.7188 63.1732 90.6927 63.2571 90.7452L64.7955 91.7074C64.7955 91.7074 66.0999 92.5752 67.0879 91.7212Z" fill="#FFE1E1"/>
<path opacity="0.689918" d="M36.8183 91.7212C37.5267 91.1711 41.0745 87.4989 41.723 86.8261C41.7824 86.7645 41.8767 86.7543 41.9483 86.8011L43.1747 87.6041C43.2618 87.6611 43.2815 87.7805 43.2173 87.8625L36.0238 97.0598C35.9638 97.1365 35.8531 97.1507 35.7757 97.0915L31.2153 93.6071C31.1429 93.5518 31.124 93.4508 31.1715 93.373L32.7414 90.8033C32.7931 90.7188 32.9037 90.6927 32.9876 90.7452L34.526 91.7074C34.526 91.7074 35.8303 92.5752 36.8183 91.7212Z" fill="#FFE1E1"/>
<path opacity="0.689918" d="M6.54685 63.0981C7.25525 62.548 10.803 58.8758 11.4515 58.203C11.5109 58.1414 11.6053 58.1312 11.6768 58.1781L12.9032 58.981C12.9903 59.0381 13.01 59.1575 12.9459 59.2395L5.75233 68.4367C5.69228 68.5135 5.58163 68.5277 5.50418 68.4685L0.943798 64.9841C0.871404 64.9288 0.852495 64.8277 0.899994 64.75L2.46996 62.1803C2.52157 62.0958 2.63219 62.0697 2.71612 62.1222L4.25452 63.0843C4.25452 63.0843 5.55886 63.9521 6.54685 63.0981Z" fill="#FFE1E1"/>
<path opacity="0.689918" d="M157.902 63.0981C158.611 62.548 162.159 58.8758 162.807 58.203C162.866 58.1414 162.961 58.1312 163.032 58.1781L164.259 58.981C164.346 59.0381 164.365 59.1575 164.301 59.2395L157.108 68.4367C157.048 68.5135 156.937 68.5277 156.86 68.4685L152.299 64.9841C152.227 64.9288 152.208 64.8277 152.255 64.75L153.825 62.1803C153.877 62.0958 153.988 62.0697 154.072 62.1222L155.61 63.0843C155.61 63.0843 156.914 63.9521 157.902 63.0981Z" fill="#FFE1E1"/>
<path opacity="0.689918" d="M127.631 63.0981C128.339 62.548 131.887 58.8758 132.536 58.203C132.595 58.1414 132.689 58.1312 132.761 58.1781L133.987 58.981C134.074 59.0381 134.094 59.1575 134.03 59.2395L126.836 68.4367C126.776 68.5135 126.666 68.5277 126.588 68.4685L122.028 64.9841C121.955 64.9288 121.936 64.8277 121.984 64.75L123.554 62.1803C123.606 62.0958 123.716 62.0697 123.8 62.1222L125.339 63.0843C125.339 63.0843 126.643 63.9521 127.631 63.0981Z" fill="#FFE1E1"/>
<path opacity="0.689918" d="M97.3613 63.0981C98.0697 62.548 101.617 58.8758 102.266 58.203C102.325 58.1414 102.42 58.1312 102.491 58.1781L103.718 58.981C103.805 59.0381 103.824 59.1575 103.76 59.2395L96.5668 68.4367C96.5067 68.5135 96.3961 68.5277 96.3186 68.4685L91.7583 64.9841C91.6859 64.9288 91.6669 64.8277 91.7144 64.75L93.2844 62.1803C93.336 62.0958 93.4466 62.0697 93.5306 62.1222L95.069 63.0843C95.069 63.0843 96.3733 63.9521 97.3613 63.0981Z" fill="#FFE1E1"/>
<path opacity="0.689918" d="M67.0879 63.0981C67.7963 62.548 71.3441 58.8758 71.9926 58.203C72.0519 58.1414 72.1463 58.1312 72.2179 58.1781L73.4442 58.981C73.5313 59.0381 73.551 59.1575 73.4869 59.2395L66.2933 68.4367C66.2333 68.5135 66.1226 68.5277 66.0452 68.4685L61.4848 64.9841C61.4124 64.9288 61.3935 64.8277 61.441 64.75L63.011 62.1803C63.0626 62.0958 63.1732 62.0697 63.2571 62.1222L64.7955 63.0843C64.7955 63.0843 66.0999 63.9521 67.0879 63.0981Z" fill="#FFE1E1"/>
<path opacity="0.689918" d="M36.8183 63.0981C37.5267 62.548 41.0745 58.8758 41.723 58.203C41.7824 58.1414 41.8767 58.1312 41.9483 58.1781L43.1747 58.981C43.2618 59.0381 43.2815 59.1575 43.2173 59.2395L36.0238 68.4367C35.9638 68.5135 35.8531 68.5277 35.7757 68.4685L31.2153 64.9841C31.1429 64.9288 31.124 64.8277 31.1715 64.75L32.7414 62.1803C32.7931 62.0958 32.9037 62.0697 32.9876 62.1222L34.526 63.0843C34.526 63.0843 35.8303 63.9521 36.8183 63.0981Z" fill="#FFE1E1"/>
<path opacity="0.689918" d="M6.54685 34.4751C7.25525 33.925 10.803 30.2528 11.4515 29.58C11.5109 29.5184 11.6053 29.5082 11.6768 29.555L12.9032 30.358C12.9903 30.415 13.01 30.5344 12.9459 30.6164L5.75233 39.8137C5.69228 39.8905 5.58163 39.9046 5.50418 39.8454L0.943798 36.3611C0.871404 36.3057 0.852495 36.2047 0.899994 36.1269L2.46996 33.5572C2.52157 33.4728 2.63219 33.4466 2.71612 33.4991L4.25452 34.4613C4.25452 34.4613 5.55886 35.3291 6.54685 34.4751Z" fill="#FFE1E1"/>
<path opacity="0.689918" d="M157.902 34.4751C158.611 33.925 162.159 30.2528 162.807 29.58C162.866 29.5184 162.961 29.5082 163.032 29.555L164.259 30.358C164.346 30.415 164.365 30.5344 164.301 30.6164L157.108 39.8137C157.048 39.8905 156.937 39.9046 156.86 39.8454L152.299 36.3611C152.227 36.3057 152.208 36.2047 152.255 36.1269L153.825 33.5572C153.877 33.4728 153.988 33.4466 154.072 33.4991L155.61 34.4613C155.61 34.4613 156.914 35.3291 157.902 34.4751Z" fill="#FFE1E1"/>
<path opacity="0.689918" d="M127.631 34.4751C128.339 33.925 131.887 30.2528 132.536 29.58C132.595 29.5184 132.689 29.5082 132.761 29.555L133.987 30.358C134.074 30.415 134.094 30.5344 134.03 30.6164L126.836 39.8137C126.776 39.8905 126.666 39.9046 126.588 39.8454L122.028 36.3611C121.955 36.3057 121.936 36.2047 121.984 36.1269L123.554 33.5572C123.606 33.4728 123.716 33.4466 123.8 33.4991L125.339 34.4613C125.339 34.4613 126.643 35.3291 127.631 34.4751Z" fill="#FFE1E1"/>
<path opacity="0.689918" d="M97.3613 34.4751C98.0697 33.925 101.617 30.2528 102.266 29.58C102.325 29.5184 102.42 29.5082 102.491 29.555L103.718 30.358C103.805 30.415 103.824 30.5344 103.76 30.6164L96.5668 39.8137C96.5067 39.8905 96.3961 39.9046 96.3186 39.8454L91.7583 36.3611C91.6859 36.3057 91.6669 36.2047 91.7144 36.1269L93.2844 33.5572C93.336 33.4728 93.4466 33.4466 93.5306 33.4991L95.069 34.4613C95.069 34.4613 96.3733 35.3291 97.3613 34.4751Z" fill="#FFE1E1"/>
<path opacity="0.689918" d="M67.0879 34.4751C67.7963 33.925 71.3441 30.2528 71.9926 29.58C72.0519 29.5184 72.1463 29.5082 72.2179 29.555L73.4442 30.358C73.5313 30.415 73.551 30.5344 73.4869 30.6164L66.2933 39.8137C66.2333 39.8905 66.1226 39.9046 66.0452 39.8454L61.4848 36.3611C61.4124 36.3057 61.3935 36.2047 61.441 36.1269L63.011 33.5572C63.0626 33.4728 63.1732 33.4466 63.2571 33.4991L64.7955 34.4613C64.7955 34.4613 66.0999 35.3291 67.0879 34.4751Z" fill="#FFE1E1"/>
<path opacity="0.689918" d="M36.8183 34.4751C37.5267 33.925 41.0745 30.2528 41.723 29.58C41.7824 29.5184 41.8767 29.5082 41.9483 29.555L43.1747 30.358C43.2618 30.415 43.2815 30.5344 43.2173 30.6164L36.0238 39.8137C35.9638 39.8905 35.8531 39.9046 35.7757 39.8454L31.2153 36.3611C31.1429 36.3057 31.124 36.2047 31.1715 36.1269L32.7414 33.5572C32.7931 33.4728 32.9037 33.4466 32.9876 33.4991L34.526 34.4613C34.526 34.4613 35.8303 35.3291 36.8183 34.4751Z" fill="#FFE1E1"/>
<path opacity="0.689918" d="M6.54685 5.85203C7.25525 5.30195 10.803 1.62975 11.4515 0.956944C11.5109 0.89534 11.6053 0.885125 11.6768 0.931994L12.9032 1.73494C12.9903 1.79199 13.01 1.91136 12.9459 1.9934L5.75233 11.1906C5.69228 11.2674 5.58163 11.2816 5.50418 11.2224L0.943798 7.73801C0.871404 7.68269 0.852495 7.58163 0.899994 7.50388L2.46996 4.93417C2.52157 4.8497 2.63219 4.8236 2.71612 4.87609L4.25452 5.83825C4.25452 5.83825 5.55886 6.70605 6.54685 5.85203Z" fill="#FFE1E1"/>
<path opacity="0.689918" d="M157.902 5.85203C158.611 5.30195 162.159 1.62975 162.807 0.956944C162.866 0.89534 162.961 0.885125 163.032 0.931994L164.259 1.73494C164.346 1.79199 164.365 1.91136 164.301 1.9934L157.108 11.1906C157.048 11.2674 156.937 11.2816 156.86 11.2224L152.299 7.73801C152.227 7.68269 152.208 7.58163 152.255 7.50388L153.825 4.93417C153.877 4.8497 153.988 4.8236 154.072 4.87609L155.61 5.83825C155.61 5.83825 156.914 6.70605 157.902 5.85203Z" fill="#FFE1E1"/>
<path opacity="0.689918" d="M127.631 5.85203C128.339 5.30195 131.887 1.62975 132.536 0.956944C132.595 0.89534 132.689 0.885125 132.761 0.931994L133.987 1.73494C134.074 1.79199 134.094 1.91136 134.03 1.9934L126.836 11.1906C126.776 11.2674 126.666 11.2816 126.588 11.2224L122.028 7.73801C121.955 7.68269 121.936 7.58163 121.984 7.50388L123.554 4.93417C123.606 4.8497 123.716 4.8236 123.8 4.87609L125.339 5.83825C125.339 5.83825 126.643 6.70605 127.631 5.85203Z" fill="#FFE1E1"/>
<path opacity="0.689918" d="M97.3613 5.85203C98.0697 5.30195 101.617 1.62975 102.266 0.956944C102.325 0.89534 102.42 0.885125 102.491 0.931994L103.718 1.73494C103.805 1.79199 103.824 1.91136 103.76 1.9934L96.5668 11.1906C96.5067 11.2674 96.3961 11.2816 96.3186 11.2224L91.7583 7.73801C91.6859 7.68269 91.6669 7.58163 91.7144 7.50388L93.2844 4.93417C93.336 4.8497 93.4466 4.8236 93.5306 4.87609L95.069 5.83825C95.069 5.83825 96.3733 6.70605 97.3613 5.85203Z" fill="#FFE1E1"/>
<path opacity="0.689918" d="M67.0879 5.85203C67.7963 5.30195 71.3441 1.62975 71.9926 0.956944C72.0519 0.89534 72.1463 0.885125 72.2179 0.931994L73.4442 1.73494C73.5313 1.79199 73.551 1.91136 73.4869 1.9934L66.2933 11.1906C66.2333 11.2674 66.1226 11.2816 66.0452 11.2224L61.4848 7.73801C61.4124 7.68269 61.3935 7.58163 61.441 7.50388L63.011 4.93417C63.0626 4.8497 63.1732 4.8236 63.2571 4.87609L64.7955 5.83825C64.7955 5.83825 66.0999 6.70605 67.0879 5.85203Z" fill="#FFE1E1"/>
<path opacity="0.689918" d="M36.8183 5.85203C37.5267 5.30195 41.0745 1.62975 41.723 0.956944C41.7824 0.89534 41.8767 0.885125 41.9483 0.931994L43.1747 1.73494C43.2618 1.79199 43.2815 1.91136 43.2173 1.9934L36.0238 11.1906C35.9638 11.2674 35.8531 11.2816 35.7757 11.2224L31.2153 7.73801C31.1429 7.68269 31.124 7.58163 31.1715 7.50388L32.7414 4.93417C32.7931 4.8497 32.9037 4.8236 32.9876 4.87609L34.526 5.83825C34.526 5.83825 35.8303 6.70605 36.8183 5.85203Z" fill="#FFE1E1"/>
</svg>
