<svg width="74" height="24" viewBox="0 0 74 24" fill="none" xmlns="http://www.w3.org/2000/svg">
<path d="M0.462952 22.1404V18.2501H1.09891V22.1404H0.462952Z" fill="#0078DB"/>
<path d="M4.65122 22.1404H4.02324V20.331C4.02324 20.1039 3.97712 19.9345 3.88488 19.8227C3.79441 19.711 3.64983 19.6551 3.45115 19.6551C3.18683 19.6551 2.99347 19.7331 2.87107 19.8892C2.74867 20.0453 2.68747 20.307 2.68747 20.6742V22.1404H2.06216V19.1974H2.55176L2.63957 19.5832H2.6715C2.7602 19.4431 2.88615 19.3349 3.04935 19.2586C3.21256 19.1823 3.3935 19.1442 3.59218 19.1442C4.2982 19.1442 4.65122 19.5034 4.65122 20.2219V22.1404Z" fill="#0078DB"/>
<path d="M6.51385 22.1936C6.14665 22.1936 5.86016 22.0605 5.65438 21.7945C5.4486 21.5284 5.34572 21.1549 5.34572 20.6742C5.34572 20.1917 5.44949 19.8165 5.65704 19.5486C5.86637 19.279 6.15552 19.1442 6.5245 19.1442C6.91122 19.1442 7.20569 19.287 7.40792 19.5726H7.43985C7.40969 19.3615 7.39461 19.1947 7.39461 19.0723V18H8.02259V22.1404H7.53298L7.42388 21.7545H7.39461C7.19416 22.0472 6.90057 22.1936 6.51385 22.1936ZM6.68149 21.688C6.93871 21.688 7.12586 21.6162 7.24294 21.4725C7.36002 21.327 7.42034 21.092 7.42388 20.7673V20.6795C7.42388 20.3088 7.36357 20.0453 7.24294 19.8892C7.12231 19.7331 6.93339 19.6551 6.67617 19.6551C6.4562 19.6551 6.28679 19.7447 6.16794 19.9238C6.04908 20.1012 5.98965 20.3549 5.98965 20.6849C5.98965 21.0113 6.04731 21.2605 6.16261 21.4326C6.27792 21.6029 6.45088 21.688 6.68149 21.688Z" fill="#0078DB"/>
<path d="M9.54196 22.1404H8.91665V19.1974H9.54196V22.1404ZM8.8794 18.4178C8.8794 18.306 8.90956 18.22 8.96987 18.1597C9.03196 18.0993 9.11977 18.0692 9.2333 18.0692C9.34328 18.0692 9.42843 18.0993 9.48875 18.1597C9.55083 18.22 9.58188 18.306 9.58188 18.4178C9.58188 18.5242 9.55083 18.6085 9.48875 18.6705C9.42843 18.7309 9.34328 18.761 9.2333 18.761C9.11977 18.761 9.03196 18.7309 8.96987 18.6705C8.90956 18.6085 8.8794 18.5242 8.8794 18.4178Z" fill="#0078DB"/>
<path d="M12.28 22.1404L12.155 21.7306H12.1337C11.9918 21.9098 11.849 22.0322 11.7053 22.0978C11.5616 22.1617 11.3771 22.1936 11.1518 22.1936C10.8627 22.1936 10.6365 22.1155 10.4733 21.9594C10.3119 21.8033 10.2311 21.5825 10.2311 21.2969C10.2311 20.9935 10.3438 20.7647 10.5691 20.6103C10.7944 20.456 11.1376 20.3718 11.5988 20.3576L12.1071 20.3416V20.1846C12.1071 19.9966 12.0627 19.8564 11.974 19.7642C11.8871 19.6702 11.7514 19.6232 11.5669 19.6232C11.4161 19.6232 11.2716 19.6453 11.1332 19.6897C10.9948 19.734 10.8618 19.7864 10.7341 19.8467L10.5318 19.3996C10.6915 19.3163 10.8662 19.2533 11.056 19.2107C11.2458 19.1664 11.425 19.1442 11.5935 19.1442C11.9678 19.1442 12.2499 19.2258 12.4397 19.389C12.6313 19.5522 12.7271 19.8085 12.7271 20.158V22.1404H12.28ZM11.3487 21.7146C11.5758 21.7146 11.7576 21.6517 11.8942 21.5257C12.0326 21.398 12.1018 21.2197 12.1018 20.9909V20.7354L11.7239 20.7514C11.4294 20.762 11.2148 20.8117 11.08 20.9004C10.9469 20.9873 10.8804 21.1212 10.8804 21.3022C10.8804 21.4335 10.9194 21.5355 10.9975 21.6082C11.0755 21.6791 11.1926 21.7146 11.3487 21.7146Z" fill="#0078DB"/>
<path d="M14.1001 18.2501L14.14 18.3087C14.046 18.6794 13.8899 19.1043 13.6717 19.5832H13.2193C13.3417 19.0706 13.4304 18.6262 13.4854 18.2501H14.1001Z" fill="#0078DB"/>
<path d="M16.6306 21.3022C16.6306 21.5896 16.526 21.8104 16.3166 21.9648C16.1073 22.1173 15.8075 22.1936 15.4172 22.1936C15.0252 22.1936 14.7103 22.1342 14.4726 22.0153V21.4751C14.8185 21.6348 15.1405 21.7146 15.4385 21.7146C15.8235 21.7146 16.016 21.5984 16.016 21.366C16.016 21.2915 15.9947 21.2295 15.9521 21.1798C15.9095 21.1301 15.8394 21.0787 15.7419 21.0255C15.6443 20.9722 15.5086 20.9119 15.3348 20.8445C14.9959 20.7132 14.7662 20.582 14.6456 20.4507C14.5267 20.3194 14.4673 20.1491 14.4673 19.9398C14.4673 19.6879 14.5684 19.4928 14.7706 19.3544C14.9746 19.2143 15.2514 19.1442 15.6008 19.1442C15.9468 19.1442 16.2741 19.2143 16.5827 19.3544L16.3805 19.8254C16.063 19.6941 15.796 19.6285 15.5796 19.6285C15.2496 19.6285 15.0846 19.7225 15.0846 19.9105C15.0846 20.0028 15.1272 20.0808 15.2124 20.1447C15.2993 20.2086 15.4873 20.2964 15.7765 20.4081C16.0195 20.5021 16.196 20.5882 16.306 20.6662C16.416 20.7443 16.4976 20.8348 16.5508 20.9376C16.604 21.0388 16.6306 21.1603 16.6306 21.3022Z" fill="#0078DB"/>
<path d="M22.0323 22.1404H21.2526L19.3394 19.0404H19.3181L19.3314 19.2134C19.3563 19.5433 19.3687 19.8449 19.3687 20.1181V22.1404H18.7913V18.2501H19.5629L21.4708 21.3341H21.4868C21.4832 21.2933 21.4761 21.1452 21.4655 20.8897C21.4548 20.6325 21.4495 20.4321 21.4495 20.2884V18.2501H22.0323V22.1404Z" fill="#0078DB"/>
<path d="M25.6032 20.6636C25.6032 21.1443 25.4799 21.5195 25.2333 21.7891C24.9868 22.0588 24.6435 22.1936 24.2036 22.1936C23.9286 22.1936 23.6856 22.1315 23.4745 22.0073C23.2634 21.8831 23.1011 21.7049 22.9875 21.4725C22.874 21.2401 22.8172 20.9705 22.8172 20.6636C22.8172 20.1864 22.9396 19.8139 23.1844 19.546C23.4292 19.2781 23.7743 19.1442 24.2195 19.1442C24.6453 19.1442 24.9823 19.2817 25.2307 19.5566C25.479 19.8298 25.6032 20.1988 25.6032 20.6636ZM23.4612 20.6636C23.4612 21.343 23.7122 21.6827 24.2142 21.6827C24.7109 21.6827 24.9593 21.343 24.9593 20.6636C24.9593 19.9912 24.7091 19.6551 24.2089 19.6551C23.9463 19.6551 23.7556 19.742 23.6368 19.9159C23.5197 20.0897 23.4612 20.3389 23.4612 20.6636Z" fill="#0078DB"/>
<path d="M26.2312 21.8078C26.2312 21.6783 26.2649 21.5789 26.3323 21.5097C26.3997 21.4406 26.4973 21.406 26.625 21.406C26.7545 21.406 26.8529 21.4423 26.9203 21.5151C26.9878 21.586 27.0215 21.6836 27.0215 21.8078C27.0215 21.9337 26.9869 22.0339 26.9177 22.1084C26.8503 22.1812 26.7527 22.2175 26.625 22.2175C26.4973 22.2175 26.3997 22.1812 26.3323 22.1084C26.2649 22.0357 26.2312 21.9355 26.2312 21.8078Z" fill="#0078DB"/>
<path d="M30.8691 22.1404H30.2438V19.6285C30.2438 19.3287 30.2509 19.091 30.2651 18.9154C30.2243 18.9579 30.1737 19.0049 30.1134 19.0564C30.0549 19.1078 29.8562 19.271 29.5174 19.546L29.2034 19.1495L30.3476 18.2501H30.8691V22.1404Z" fill="#0078DB"/>
<path d="M36.4118 19.4262C36.4118 19.8325 36.2788 20.1438 36.0127 20.3602C35.7466 20.5766 35.3678 20.6849 34.8765 20.6849H34.472V22.1404H33.836V18.2501H34.9563C35.4423 18.2501 35.806 18.3495 36.0473 18.5481C36.2903 18.7468 36.4118 19.0395 36.4118 19.4262ZM34.472 20.15H34.8099C35.1363 20.15 35.3758 20.0932 35.5284 19.9797C35.6809 19.8662 35.7572 19.6888 35.7572 19.4475C35.7572 19.224 35.6889 19.0573 35.5523 18.9473C35.4157 18.8373 35.2029 18.7823 34.9137 18.7823H34.472V20.15Z" fill="#0078DB"/>
<path d="M38.615 19.1442C38.741 19.1442 38.8448 19.1531 38.9264 19.1708L38.8652 19.7535C38.7765 19.7323 38.6842 19.7216 38.5884 19.7216C38.3383 19.7216 38.1352 19.8032 37.9791 19.9664C37.8247 20.1296 37.7476 20.3416 37.7476 20.6024V22.1404H37.1223V19.1974H37.6119L37.6944 19.7163H37.7263C37.8239 19.5407 37.9507 19.4014 38.1068 19.2985C38.2647 19.1956 38.4341 19.1442 38.615 19.1442Z" fill="#0078DB"/>
<path d="M42.0849 20.6636C42.0849 21.1443 41.9616 21.5195 41.715 21.7891C41.4684 22.0588 41.1252 22.1936 40.6852 22.1936C40.4103 22.1936 40.1672 22.1315 39.9561 22.0073C39.745 21.8831 39.5827 21.7049 39.4692 21.4725C39.3556 21.2401 39.2989 20.9705 39.2989 20.6636C39.2989 20.1864 39.4213 19.8139 39.6661 19.546C39.9109 19.2781 40.2559 19.1442 40.7012 19.1442C41.1269 19.1442 41.464 19.2817 41.7123 19.5566C41.9607 19.8298 42.0849 20.1988 42.0849 20.6636ZM39.9428 20.6636C39.9428 21.343 40.1938 21.6827 40.6959 21.6827C41.1926 21.6827 41.4409 21.343 41.4409 20.6636C41.4409 19.9912 41.1908 19.6551 40.6905 19.6551C40.428 19.6551 40.2373 19.742 40.1184 19.9159C40.0014 20.0897 39.9428 20.3389 39.9428 20.6636Z" fill="#0078DB"/>
<path d="M44.2987 22.1936C43.9262 22.1936 43.637 22.0597 43.4313 21.7918H43.394C43.4189 22.0401 43.4313 22.1909 43.4313 22.2441V23.4495H42.806V19.1974H43.3115C43.3257 19.2524 43.355 19.3837 43.3993 19.5912H43.4313C43.6264 19.2932 43.9191 19.1442 44.3094 19.1442C44.6766 19.1442 44.9622 19.2772 45.1662 19.5433C45.372 19.8094 45.4748 20.1828 45.4748 20.6636C45.4748 21.1443 45.3702 21.5195 45.1609 21.7891C44.9533 22.0588 44.6659 22.1936 44.2987 22.1936ZM44.1471 19.6551C43.8987 19.6551 43.7169 19.7278 43.6016 19.8733C43.488 20.0187 43.4313 20.2511 43.4313 20.5704V20.6636C43.4313 21.0219 43.488 21.2818 43.6016 21.4432C43.7151 21.6029 43.9005 21.6827 44.1577 21.6827C44.3741 21.6827 44.5409 21.594 44.6579 21.4166C44.775 21.2392 44.8336 20.9864 44.8336 20.6582C44.8336 20.3283 44.775 20.0791 44.6579 19.9105C44.5426 19.7402 44.3723 19.6551 44.1471 19.6551Z" fill="#0078DB"/>
<path d="M47.4865 22.1936C47.0288 22.1936 46.6705 22.0605 46.4115 21.7945C46.1543 21.5266 46.0257 21.1585 46.0257 20.6902C46.0257 20.2094 46.1454 19.8316 46.3849 19.5566C46.6244 19.2817 46.9534 19.1442 47.3721 19.1442C47.7606 19.1442 48.0675 19.2622 48.2927 19.4981C48.518 19.734 48.6307 20.0587 48.6307 20.472V20.8099H46.6696C46.6785 21.0955 46.7556 21.3155 46.9011 21.4698C47.0466 21.6224 47.2514 21.6987 47.5158 21.6987C47.6896 21.6987 47.851 21.6827 48 21.6508C48.1508 21.6171 48.3123 21.5621 48.4843 21.4858V21.994C48.3318 22.0668 48.1774 22.1182 48.0213 22.1484C47.8652 22.1785 47.6869 22.1936 47.4865 22.1936ZM47.3721 19.6178C47.1734 19.6178 47.0137 19.6808 46.8931 19.8068C46.7743 19.9327 46.7033 20.1163 46.6802 20.3576H48.016C48.0125 20.1145 47.9539 19.9309 47.8404 19.8068C47.7269 19.6808 47.5708 19.6178 47.3721 19.6178Z" fill="#0078DB"/>
<path d="M50.8339 19.1442C50.9599 19.1442 51.0636 19.1531 51.1452 19.1708L51.084 19.7535C50.9953 19.7323 50.9031 19.7216 50.8073 19.7216C50.5572 19.7216 50.3541 19.8032 50.198 19.9664C50.0436 20.1296 49.9665 20.3416 49.9665 20.6024V22.1404H49.3411V19.1974H49.8307L49.9132 19.7163H49.9452C50.0427 19.5407 50.1696 19.4014 50.3257 19.2985C50.4836 19.1956 50.653 19.1442 50.8339 19.1442Z" fill="#0078DB"/>
<path d="M52.7897 21.688C52.9422 21.688 53.0948 21.6641 53.2474 21.6162V22.0872C53.1782 22.1173 53.0886 22.1421 52.9786 22.1617C52.8704 22.1829 52.7577 22.1936 52.6407 22.1936C52.0482 22.1936 51.7519 21.8814 51.7519 21.2569V19.671H51.3501V19.3943L51.7812 19.1655L51.9941 18.5428H52.3799V19.1974H53.2181V19.671H52.3799V21.2463C52.3799 21.3971 52.4172 21.5088 52.4917 21.5816C52.5679 21.6525 52.6673 21.688 52.7897 21.688Z" fill="#0078DB"/>
<path d="M53.391 19.1974H54.0722L54.6709 20.8658C54.7614 21.1035 54.8217 21.327 54.8519 21.5363H54.8732C54.8891 21.4388 54.9184 21.3208 54.961 21.1824C55.0036 21.0423 55.2288 20.3806 55.6368 19.1974H56.3127L55.0541 22.5315C54.8253 23.1435 54.4439 23.4495 53.9099 23.4495C53.7716 23.4495 53.6367 23.4345 53.5055 23.4043V22.9094C53.5995 22.9307 53.7068 22.9413 53.8274 22.9413C54.129 22.9413 54.341 22.7666 54.4634 22.4171L54.5725 22.1404L53.391 19.1974Z" fill="#0078DB"/>
<path d="M60.8176 19.4262C60.8176 19.8325 60.6846 20.1438 60.4185 20.3602C60.1524 20.5766 59.7737 20.6849 59.2823 20.6849H58.8778V22.1404H58.2419V18.2501H59.3621C59.8482 18.2501 60.2118 18.3495 60.4531 18.5481C60.6961 18.7468 60.8176 19.0395 60.8176 19.4262ZM58.8778 20.15H59.2158C59.5422 20.15 59.7817 20.0932 59.9342 19.9797C60.0868 19.8662 60.163 19.6888 60.163 19.4475C60.163 19.224 60.0948 19.0573 59.9582 18.9473C59.8216 18.8373 59.6087 18.7823 59.3195 18.7823H58.8778V20.15Z" fill="#0078DB"/>
<path d="M64.1384 20.6636C64.1384 21.1443 64.0152 21.5195 63.7686 21.7891C63.522 22.0588 63.1787 22.1936 62.7388 22.1936C62.4638 22.1936 62.2208 22.1315 62.0097 22.0073C61.7986 21.8831 61.6363 21.7049 61.5228 21.4725C61.4092 21.2401 61.3525 20.9705 61.3525 20.6636C61.3525 20.1864 61.4749 19.8139 61.7197 19.546C61.9645 19.2781 62.3095 19.1442 62.7548 19.1442C63.1805 19.1442 63.5176 19.2817 63.7659 19.5566C64.0143 19.8298 64.1384 20.1988 64.1384 20.6636ZM61.9964 20.6636C61.9964 21.343 62.2474 21.6827 62.7495 21.6827C63.2462 21.6827 63.4945 21.343 63.4945 20.6636C63.4945 19.9912 63.2444 19.6551 62.7441 19.6551C62.4816 19.6551 62.2909 19.742 62.172 19.9159C62.055 20.0897 61.9964 20.3389 61.9964 20.6636Z" fill="#0078DB"/>
<path d="M66.3523 19.1442C66.4783 19.1442 66.582 19.1531 66.6636 19.1708L66.6024 19.7535C66.5137 19.7323 66.4215 19.7216 66.3257 19.7216C66.0756 19.7216 65.8725 19.8032 65.7164 19.9664C65.562 20.1296 65.4849 20.3416 65.4849 20.6024V22.1404H64.8595V19.1974H65.3492L65.4316 19.7163H65.4636C65.5611 19.5407 65.688 19.4014 65.8441 19.2985C66.002 19.1956 66.1714 19.1442 66.3523 19.1442Z" fill="#0078DB"/>
<path d="M68.3081 21.688C68.4606 21.688 68.6132 21.6641 68.7658 21.6162V22.0872C68.6966 22.1173 68.607 22.1421 68.497 22.1617C68.3888 22.1829 68.2762 22.1936 68.1591 22.1936C67.5666 22.1936 67.2703 21.8814 67.2703 21.2569V19.671H66.8685V19.3943L67.2996 19.1655L67.5125 18.5428H67.8983V19.1974H68.7365V19.671H67.8983V21.2463C67.8983 21.3971 67.9356 21.5088 68.0101 21.5816C68.0863 21.6525 68.1857 21.688 68.3081 21.688Z" fill="#0078DB"/>
<path d="M71.1978 22.1404L71.0728 21.7306H71.0515C70.9096 21.9098 70.7668 22.0322 70.6231 22.0978C70.4794 22.1617 70.2949 22.1936 70.0696 22.1936C69.7805 22.1936 69.5543 22.1155 69.3911 21.9594C69.2296 21.8033 69.1489 21.5825 69.1489 21.2969C69.1489 20.9935 69.2616 20.7647 69.4869 20.6103C69.7122 20.456 70.0554 20.3718 70.5166 20.3576L71.0249 20.3416V20.1846C71.0249 19.9966 70.9805 19.8564 70.8918 19.7642C70.8049 19.6702 70.6692 19.6232 70.4847 19.6232C70.3339 19.6232 70.1893 19.6453 70.051 19.6897C69.9126 19.734 69.7796 19.7864 69.6518 19.8467L69.4496 19.3996C69.6093 19.3163 69.784 19.2533 69.9738 19.2107C70.1636 19.1664 70.3428 19.1442 70.5113 19.1442C70.8856 19.1442 71.1677 19.2258 71.3575 19.389C71.5491 19.5522 71.6449 19.8085 71.6449 20.158V22.1404H71.1978ZM70.2665 21.7146C70.4936 21.7146 70.6754 21.6517 70.812 21.5257C70.9504 21.398 71.0195 21.2197 71.0195 20.9909V20.7354L70.6417 20.7514C70.3472 20.762 70.1326 20.8117 69.9978 20.9004C69.8647 20.9873 69.7982 21.1212 69.7982 21.3022C69.7982 21.4335 69.8372 21.5355 69.9153 21.6082C69.9933 21.6791 70.1104 21.7146 70.2665 21.7146Z" fill="#0078DB"/>
<path d="M73.143 22.1404H72.5176V18H73.143V22.1404Z" fill="#0078DB"/>
<path fill-rule="evenodd" clip-rule="evenodd" d="M30.7948 9.5699L29.6554 9.60975C28.7992 9.63632 28.1619 9.79572 27.7435 10.0877C27.3249 10.38 27.1158 10.8246 27.1158 11.4222C27.1158 12.2786 27.592 12.7068 28.5449 12.7068C29.2272 12.7068 29.7729 12.5045 30.1817 12.0994C30.5904 11.6945 30.7948 11.1567 30.7948 10.486V9.5699ZM31.664 14.7284L31.0941 13.2148H31.017C30.5211 13.8588 30.011 14.3053 29.4865 14.5542C28.9616 14.8032 28.2777 14.9276 27.4345 14.9276C26.3979 14.9276 25.5819 14.6224 24.9866 14.0115C24.391 13.4006 24.0934 12.531 24.0934 11.4023C24.0934 10.2206 24.4941 9.34928 25.2955 8.78817C26.0971 8.22716 27.3056 7.91677 28.9215 7.85699L30.7948 7.79722V7.30927C30.7948 6.18072 30.2347 5.61628 29.1147 5.61628C28.2519 5.61628 27.238 5.88516 26.073 6.42292L25.0976 4.37151C26.34 3.70102 27.7177 3.36572 29.2305 3.36572C30.6789 3.36572 31.7894 3.69106 32.562 4.34162C33.3344 4.99229 33.7207 5.98147 33.7207 7.30927V14.7284H31.664Z" fill="#0078DB"/>
<path fill-rule="evenodd" clip-rule="evenodd" d="M40.6422 14.9277C37.2819 14.9277 35.6017 13.0256 35.6017 9.2214C35.6017 7.32928 36.0587 5.8837 36.9729 4.88433C37.8869 3.8853 39.197 3.38562 40.9029 3.38562C42.1518 3.38562 43.2719 3.63801 44.2633 4.14245L43.3942 6.49275C42.9308 6.30025 42.4994 6.14261 42.1003 6.01963C41.701 5.89687 41.3021 5.83543 40.9029 5.83543C39.3708 5.83543 38.6048 6.95756 38.6048 9.20148C38.6048 11.3791 39.3708 12.4679 40.9029 12.4679C41.4693 12.4679 41.9942 12.39 42.4769 12.2339C42.9598 12.0779 43.4426 11.8339 43.9254 11.5019V14.1011C43.4488 14.4133 42.9677 14.6289 42.4818 14.7483C41.9957 14.8679 41.3825 14.9277 40.6422 14.9277" fill="#0078DB"/>
<path fill-rule="evenodd" clip-rule="evenodd" d="M51.9575 3.38562C52.3565 3.38562 52.6881 3.41551 52.952 3.47528L52.7301 6.32349C52.4917 6.25707 52.202 6.22387 51.8609 6.22387C50.921 6.22387 50.1887 6.47282 49.6641 6.97073C49.1393 7.46864 48.8772 8.16581 48.8772 9.062V14.7285H45.9319V3.59472H48.1625L48.5971 5.46704H48.7419C49.0766 4.84304 49.529 4.34015 50.0986 3.95825C50.6683 3.57657 51.2878 3.38562 51.9575 3.38562" fill="#0078DB"/>
<path fill-rule="evenodd" clip-rule="evenodd" d="M58.8887 5.54663C58.2641 5.54663 57.7748 5.75075 57.421 6.15911C57.0668 6.56736 56.864 7.14674 56.8126 7.89681H60.9455C60.9324 7.14674 60.7427 6.56736 60.3758 6.15911C60.0088 5.75075 59.5131 5.54663 58.8887 5.54663M59.3039 14.9277C57.5657 14.9277 56.2074 14.4331 55.2289 13.4438C54.2504 12.4546 53.7612 11.0538 53.7612 9.24122C53.7612 7.37566 54.2134 5.9334 55.1179 4.91422C56.0222 3.89515 57.2727 3.38562 58.8693 3.38562C60.395 3.38562 61.5828 3.83372 62.4326 4.73002C63.2822 5.62622 63.7072 6.86457 63.7072 8.44454V9.91846H56.745C56.7771 10.7816 57.025 11.4555 57.4886 11.94C57.952 12.4247 58.6022 12.667 59.4392 12.667C60.0893 12.667 60.704 12.5973 61.2835 12.4579C61.8627 12.3185 62.4678 12.0962 63.0988 11.7907V14.141C62.5837 14.4065 62.0333 14.604 61.4475 14.7334C60.8617 14.8629 60.1472 14.9277 59.3039 14.9277" fill="#0078DB"/>
<path fill-rule="evenodd" clip-rule="evenodd" d="M73.1393 11.4221C73.1393 12.5641 72.7545 13.4338 71.9854 14.0314C71.2161 14.6289 70.0653 14.9275 68.5334 14.9275C67.7479 14.9275 67.0784 14.8729 66.5248 14.7633C65.9711 14.6537 65.4529 14.4928 64.9702 14.2803V11.7707C65.5173 12.0363 66.1337 12.2587 66.8194 12.438C67.505 12.6172 68.1085 12.7068 68.6299 12.7068C69.6984 12.7068 70.2328 12.3882 70.2328 11.7508C70.2328 11.5118 70.1619 11.3176 70.0204 11.1682C69.8788 11.0188 69.6341 10.8495 69.2864 10.6603C68.939 10.4711 68.4754 10.2505 67.896 9.99803C67.0655 9.63949 66.4555 9.30762 66.0662 9.00221C65.6765 8.69691 65.3934 8.34667 65.2164 7.9516C65.0393 7.55663 64.9508 7.07024 64.9508 6.49262C64.9508 5.50344 65.3226 4.73842 66.0662 4.19712C66.8096 3.65615 67.8638 3.3855 69.2285 3.3855C70.5289 3.3855 71.7938 3.67785 73.0234 4.26188L72.1352 6.45277C71.5943 6.21378 71.089 6.01807 70.619 5.8652C70.1491 5.71255 69.6694 5.63617 69.1803 5.63617C68.3112 5.63617 67.8767 5.87859 67.8767 6.36322C67.8767 6.63553 68.0168 6.87109 68.2967 7.07024C68.5768 7.26938 69.1899 7.56494 70.1362 7.95658C70.9795 8.30859 71.5975 8.63714 71.9903 8.94244C72.3828 9.24785 72.6725 9.59975 72.8594 9.99803C73.0459 10.3964 73.1393 10.8711 73.1393 11.4221" fill="#0078DB"/>
<path fill-rule="evenodd" clip-rule="evenodd" d="M5.31996 2.46974C4.70194 2.46974 4.2192 2.68881 3.8715 3.12694C3.52392 3.56519 3.35012 4.19604 3.35012 5.01918C3.35012 5.72298 3.50776 6.28056 3.82324 6.69224C4.13861 7.10392 4.61826 7.30959 5.26207 7.30959C5.86702 7.30959 6.3853 7.10547 6.81668 6.69711C7.24784 6.28886 7.46359 5.81918 7.46359 5.28795C7.46359 4.49802 7.26234 3.83075 6.86007 3.28634C6.45769 2.74205 5.94429 2.46974 5.31996 2.46974M10.428 6.3834C10.428 9.25153 9.84222 11.3925 8.67062 12.8066C7.4989 14.2208 5.72555 14.9278 3.35012 14.9278C2.51315 14.9278 1.87909 14.8813 1.44781 14.7884V12.3187C1.98856 12.4582 2.55488 12.5278 3.14733 12.5278C4.14503 12.5278 4.96584 12.3769 5.60965 12.0747C6.25324 11.7727 6.74572 11.298 7.087 10.6506C7.42817 10.0034 7.62443 9.11205 7.67601 7.97686H7.56011C7.18674 8.60097 6.75536 9.0391 6.26619 9.29138C5.77691 9.54377 5.16543 9.66974 4.43162 9.66974C3.2019 9.66974 2.23309 9.26315 1.52508 8.44987C0.816847 7.6367 0.462952 6.50638 0.462952 5.05903C0.462952 3.49888 0.892563 2.26562 1.75201 1.35935C2.61134 0.453189 3.78129 0 5.26207 0C6.30482 0 7.2174 0.252387 7.99958 0.756829C8.78165 1.26149 9.38184 1.99341 9.80038 2.95271C10.2188 3.91222 10.428 5.05571 10.428 6.3834" fill="#0078DB"/>
<path fill-rule="evenodd" clip-rule="evenodd" d="M16.608 2.46974C15.99 2.46974 15.5073 2.68881 15.1596 3.12694C14.812 3.56519 14.6382 4.19604 14.6382 5.01918C14.6382 5.72298 14.7958 6.28056 15.1113 6.69224C15.4267 7.10392 15.9063 7.30959 16.5502 7.30959C17.1551 7.30959 17.6734 7.10547 18.1048 6.69711C18.5359 6.28886 18.7517 5.81918 18.7517 5.28795C18.7517 4.49802 18.5504 3.83075 18.1482 3.28634C17.7458 2.74205 17.2324 2.46974 16.608 2.46974M21.7161 6.3834C21.7161 9.25153 21.1303 11.3925 19.9587 12.8066C18.787 14.2208 17.0136 14.9278 14.6382 14.9278C13.8012 14.9278 13.1672 14.8813 12.7359 14.7884V12.3187C13.2766 12.4582 13.843 12.5278 14.4354 12.5278C15.4331 12.5278 16.2539 12.3769 16.8977 12.0747C17.5413 11.7727 18.0338 11.298 18.3751 10.6506C18.7163 10.0034 18.9125 9.11205 18.9641 7.97686H18.8482C18.4748 8.60097 18.0434 9.0391 17.5543 9.29138C17.065 9.54377 16.4535 9.66974 15.7197 9.66974C14.49 9.66974 13.5212 9.26315 12.8132 8.44987C12.1049 7.6367 11.751 6.50638 11.751 5.05903C11.751 3.49888 12.1806 2.26562 13.0401 1.35935C13.8994 0.453189 15.0694 0 16.5502 0C17.5929 0 18.5055 0.252387 19.2877 0.756829C20.0697 1.26149 20.6699 1.99341 21.0885 2.95271C21.5069 3.91222 21.7161 5.05571 21.7161 6.3834" fill="#0078DB"/>
</svg>
