<svg width="90" height="20" viewBox="0 0 90 20" fill="none" xmlns="http://www.w3.org/2000/svg">
<path fill-rule="evenodd" clip-rule="evenodd" d="M26.6353 3C28.6891 3 30.5119 4.02567 31.6543 5.611L30.017 7.3093C29.3128 6.14093 28.0626 5.3635 26.636 5.3635C24.4346 5.3635 22.6503 7.21565 22.6503 9.49963C22.6503 11.7843 24.4346 13.6365 26.6353 13.6365C27.1183 13.6365 27.5803 13.5473 28.0087 13.3838V15.8432C27.5663 15.9457 27.1071 15.9993 26.6353 15.9993C23.1774 15.9993 20.3725 13.0895 20.3725 9.49963C20.3725 5.90978 23.1767 3 26.6353 3ZM19.5185 3V5.3635H18.9494V13.6358H19.5185V15.9993H16.1026V13.6358H16.6717V5.3635H16.1026V3H19.5185ZM11.3125 3C12.87 3 14.1804 4.22635 14.3834 5.85627L14.3946 5.95438C14.4849 6.89234 14.2 7.87714 13.5406 8.90875C14.7397 9.99909 15.3116 11.1422 15.2556 12.3388L15.2486 12.4547C15.0876 14.4593 13.5077 16 11.6128 16H5V3H11.3125ZM32.0456 9.20456V15.4091H30.7464C30.206 15.4091 29.7678 14.9439 29.7678 14.3701V11.5681H27.0455C26.5051 11.5681 26.0669 11.1028 26.0669 10.529V9.20456H32.0449H32.0456ZM11.295 10.6814H7.27707V13.6365H11.295C12.0636 13.6365 12.6866 12.975 12.6866 12.1589C12.6866 11.3689 12.1021 10.723 11.3664 10.6836L11.295 10.6814ZM10.7259 5.3635H7.27777V8.31788H10.7259C11.4938 8.31788 12.1168 7.6564 12.1168 6.84106C12.1168 6.05025 11.5323 5.40512 10.7973 5.36573L10.7259 5.3635Z" fill="#FFA800"/>
<path d="M39.901 3.51294C40.629 3.51294 41.357 3.61328 42.0843 3.81321C42.8333 4.01983 43.5543 4.40483 44.2473 4.96671L44.6274 5.27441L43.7496 6.20718L43.4584 5.97306C43.1994 5.76495 42.9201 5.58509 42.6212 5.43495C42.3174 5.28185 42.0101 5.15921 41.6993 5.06556C41.3829 4.97117 41.0714 4.90057 40.7648 4.853C40.4589 4.80617 40.1796 4.78313 39.9269 4.78313C39.6945 4.78313 39.425 4.80023 39.1177 4.83516C38.8188 4.86861 38.5192 4.92806 38.219 5.01354C37.9292 5.09529 37.6527 5.20975 37.3902 5.35766C37.1473 5.49441 36.9471 5.6661 36.7805 5.8809C36.7126 5.96488 36.6517 6.08157 36.5992 6.23393C36.5474 6.38555 36.5222 6.5342 36.5222 6.68136C36.5222 6.94967 36.5803 7.16744 36.6937 7.34508C36.8274 7.55393 36.9947 7.73379 37.1977 7.88467C37.4126 8.04521 37.6436 8.17602 37.8893 8.27635C38.1574 8.38561 38.4016 8.4748 38.6144 8.54243C38.7138 8.57142 38.8104 8.59892 38.9063 8.62419L39.1583 8.68885L39.3634 8.74459L39.4551 8.77209L41.3171 9.29013C41.7525 9.41276 42.1627 9.5577 42.5477 9.72344C42.9502 9.89736 43.3037 10.1099 43.6096 10.3634C43.9246 10.625 44.1787 10.9319 44.3691 11.282C44.5693 11.6514 44.6687 12.0728 44.6687 12.5388C44.6687 13.1483 44.4986 13.6775 44.1598 14.1056C43.8469 14.4995 43.4528 14.8176 42.981 15.0569C42.5274 15.2888 42.029 15.4553 41.4879 15.5571C40.9601 15.6575 40.4568 15.7072 39.978 15.7072C39.6196 15.7072 39.2486 15.6835 38.865 15.6366C38.4765 15.5883 38.0888 15.5095 37.7017 15.3988C37.3153 15.2895 36.9317 15.1491 36.5502 14.9774C36.1596 14.802 35.7865 14.5835 35.4295 14.3204L35.0088 14.0112L35.9426 13.0598L36.2226 13.2605C36.4921 13.4538 36.7861 13.6247 37.1046 13.7733C37.4294 13.9242 37.7577 14.0483 38.0895 14.1479C38.4219 14.2468 38.7495 14.3196 39.0729 14.3672C39.397 14.414 39.6945 14.4378 39.9654 14.4378C40.2566 14.4378 40.5611 14.4185 40.8796 14.3791C41.1904 14.3412 41.4935 14.278 41.7882 14.1888C42.0738 14.1026 42.337 13.9881 42.5778 13.8469C42.8039 13.7131 42.9929 13.5496 43.1497 13.3534C43.2197 13.2672 43.2813 13.1527 43.3331 13.0071C43.3835 12.8673 43.4087 12.7209 43.4087 12.5663C43.4087 12.2936 43.3527 12.0728 43.2442 11.8937C43.1161 11.6826 42.9628 11.505 42.7836 11.3593C42.5932 11.2047 42.3888 11.0784 42.169 10.9795C41.9681 10.8888 41.7896 10.816 41.6279 10.7565L41.4004 10.6763C41.3423 10.6562 41.2863 10.6391 41.231 10.622L41.049 10.5707L40.7704 10.489L38.5514 9.87654C38.1056 9.75391 37.6926 9.60898 37.3104 9.44175C36.9135 9.26858 36.567 9.06047 36.2709 8.81743C35.9587 8.56101 35.7144 8.2548 35.5408 7.9025C35.3623 7.54055 35.2748 7.1221 35.2748 6.65386C35.2748 6.05704 35.4358 5.53603 35.7578 5.10942C36.0588 4.71104 36.4452 4.39293 36.9107 4.15584C37.3559 3.9299 37.8452 3.76564 38.3771 3.66307C38.8972 3.56348 39.4054 3.51294 39.901 3.51294ZM46.8624 3.71733V9.07087H53.3381V3.71733H54.5722V15.5029H53.3388V10.3403H46.8631V15.5029H45.6284V3.71733H46.8631H46.8624ZM56.7547 3.71733L60.5585 9.17493L64.3377 3.71733H65.8805L61.1696 10.4652V15.5029H59.9488V10.4652L55.2386 3.71733H56.7547ZM67.781 4.98752V8.90736H74.2594V10.1768H67.781V15.5029H66.5462V3.71733H84.3001V4.98752H80.182V15.5029H78.9606V4.98752H67.781Z" fill="black"/>
</svg>
