<svg width="102" height="20" viewBox="0 0 102 20" fill="none" xmlns="http://www.w3.org/2000/svg">
<path d="M37.9818 3.66488C38.8053 3.66488 39.4614 3.93666 39.9501 4.48021C40.4442 5.01828 40.6913 5.72929 40.6913 6.61325V11.5053H38.6735V6.81915C38.6735 6.31951 38.5528 5.9242 38.3112 5.63321C38.0751 5.34221 37.7512 5.19672 37.3394 5.19672C37.0264 5.19672 36.7327 5.29006 36.4581 5.47673C36.1836 5.65792 35.8817 5.96264 35.5522 6.39089V11.5053H33.5262V3.81312H35.5522V4.892C35.9256 4.45276 36.3072 4.1398 36.697 3.95313C37.0923 3.76096 37.5206 3.66488 37.9818 3.66488Z" fill="#D3710C"/>
<path d="M45.5106 3.66488C46.4989 3.66488 47.2538 3.87626 47.7754 4.29903C48.297 4.7163 48.5578 5.30104 48.5578 6.05323V9.81694C48.5578 10.1079 48.6758 10.2534 48.9119 10.2534C49.0107 10.2534 49.148 10.2122 49.3237 10.1299C49.5049 10.042 49.6559 9.94322 49.7767 9.83341V11.0029C49.0684 11.4366 48.4205 11.6535 47.833 11.6535C47.4707 11.6535 47.1907 11.5931 46.993 11.4723C46.8008 11.3515 46.6663 11.1374 46.5894 10.8299C45.8153 11.379 45.0384 11.6535 44.2587 11.6535C43.7042 11.6535 43.2265 11.4668 42.8257 11.0935C42.4304 10.7201 42.2328 10.2726 42.2328 9.75105C42.2328 9.08671 42.4304 8.56237 42.8257 8.17803C43.2211 7.7937 43.9129 7.45878 44.9011 7.17328L46.54 6.69561V6.34148C46.54 5.58929 46.0843 5.21319 45.1729 5.21319C44.7062 5.21319 44.2423 5.32025 43.7811 5.53438C43.3199 5.74851 42.8999 6.06421 42.521 6.48148V4.6614C43.3611 3.99705 44.3576 3.66488 45.5106 3.66488ZM44.2752 9.44633C44.2752 9.72634 44.3631 9.95145 44.5388 10.1217C44.7199 10.2919 44.9423 10.377 45.2059 10.377C45.6506 10.377 46.0953 10.1738 46.54 9.76752V7.74154C45.9745 7.93371 45.5298 8.11489 45.2059 8.2851C44.8874 8.4553 44.6513 8.62825 44.4976 8.80395C44.3493 8.97964 44.2752 9.19377 44.2752 9.44633Z" fill="#D3710C"/>
<path d="M52.9406 3.81312V8.57335C52.9406 9.07298 53.0641 9.45457 53.3112 9.71811C53.5637 9.97616 53.8959 10.1052 54.3077 10.1052C54.6481 10.1052 54.9748 10.0009 55.2877 9.79223C55.6007 9.58359 55.8533 9.28985 56.0454 8.91101V3.81312H58.0714V11.5053H56.0454V10.4593C55.3152 11.2554 54.5246 11.6535 53.6735 11.6535C52.85 11.6535 52.1856 11.3845 51.6805 10.8464C51.1754 10.3083 50.9228 9.60555 50.9228 8.73806V3.81312H52.9406Z" fill="#D3710C"/>
<path d="M62.2154 0V11.5053H60.1894V0H62.2154ZM67.7992 3.81312L64.6778 7.60977L68.1862 11.5053H65.6167L62.2483 7.60977L65.419 3.81312H67.7992Z" fill="#D3710C"/>
<path d="M73.4255 3.66488C73.6946 3.66488 73.9581 3.72527 74.2162 3.84606C74.4797 3.96685 74.7844 4.17 75.1303 4.45551L74.4056 6.22618C73.8181 5.78694 73.3459 5.56732 72.989 5.56732C72.6761 5.56732 72.3659 5.68537 72.0584 5.92146C71.7564 6.15206 71.5121 6.45952 71.3254 6.84385C71.1442 7.22819 71.0537 7.61252 71.0537 7.99685V11.5053H69.0277V3.81312H71.0537V5.77322H71.0866C71.4545 5.032 71.8251 4.49668 72.1984 4.16726C72.5718 3.83234 72.9808 3.66488 73.4255 3.66488Z" fill="#D3710C"/>
<path d="M77.2483 0.255306C77.5613 0.255306 77.8303 0.367861 78.0554 0.592969C78.2805 0.818078 78.3931 1.08711 78.3931 1.40007C78.3931 1.70204 78.2805 1.97107 78.0554 2.20716C77.8358 2.43776 77.5667 2.55306 77.2483 2.55306C76.9408 2.55306 76.6718 2.43776 76.4412 2.20716C76.2161 1.97107 76.1035 1.70204 76.1035 1.40007C76.1035 1.08162 76.2188 0.812588 76.4494 0.592969C76.68 0.367861 76.9463 0.255306 77.2483 0.255306ZM78.2613 3.81312V11.5053H76.2353V3.81312H78.2613Z" fill="#D3710C"/>
<path d="M7.0168 0V1.73773H2.22363V4.71081H7.0168V6.46501H2.22363V11.5053H0V0H7.0168Z" fill="#6A38A0"/>
<path d="M9.95835 0.255306C10.2713 0.255306 10.5403 0.367861 10.7654 0.592969C10.9906 0.818078 11.1031 1.08711 11.1031 1.40007C11.1031 1.70204 10.9906 1.97107 10.7654 2.20716C10.5458 2.43776 10.2768 2.55306 9.95835 2.55306C9.65089 2.55306 9.38185 2.43776 9.15125 2.20716C8.92615 1.97107 8.81359 1.70204 8.81359 1.40007C8.81359 1.08162 8.92889 0.812588 9.15949 0.592969C9.39009 0.367861 9.65638 0.255306 9.95835 0.255306ZM10.9713 3.81312V11.5053H8.94536V3.81312H10.9713Z" fill="#6A38A0"/>
<path d="M17.5531 3.66488C17.8221 3.66488 18.0856 3.72527 18.3437 3.84606C18.6072 3.96685 18.9119 4.17 19.2578 4.45551L18.5331 6.22618C17.9456 5.78694 17.4734 5.56732 17.1166 5.56732C16.8036 5.56732 16.4934 5.68537 16.1859 5.92146C15.884 6.15206 15.6396 6.45952 15.453 6.84385C15.2718 7.22819 15.1812 7.61252 15.1812 7.99685V11.5053H13.1552V3.81312H15.1812V5.77322H15.2141C15.582 5.032 15.9526 4.49668 16.3259 4.16726C16.6993 3.83234 17.1083 3.66488 17.5531 3.66488Z" fill="#6A38A0"/>
<path d="M22.7924 3.66488C23.2151 3.66488 23.6132 3.71429 23.9865 3.81312C24.3599 3.90646 24.7552 4.05745 25.1725 4.26608V5.88851C24.7881 5.64144 24.3764 5.44379 23.9371 5.29555C23.4979 5.14181 23.1053 5.06495 22.7594 5.06495C22.4684 5.06495 22.2406 5.11985 22.0759 5.22966C21.9111 5.33947 21.8288 5.49595 21.8288 5.69909C21.8288 5.81439 21.8974 5.92969 22.0347 6.04499C22.1719 6.16029 22.548 6.37167 23.163 6.67914C24.0414 7.12387 24.6564 7.53565 25.0078 7.91449C25.3646 8.28784 25.5431 8.73806 25.5431 9.26514C25.5431 10.0064 25.285 10.5911 24.7689 11.0193C24.2528 11.4421 23.5555 11.6535 22.6771 11.6535C22.128 11.6535 21.6147 11.5931 21.137 11.4723C20.6648 11.3515 20.2722 11.206 19.9593 11.0358V9.3475C20.9476 9.89655 21.7794 10.1711 22.4547 10.1711C22.8006 10.1711 23.0806 10.1107 23.2947 9.98988C23.5089 9.8636 23.6159 9.69889 23.6159 9.49574C23.6159 9.37495 23.5775 9.26514 23.5006 9.16632C23.4238 9.06749 23.3085 8.96592 23.1547 8.8616C23.001 8.75728 22.5206 8.50746 21.7135 8.11215C21.0931 7.81566 20.6346 7.49447 20.3381 7.14857C20.0416 6.79718 19.8934 6.38266 19.8934 5.90499C19.8934 5.22417 20.1597 4.68061 20.6923 4.27432C21.2248 3.86803 21.9249 3.66488 22.7924 3.66488Z" fill="#6A38A0"/>
<path d="M29.3164 1.77067H29.4811V3.81312H32.1166V5.34496H29.4811V8.89454C29.4811 9.24044 29.5855 9.52045 29.7941 9.73458C30.0027 9.94871 30.2882 10.0558 30.6506 10.0558C31.1228 10.0558 31.6664 9.88557 32.2813 9.54516V11.1676C31.5511 11.4915 30.8647 11.6535 30.2224 11.6535C29.3549 11.6535 28.6768 11.4174 28.1881 10.9452C27.705 10.473 27.4634 9.83341 27.4634 9.02631V5.34496H26.261V5.01553L29.3164 1.77067Z" fill="#6A38A0"/>
<path d="M77.9579 10.359C78.1747 10.359 78.3596 10.4334 78.5126 10.5822C78.6656 10.7309 78.7421 10.9137 78.7421 11.1305C78.7421 11.343 78.6656 11.5216 78.5126 11.6661C78.3638 11.8106 78.1789 11.8829 77.9579 11.8829C77.7411 11.8829 77.5583 11.8106 77.4096 11.6661C77.2608 11.5216 77.1864 11.343 77.1864 11.1305C77.1864 10.9137 77.2608 10.7309 77.4096 10.5822C77.5583 10.4334 77.7411 10.359 77.9579 10.359Z" fill="#656565"/>
<path fill-rule="evenodd" clip-rule="evenodd" d="M77.9579 10.9031C77.8805 10.9031 77.8376 10.9236 77.7943 10.9669C77.751 11.0102 77.7305 11.0531 77.7305 11.1305C77.7305 11.2001 77.7483 11.2366 77.7887 11.2758C77.8309 11.3169 77.8756 11.3388 77.9579 11.3388C78.0476 11.3388 78.0934 11.3148 78.1335 11.2758L78.139 11.2705L78.139 11.2706C78.182 11.2299 78.1981 11.195 78.1981 11.1305C78.1981 11.0581 78.1792 11.0168 78.1334 10.9723C78.0837 10.924 78.0355 10.9031 77.9579 10.9031ZM77.0249 10.1975C77.2791 9.94324 77.6017 9.81494 77.9579 9.81494C78.3139 9.81494 78.6355 9.94284 78.8919 10.1921C79.1522 10.4451 79.2863 10.7694 79.2863 11.1305C79.2863 11.4898 79.1502 11.811 78.889 12.0591C78.632 12.3073 78.309 12.427 77.9579 12.427C77.6067 12.427 77.2858 12.3044 77.0305 12.0564C76.7733 11.8066 76.6423 11.486 76.6423 11.1305C76.6423 10.7743 76.7706 10.4517 77.0249 10.1975Z" fill="white"/>
<path d="M84.4784 10.41V11.5576C83.8961 11.7744 83.3265 11.8828 82.7696 11.8828C81.8515 11.8828 81.1183 11.6108 80.5699 11.0667C80.0258 10.5226 79.7538 9.79362 79.7538 8.87972C79.7538 7.95732 80.0195 7.21345 80.5508 6.64811C81.0821 6.08278 81.7814 5.80011 82.6485 5.80011C82.9503 5.80011 83.2202 5.82986 83.4582 5.88937C83.7005 5.94463 83.9981 6.0509 84.3509 6.20817V7.44512C83.7643 7.07106 83.2202 6.88403 82.7186 6.88403C82.1958 6.88403 81.7665 7.06893 81.4307 7.43874C81.0949 7.8043 80.927 8.27187 80.927 8.84146C80.927 9.44081 81.1076 9.91688 81.4689 10.2697C81.8345 10.6225 82.3254 10.7989 82.9418 10.7989C83.3881 10.7989 83.9003 10.6693 84.4784 10.41Z" fill="#656565"/>
<path d="M88.6813 5.90212C89.5739 5.90212 90.3157 6.19117 90.9065 6.76926C91.4974 7.3431 91.7928 8.06572 91.7928 8.9371C91.7928 9.78299 91.4931 10.4865 90.8938 11.0476C90.2944 11.6044 89.5399 11.8828 88.6303 11.8828C87.7504 11.8828 87.015 11.6002 86.4242 11.0348C85.8333 10.4652 85.5379 9.75536 85.5379 8.90522C85.5379 8.04659 85.8355 7.33247 86.4306 6.76288C87.0299 6.18904 87.7801 5.90212 88.6813 5.90212ZM88.6175 6.94779C88.0607 6.94779 87.6037 7.13057 87.2467 7.49612C86.8896 7.86168 86.7111 8.32713 86.7111 8.89247C86.7111 9.45356 86.8939 9.91263 87.2594 10.2697C87.625 10.6225 88.0947 10.7989 88.6685 10.7989C89.2381 10.7989 89.7036 10.6204 90.0649 10.2633C90.4304 9.90201 90.6132 9.44081 90.6132 8.87972C90.6132 8.32288 90.4241 7.86168 90.0458 7.49612C89.6674 7.13057 89.1914 6.94779 88.6175 6.94779Z" fill="#656565"/>
<path d="M97.9595 7.52163V11.7808H96.7927V8.51629C96.7927 7.86593 96.7055 7.41324 96.5313 7.1582C96.357 6.8989 96.0531 6.76926 95.6195 6.76926C95.3772 6.76926 95.154 6.82452 94.95 6.93504C94.7502 7.04555 94.5207 7.24108 94.2614 7.52163V11.7808H93.101V5.91487H94.2614V6.68637C94.8522 6.09553 95.4303 5.80011 95.9957 5.80011C96.7395 5.80011 97.3155 6.15291 97.7236 6.85852C98.3442 6.14441 98.9924 5.78735 99.6683 5.78735C100.238 5.78735 100.705 5.99564 101.071 6.4122C101.441 6.82877 101.626 7.46424 101.626 8.31863V11.7808H100.465V8.30588C100.465 7.81705 100.365 7.44299 100.166 7.1837C99.9658 6.92441 99.6789 6.79476 99.3048 6.79476C98.8245 6.79476 98.376 7.03705 97.9595 7.52163Z" fill="#656565"/>
<path d="M34.9892 18.642L34.4869 17.3585H32.8694L32.3726 18.642H31.8978L33.4932 14.59H33.8879L35.475 18.642H34.9892ZM34.3406 16.9362L33.8714 15.6858C33.8106 15.5276 33.7481 15.3334 33.6837 15.1034C33.6432 15.2801 33.5852 15.4742 33.5098 15.6858L33.035 16.9362H34.3406Z" fill="#666666"/>
<path d="M36.9208 20C36.746 20 36.6043 19.977 36.4957 19.931V19.5584C36.6227 19.5952 36.7478 19.6136 36.8711 19.6136C37.0146 19.6136 37.1195 19.574 37.1858 19.4949C37.2539 19.4176 37.2879 19.2989 37.2879 19.1388V15.6168H37.7461V19.1057C37.7461 19.7019 37.471 20 36.9208 20ZM37.2493 14.797C37.2493 14.6922 37.275 14.6158 37.3265 14.5679C37.3781 14.5183 37.4425 14.4934 37.5198 14.4934C37.5934 14.4934 37.6568 14.5183 37.7102 14.5679C37.7636 14.6176 37.7903 14.694 37.7903 14.797C37.7903 14.9001 37.7636 14.9774 37.7102 15.0289C37.6568 15.0786 37.5934 15.1034 37.5198 15.1034C37.4425 15.1034 37.3781 15.0786 37.3265 15.0289C37.275 14.9774 37.2493 14.9001 37.2493 14.797Z" fill="#666666"/>
<path d="M41.2581 17.1266C41.2581 17.6198 41.1339 18.0053 40.8855 18.2831C40.6371 18.5592 40.2939 18.6972 39.856 18.6972C39.5855 18.6972 39.3453 18.6337 39.1356 18.5067C38.9258 18.3798 38.7639 18.1976 38.6498 17.9602C38.5357 17.7228 38.4786 17.445 38.4786 17.1266C38.4786 16.6335 38.6019 16.2498 38.8485 15.9756C39.0951 15.6996 39.4373 15.5616 39.8753 15.5616C40.2985 15.5616 40.6343 15.7024 40.8828 15.9839C41.133 16.2655 41.2581 16.6464 41.2581 17.1266ZM38.9534 17.1266C38.9534 17.5131 39.0307 17.8075 39.1853 18.0099C39.3398 18.2123 39.5671 18.3135 39.867 18.3135C40.167 18.3135 40.3942 18.2132 40.5488 18.0127C40.7052 17.8102 40.7834 17.5149 40.7834 17.1266C40.7834 16.742 40.7052 16.4504 40.5488 16.2517C40.3942 16.0511 40.1651 15.9508 39.8615 15.9508C39.5616 15.9508 39.3352 16.0492 39.1825 16.2461C39.0298 16.443 38.9534 16.7365 38.9534 17.1266Z" fill="#666666"/>
<path d="M43.4012 15.5671C43.7986 15.5671 44.1068 15.7033 44.3258 15.9756C44.5466 16.2461 44.657 16.6298 44.657 17.1266C44.657 17.6235 44.5457 18.0099 44.3231 18.2859C44.1022 18.5601 43.7949 18.6972 43.4012 18.6972C43.2043 18.6972 43.0239 18.6613 42.8602 18.5895C42.6982 18.5159 42.5621 18.4037 42.4516 18.2528H42.4185L42.3219 18.642H41.9935V14.3471H42.4516V15.3905C42.4516 15.6242 42.4443 15.834 42.4296 16.0198H42.4516C42.6651 15.718 42.9816 15.5671 43.4012 15.5671ZM43.3349 15.9508C43.0221 15.9508 42.7967 16.041 42.6587 16.2213C42.5207 16.3998 42.4516 16.7016 42.4516 17.1266C42.4516 17.5517 42.5225 17.8562 42.6642 18.0403C42.8059 18.2224 43.0331 18.3135 43.3459 18.3135C43.6275 18.3135 43.8373 18.2114 43.9753 18.0071C44.1133 17.801 44.1823 17.5057 44.1823 17.1211C44.1823 16.7273 44.1133 16.4338 43.9753 16.2406C43.8373 16.0474 43.6238 15.9508 43.3349 15.9508Z" fill="#666666"/>
<path d="M47.341 17.8167C47.341 18.0982 47.2361 18.3154 47.0264 18.4681C46.8166 18.6208 46.5222 18.6972 46.1431 18.6972C45.742 18.6972 45.4291 18.6337 45.2047 18.5067V18.0817C45.35 18.1553 45.5055 18.2132 45.6711 18.2555C45.8386 18.2979 45.9996 18.319 46.1542 18.319C46.3934 18.319 46.5774 18.2813 46.7062 18.2059C46.835 18.1286 46.8994 18.0117 46.8994 17.8553C46.8994 17.7376 46.8479 17.6373 46.7448 17.5545C46.6436 17.4698 46.4449 17.3705 46.1486 17.2564C45.8671 17.1515 45.6665 17.0604 45.5469 16.9831C45.4291 16.904 45.3408 16.8147 45.2819 16.7154C45.2249 16.616 45.1964 16.4973 45.1964 16.3593C45.1964 16.1127 45.2967 15.9186 45.4972 15.7769C45.6978 15.6334 45.9729 15.5616 46.3225 15.5616C46.6482 15.5616 46.9666 15.6279 47.2775 15.7603L47.1147 16.133C46.8111 16.0078 46.536 15.9453 46.2894 15.9453C46.0723 15.9453 45.9085 15.9793 45.7981 16.0474C45.6877 16.1155 45.6325 16.2093 45.6325 16.3289C45.6325 16.4099 45.6527 16.4789 45.6932 16.536C45.7355 16.593 45.8027 16.6473 45.8947 16.6988C45.9867 16.7503 46.1634 16.8249 46.4247 16.9224C46.7835 17.053 47.0255 17.1846 47.1506 17.3171C47.2775 17.4496 47.341 17.6161 47.341 17.8167Z" fill="#666666"/>
<path d="M48.4766 18.642H48.0184V15.6168H48.4766V18.642ZM47.9797 14.797C47.9797 14.6922 48.0055 14.6158 48.057 14.5679C48.1085 14.5183 48.1729 14.4934 48.2502 14.4934C48.3238 14.4934 48.3873 14.5183 48.4407 14.5679C48.494 14.6176 48.5207 14.694 48.5207 14.797C48.5207 14.9001 48.494 14.9774 48.4407 15.0289C48.3873 15.0786 48.3238 15.1034 48.2502 15.1034C48.1729 15.1034 48.1085 15.0786 48.057 15.0289C48.0055 14.9774 47.9797 14.9001 47.9797 14.797Z" fill="#666666"/>
<path d="M50.3546 18.319C50.4356 18.319 50.5138 18.3135 50.5892 18.3025C50.6647 18.2896 50.7245 18.2767 50.7686 18.2638V18.6144C50.7189 18.6383 50.6453 18.6576 50.5478 18.6723C50.4521 18.6889 50.3656 18.6972 50.2883 18.6972C49.7032 18.6972 49.4106 18.389 49.4106 17.7725V15.9729H48.9773V15.7521L49.4106 15.5616L49.6038 14.9157H49.8688V15.6168H50.7465V15.9729H49.8688V17.7532C49.8688 17.9354 49.912 18.0752 49.9985 18.1727C50.085 18.2703 50.2037 18.319 50.3546 18.319Z" fill="#666666"/>
<path d="M52.5832 18.6972C52.136 18.6972 51.7827 18.561 51.5233 18.2887C51.2656 18.0163 51.1368 17.6382 51.1368 17.1542C51.1368 16.6666 51.2564 16.2793 51.4957 15.9922C51.7367 15.7051 52.0596 15.5616 52.4645 15.5616C52.8435 15.5616 53.1435 15.6867 53.3643 15.937C53.5851 16.1854 53.6955 16.5139 53.6955 16.9224V17.2122H51.6116C51.6208 17.5673 51.71 17.8369 51.8793 18.0209C52.0504 18.2049 52.2906 18.297 52.5997 18.297C52.9254 18.297 53.2474 18.2289 53.5658 18.0927V18.5012C53.4039 18.5711 53.2502 18.6208 53.1048 18.6503C52.9613 18.6815 52.7874 18.6972 52.5832 18.6972ZM52.459 15.9453C52.2161 15.9453 52.0219 16.0244 51.8766 16.1827C51.733 16.3409 51.6484 16.5599 51.6226 16.8396H53.2042C53.2042 16.5507 53.1398 16.3299 53.011 16.1771C52.8822 16.0226 52.6982 15.9453 52.459 15.9453Z" fill="#666666"/>
<path d="M57.17 15.9729H56.3999V18.642H55.9417V15.9729H55.4008V15.7659L55.9417 15.6003V15.4319C55.9417 14.6885 56.2665 14.3168 56.9161 14.3168C57.0762 14.3168 57.2639 14.349 57.4792 14.4134L57.3605 14.7805C57.1838 14.7234 57.0329 14.6949 56.9078 14.6949C56.7348 14.6949 56.607 14.7529 56.5241 14.8688C56.4413 14.9829 56.3999 15.1669 56.3999 15.4208V15.6168H57.17V15.9729Z" fill="#666666"/>
<path d="M60.2625 17.1266C60.2625 17.6198 60.1383 18.0053 59.8899 18.2831C59.6415 18.5592 59.2983 18.6972 58.8604 18.6972C58.5899 18.6972 58.3497 18.6337 58.14 18.5067C57.9302 18.3798 57.7683 18.1976 57.6542 17.9602C57.5401 17.7228 57.483 17.445 57.483 17.1266C57.483 16.6335 57.6063 16.2498 57.8529 15.9756C58.0995 15.6996 58.4417 15.5616 58.8797 15.5616C59.3029 15.5616 59.6387 15.7024 59.8872 15.9839C60.1374 16.2655 60.2625 16.6464 60.2625 17.1266ZM57.9578 17.1266C57.9578 17.5131 58.0351 17.8075 58.1896 18.0099C58.3442 18.2123 58.5715 18.3135 58.8714 18.3135C59.1713 18.3135 59.3986 18.2132 59.5532 18.0127C59.7096 17.8102 59.7878 17.5149 59.7878 17.1266C59.7878 16.742 59.7096 16.4504 59.5532 16.2517C59.3986 16.0511 59.1695 15.9508 58.8659 15.9508C58.5659 15.9508 58.3396 16.0492 58.1869 16.2461C58.0342 16.443 57.9578 16.7365 57.9578 17.1266Z" fill="#666666"/>
<path d="M62.3779 15.5616C62.5123 15.5616 62.6328 15.5727 62.7395 15.5947L62.676 16.0198C62.5509 15.9922 62.4405 15.9784 62.3448 15.9784C62.1001 15.9784 61.8903 16.0778 61.7155 16.2765C61.5425 16.4752 61.456 16.7227 61.456 17.019V18.642H60.9978V15.6168H61.376L61.4284 16.1771H61.4505C61.5628 15.9802 61.698 15.8284 61.8563 15.7217C62.0145 15.615 62.1884 15.5616 62.3779 15.5616Z" fill="#666666"/>
<path d="M65.8414 18.6972C65.4035 18.6972 65.064 18.5628 64.8229 18.2942C64.5837 18.0237 64.4641 17.6419 64.4641 17.1487C64.4641 16.6427 64.5855 16.2517 64.8284 15.9756C65.0732 15.6996 65.4209 15.5616 65.8718 15.5616C66.0171 15.5616 66.1625 15.5773 66.3079 15.6085C66.4532 15.6398 66.5673 15.6766 66.6501 15.7189L66.5094 16.1081C66.4082 16.0676 66.2978 16.0345 66.1781 16.0088C66.0585 15.9812 65.9527 15.9674 65.8607 15.9674C65.2461 15.9674 64.9388 16.3593 64.9388 17.1432C64.9388 17.5149 65.0134 17.8001 65.1624 17.9989C65.3133 18.1976 65.5359 18.297 65.8304 18.297C66.0825 18.297 66.341 18.2427 66.606 18.1341V18.5398C66.4036 18.6447 66.1487 18.6972 65.8414 18.6972Z" fill="#666666"/>
<path d="M69.1161 18.642L69.025 18.2114H69.0029C68.852 18.4009 68.7011 18.5297 68.5502 18.5978C68.4012 18.6641 68.2144 18.6972 67.9899 18.6972C67.69 18.6972 67.4545 18.6199 67.2833 18.4653C67.114 18.3108 67.0294 18.0909 67.0294 17.8056C67.0294 17.1947 67.5179 16.8745 68.495 16.8451L69.0084 16.8285V16.6408C69.0084 16.4035 68.9569 16.2287 68.8539 16.1164C68.7527 16.0023 68.5898 15.9453 68.3653 15.9453C68.1132 15.9453 67.828 16.0226 67.5097 16.1771L67.3689 15.8266C67.5179 15.7456 67.6808 15.6821 67.8574 15.6361C68.0359 15.5901 68.2144 15.5671 68.3929 15.5671C68.7536 15.5671 69.0204 15.6472 69.1934 15.8073C69.3682 15.9674 69.4556 16.2241 69.4556 16.5774V18.642H69.1161ZM68.081 18.319C68.3662 18.319 68.5898 18.2408 68.7517 18.0844C68.9155 17.928 68.9974 17.709 68.9974 17.4275V17.1542L68.5392 17.1736C68.1749 17.1864 67.9117 17.2435 67.7498 17.3447C67.5897 17.4441 67.5097 17.5995 67.5097 17.8112C67.5097 17.9768 67.5593 18.1028 67.6587 18.1893C67.7599 18.2758 67.9007 18.319 68.081 18.319Z" fill="#666666"/>
<path d="M74.1876 18.642V16.674C74.1876 16.4329 74.1361 16.2526 74.0331 16.133C73.93 16.0115 73.7699 15.9508 73.5528 15.9508C73.2676 15.9508 73.0569 16.0327 72.9207 16.1965C72.7845 16.3602 72.7165 16.6123 72.7165 16.9527V18.642H72.2583V16.674C72.2583 16.4329 72.2068 16.2526 72.1037 16.133C72.0007 16.0115 71.8396 15.9508 71.6207 15.9508C71.3336 15.9508 71.1229 16.0373 70.9886 16.2103C70.8561 16.3814 70.7899 16.6629 70.7899 17.0549V18.642H70.3317V15.6168H70.7043L70.7788 16.0308H70.8009C70.8874 15.8836 71.0088 15.7686 71.1652 15.6858C71.3235 15.603 71.5001 15.5616 71.6952 15.5616C72.1681 15.5616 72.4772 15.7327 72.6226 16.075H72.6447C72.7349 15.9168 72.8655 15.7916 73.0366 15.6996C73.2078 15.6076 73.4028 15.5616 73.6218 15.5616C73.9641 15.5616 74.2198 15.6499 74.3891 15.8266C74.5603 16.0014 74.6458 16.282 74.6458 16.6684V18.642H74.1876Z" fill="#666666"/>
<path d="M76.9296 18.6972C76.7327 18.6972 76.5524 18.6613 76.3886 18.5895C76.2267 18.5159 76.0905 18.4037 75.9801 18.2528H75.947C75.9691 18.4294 75.9801 18.5969 75.9801 18.7551V20H75.5219V15.6168H75.8945L75.958 16.0308H75.9801C76.0979 15.8652 76.235 15.7456 76.3914 15.672C76.5478 15.5984 76.7272 15.5616 76.9296 15.5616C77.3307 15.5616 77.6399 15.6987 77.857 15.9729C78.076 16.2471 78.1855 16.6316 78.1855 17.1266C78.1855 17.6235 78.0742 18.0099 77.8515 18.2859C77.6307 18.5601 77.3234 18.6972 76.9296 18.6972ZM76.8634 15.9508C76.5542 15.9508 76.3306 16.0364 76.1926 16.2075C76.0546 16.3786 75.9838 16.651 75.9801 17.0245V17.1266C75.9801 17.5517 76.0509 17.8562 76.1926 18.0403C76.3343 18.2224 76.5616 18.3135 76.8744 18.3135C77.1357 18.3135 77.3399 18.2077 77.4872 17.9961C77.6362 17.7845 77.7107 17.4928 77.7107 17.1211C77.7107 16.7439 77.6362 16.455 77.4872 16.2544C77.3399 16.052 77.132 15.9508 76.8634 15.9508Z" fill="#666666"/>
<path d="M79.3486 15.6168V17.5793C79.3486 17.8259 79.4047 18.0099 79.517 18.1313C79.6292 18.2528 79.805 18.3135 80.0442 18.3135C80.3607 18.3135 80.5916 18.227 80.737 18.0541C80.8842 17.8811 80.9578 17.5986 80.9578 17.2067V15.6168H81.416V18.642H81.0378L80.9716 18.2362H80.9468C80.8529 18.3853 80.7223 18.4994 80.5548 18.5785C80.3892 18.6576 80.1997 18.6972 79.9862 18.6972C79.6182 18.6972 79.3422 18.6098 79.1582 18.435C78.976 18.2601 78.8849 17.9805 78.8849 17.5959V15.6168H79.3486Z" fill="#666666"/>
<path d="M84.2711 17.8167C84.2711 18.0982 84.1662 18.3154 83.9565 18.4681C83.7467 18.6208 83.4523 18.6972 83.0732 18.6972C82.6721 18.6972 82.3592 18.6337 82.1347 18.5067V18.0817C82.2801 18.1553 82.4356 18.2132 82.6012 18.2555C82.7687 18.2979 82.9297 18.319 83.0842 18.319C83.3235 18.319 83.5075 18.2813 83.6363 18.2059C83.7651 18.1286 83.8295 18.0117 83.8295 17.8553C83.8295 17.7376 83.778 17.6373 83.6749 17.5545C83.5737 17.4698 83.375 17.3705 83.0787 17.2564C82.7972 17.1515 82.5966 17.0604 82.477 16.9831C82.3592 16.904 82.2709 16.8147 82.212 16.7154C82.155 16.616 82.1265 16.4973 82.1265 16.3593C82.1265 16.1127 82.2268 15.9186 82.4273 15.7769C82.6279 15.6334 82.903 15.5616 83.2526 15.5616C83.5783 15.5616 83.8967 15.6279 84.2076 15.7603L84.0448 16.133C83.7412 16.0078 83.4661 15.9453 83.2195 15.9453C83.0024 15.9453 82.8386 15.9793 82.7282 16.0474C82.6178 16.1155 82.5626 16.2093 82.5626 16.3289C82.5626 16.4099 82.5828 16.4789 82.6233 16.536C82.6656 16.593 82.7328 16.6473 82.8248 16.6988C82.9168 16.7503 83.0934 16.8249 83.3547 16.9224C83.7136 17.053 83.9555 17.1846 84.0807 17.3171C84.2076 17.4496 84.2711 17.6161 84.2711 17.8167Z" fill="#666666"/>
<path d="M88.4164 18.642V16.685C88.4164 16.4384 88.3602 16.2544 88.248 16.133C88.1357 16.0115 87.96 15.9508 87.7208 15.9508C87.4025 15.9508 87.1697 16.0373 87.0225 16.2103C86.8771 16.3832 86.8044 16.6666 86.8044 17.0604V18.642H86.3462V14.3471H86.8044V15.6472C86.8044 15.8036 86.7971 15.9333 86.7823 16.0364H86.8099C86.9001 15.891 87.028 15.7769 87.1936 15.6941C87.3611 15.6095 87.5515 15.5671 87.765 15.5671C88.1348 15.5671 88.4118 15.6555 88.5958 15.8321C88.7816 16.0069 88.8746 16.2857 88.8746 16.6684V18.642H88.4164Z" fill="#666666"/>
<path d="M90.2061 18.642H89.7479V15.6168H90.2061V18.642ZM89.7092 14.797C89.7092 14.6922 89.735 14.6158 89.7865 14.5679C89.838 14.5183 89.9024 14.4934 89.9797 14.4934C90.0533 14.4934 90.1168 14.5183 90.1702 14.5679C90.2235 14.6176 90.2502 14.694 90.2502 14.797C90.2502 14.9001 90.2235 14.9774 90.1702 15.0289C90.1168 15.0786 90.0533 15.1034 89.9797 15.1034C89.9024 15.1034 89.838 15.0786 89.7865 15.0289C89.735 14.9774 89.7092 14.9001 89.7092 14.797Z" fill="#666666"/>
<path d="M92.4871 15.5616C92.6214 15.5616 92.7419 15.5727 92.8487 15.5947L92.7852 16.0198C92.66 15.9922 92.5496 15.9784 92.454 15.9784C92.2092 15.9784 91.9994 16.0778 91.8246 16.2765C91.6517 16.4752 91.5652 16.7227 91.5652 17.019V18.642H91.107V15.6168H91.4851L91.5376 16.1771H91.5597C91.6719 15.9802 91.8071 15.8284 91.9654 15.7217C92.1237 15.615 92.2975 15.5616 92.4871 15.5616Z" fill="#666666"/>
<path d="M93.802 18.642H93.3438V15.6168H93.802V18.642ZM93.3052 14.797C93.3052 14.6922 93.331 14.6158 93.3825 14.5679C93.434 14.5183 93.4984 14.4934 93.5757 14.4934C93.6493 14.4934 93.7128 14.5183 93.7661 14.5679C93.8195 14.6176 93.8462 14.694 93.8462 14.797C93.8462 14.9001 93.8195 14.9774 93.7661 15.0289C93.7128 15.0786 93.6493 15.1034 93.5757 15.1034C93.4984 15.1034 93.434 15.0786 93.3825 15.0289C93.331 14.9774 93.3052 14.9001 93.3052 14.797Z" fill="#666666"/>
<path d="M96.7731 18.642V16.685C96.7731 16.4384 96.717 16.2544 96.6047 16.133C96.4925 16.0115 96.3167 15.9508 96.0775 15.9508C95.761 15.9508 95.5292 16.0364 95.382 16.2075C95.2347 16.3786 95.1611 16.6611 95.1611 17.0549V18.642H94.7029V15.6168H95.0756L95.1501 16.0308H95.1722C95.266 15.8818 95.3976 15.7668 95.5669 15.6858C95.7362 15.603 95.9248 15.5616 96.1327 15.5616C96.4971 15.5616 96.7712 15.6499 96.9553 15.8266C97.1393 16.0014 97.2313 16.282 97.2313 16.6684V18.642H96.7731Z" fill="#666666"/>
<path d="M100.58 15.6168V15.9066L100.02 15.9729C100.072 16.0373 100.118 16.1219 100.158 16.2268C100.199 16.3299 100.219 16.4467 100.219 16.5774C100.219 16.8736 100.118 17.1101 99.9153 17.2867C99.7129 17.4634 99.435 17.5517 99.0817 17.5517C98.9915 17.5517 98.9069 17.5443 98.8278 17.5296C98.6327 17.6327 98.5352 17.7624 98.5352 17.9188C98.5352 18.0016 98.5692 18.0633 98.6373 18.1037C98.7054 18.1424 98.8222 18.1617 98.9879 18.1617H99.5233C99.8509 18.1617 100.102 18.2307 100.277 18.3687C100.454 18.5067 100.542 18.7073 100.542 18.9704C100.542 19.3053 100.408 19.5602 100.139 19.735C99.8702 19.9117 99.4782 20 98.963 20C98.5674 20 98.2619 19.9264 98.0466 19.7792C97.8332 19.632 97.7264 19.424 97.7264 19.1554C97.7264 18.9714 97.7853 18.8122 97.9031 18.6779C98.0209 18.5435 98.1865 18.4524 98.3999 18.4046C98.3226 18.3696 98.2573 18.3154 98.204 18.2417C98.1524 18.1681 98.1267 18.0826 98.1267 17.9851C98.1267 17.8746 98.1561 17.778 98.215 17.6952C98.2739 17.6124 98.3668 17.5324 98.4938 17.4551C98.3374 17.3907 98.2095 17.2812 98.1101 17.1266C98.0126 16.9721 97.9638 16.7954 97.9638 16.5967C97.9638 16.2655 98.0632 16.0106 98.2619 15.8321C98.4607 15.6518 98.7422 15.5616 99.1065 15.5616C99.2648 15.5616 99.4074 15.58 99.5344 15.6168H100.58ZM98.1681 19.1498C98.1681 19.3136 98.2371 19.4378 98.3751 19.5225C98.5131 19.6071 98.7109 19.6494 98.9685 19.6494C99.3531 19.6494 99.6374 19.5915 99.8214 19.4755C100.007 19.3615 100.1 19.206 100.1 19.0091C100.1 18.8453 100.05 18.7312 99.9484 18.6668C99.8472 18.6043 99.6567 18.573 99.377 18.573H98.8278C98.6198 18.573 98.4579 18.6227 98.342 18.722C98.226 18.8214 98.1681 18.964 98.1681 19.1498ZM98.4165 16.5856C98.4165 16.7973 98.4763 16.9573 98.5959 17.0659C98.7155 17.1745 98.882 17.2288 99.0955 17.2288C99.5426 17.2288 99.7662 17.0116 99.7662 16.5774C99.7662 16.1228 99.5399 15.8956 99.0872 15.8956C98.8719 15.8956 98.7063 15.9536 98.5904 16.0695C98.4745 16.1854 98.4165 16.3575 98.4165 16.5856Z" fill="#666666"/>
<path d="M101.545 17.5296H101.255L101.114 14.6066H101.686L101.545 17.5296ZM101.065 18.3494C101.065 18.0991 101.175 17.974 101.396 17.974C101.503 17.974 101.584 18.0062 101.641 18.0706C101.7 18.135 101.73 18.2279 101.73 18.3494C101.73 18.4672 101.7 18.5592 101.641 18.6254C101.583 18.6898 101.501 18.722 101.396 18.722C101.3 18.722 101.221 18.6935 101.158 18.6365C101.096 18.5776 101.065 18.4819 101.065 18.3494Z" fill="#666666"/>
</svg>
