<svg width="57" height="20" viewBox="0 0 57 20" fill="none" xmlns="http://www.w3.org/2000/svg">
<path d="M18.2351 2.28766H20.3812V3.26728C20.7021 2.86713 21.0267 2.58211 21.3552 2.41224C21.6836 2.23859 22.0837 2.15176 22.5556 2.15176C23.1936 2.15176 23.6919 2.3424 24.0505 2.72368C24.4129 3.10118 24.5941 3.68631 24.5941 4.47906V8.30127H22.2782V4.99435C22.2782 4.61685 22.2083 4.35071 22.0686 4.19593C21.929 4.03738 21.7327 3.95811 21.4797 3.95811C21.2004 3.95811 20.9739 4.06381 20.8002 4.27521C20.6266 4.48661 20.5398 4.866 20.5398 5.41338V8.30127H18.2351V2.28766Z" fill="#00ADEF"/>
<path d="M28.0709 4.23557L25.8682 4.00341C25.9512 3.61836 26.0702 3.31635 26.2249 3.0974C26.3835 2.87468 26.61 2.68215 26.9044 2.51983C27.1158 2.4028 27.4065 2.3122 27.7765 2.24802C28.1464 2.18385 28.5466 2.15176 28.9769 2.15176C29.6678 2.15176 30.2227 2.1914 30.6417 2.27067C31.0607 2.34617 31.4099 2.50661 31.6893 2.75199C31.8856 2.92187 32.0404 3.16347 32.1536 3.47679C32.2669 3.78634 32.3235 4.08268 32.3235 4.36581V7.02154C32.3235 7.30466 32.3405 7.52739 32.3744 7.68972C32.4122 7.84827 32.4915 8.05212 32.6123 8.30127H30.4492C30.3624 8.14649 30.3057 8.02947 30.2793 7.95019C30.2529 7.86714 30.2265 7.73879 30.2 7.56514C29.898 7.85582 29.5979 8.06344 29.2997 8.18802C28.892 8.35412 28.4182 8.43717 27.8784 8.43717C27.1611 8.43717 26.6157 8.27107 26.2419 7.93887C25.872 7.60666 25.687 7.19708 25.687 6.7101C25.687 6.25332 25.821 5.87771 26.089 5.58325C26.3571 5.2888 26.8516 5.06985 27.5726 4.9264C28.4371 4.75275 28.9977 4.63195 29.2544 4.564C29.5111 4.49227 29.7829 4.39979 30.0698 4.28654C30.0698 4.00341 30.0113 3.80522 29.8943 3.69197C29.7772 3.57872 29.5715 3.52209 29.277 3.52209C28.8995 3.52209 28.6164 3.58249 28.4277 3.70329C28.2804 3.79767 28.1615 3.9751 28.0709 4.23557ZM30.0698 5.44735C29.7527 5.5606 29.4224 5.66064 29.0789 5.74747C28.6108 5.87204 28.3144 5.99473 28.1898 6.11553C28.0615 6.24011 27.9973 6.38167 27.9973 6.54022C27.9973 6.72142 28.0596 6.87054 28.1842 6.98756C28.3125 7.10081 28.4994 7.15744 28.7448 7.15744C29.0015 7.15744 29.2393 7.09515 29.4582 6.97057C29.681 6.846 29.8376 6.695 29.9282 6.51757C30.0226 6.33637 30.0698 6.10232 30.0698 5.81542V5.44735Z" fill="#00ADEF"/>
<path d="M40.0415 8.30127H37.8897V7.32731C37.5689 7.72747 37.2442 8.01248 36.9158 8.18236C36.5911 8.35223 36.191 8.43717 35.7153 8.43717C35.0811 8.43717 34.5828 8.24842 34.2204 7.87092C33.8618 7.48964 33.6825 6.90451 33.6825 6.11553V2.28766H35.9985V5.59458C35.9985 5.97208 36.0683 6.24011 36.208 6.39866C36.3477 6.55721 36.544 6.63649 36.7969 6.63649C37.0725 6.63649 37.2971 6.53078 37.4707 6.31938C37.6481 6.10798 37.7369 5.72859 37.7369 5.18121V2.28766H40.0415V8.30127Z" fill="#00ADEF"/>
<path d="M41.4402 0H43.7958V4.28087L45.5172 2.28766H48.3541L46.1967 4.39412L48.4787 8.30127H45.8796L44.6621 5.88903L43.7958 6.73841V8.30127H41.4402V0Z" fill="#00ADEF"/>
<path d="M49.1978 2.28766H51.3552V3.27294C51.5629 2.84636 51.7762 2.5538 51.9951 2.39525C52.2178 2.23292 52.4915 2.15176 52.8162 2.15176C53.1559 2.15176 53.5278 2.25746 53.9317 2.46886L53.2182 4.111C52.9464 3.99775 52.7312 3.94112 52.5727 3.94112C52.2707 3.94112 52.0366 4.0657 51.8705 4.31485C51.6327 4.66592 51.5138 5.32278 51.5138 6.28541V8.30127H49.1978V2.28766Z" fill="#00ADEF"/>
<path d="M54.413 0H56.7177V1.56852H54.413V0ZM54.413 2.28766H56.7177V8.30127H54.413V2.28766Z" fill="#00ADEF"/>
<path d="M18.2341 17.7118V9.92871H19.1898V17.7118H18.2341Z" fill="#006CB7"/>
<path d="M24.536 15.8961L25.5235 16.0182C25.3678 16.5951 25.0793 17.0429 24.6581 17.3614C24.2369 17.68 23.6989 17.8392 23.0441 17.8392C22.2195 17.8392 21.5647 17.5862 21.0798 17.08C20.5984 16.5704 20.3578 15.8572 20.3578 14.9405C20.3578 13.9919 20.602 13.2557 21.0904 12.7319C21.5788 12.2081 22.2124 11.9462 22.9911 11.9462C23.7449 11.9462 24.3608 12.2028 24.8386 12.716C25.3164 13.2292 25.5553 13.9512 25.5553 14.8821C25.5553 14.9387 25.5536 15.0236 25.55 15.1369H21.3452C21.3806 15.7563 21.5558 16.2306 21.8708 16.5597C22.1858 16.8889 22.5787 17.0535 23.0495 17.0535C23.3999 17.0535 23.6989 16.9615 23.9467 16.7774C24.1944 16.5934 24.3909 16.2996 24.536 15.8961ZM21.3983 14.3512H24.5466C24.5041 13.8769 24.3838 13.5212 24.1856 13.284C23.8812 12.9159 23.4866 12.7319 23.0017 12.7319C22.5628 12.7319 22.1929 12.8788 21.8921 13.1726C21.5948 13.4663 21.4302 13.8592 21.3983 14.3512Z" fill="#006CB7"/>
<path d="M30.4078 17.0163C30.0539 17.3172 29.7123 17.5295 29.3832 17.6534C29.0576 17.7773 28.7072 17.8392 28.332 17.8392C27.7126 17.8392 27.2365 17.6888 26.9038 17.388C26.5711 17.0836 26.4048 16.696 26.4048 16.2253C26.4048 15.9492 26.4667 15.6979 26.5906 15.4714C26.718 15.2413 26.8826 15.0573 27.0844 14.9192C27.2896 14.7812 27.5197 14.6768 27.7745 14.606C27.9621 14.5565 28.2453 14.5087 28.624 14.4627C29.3956 14.3706 29.9636 14.2609 30.3282 14.1335C30.3317 14.0025 30.3335 13.9194 30.3335 13.884C30.3335 13.4946 30.2432 13.2203 30.0627 13.0611C29.8185 12.8452 29.4557 12.7372 28.9744 12.7372C28.5249 12.7372 28.1922 12.8168 27.9763 12.9761C27.7639 13.1319 27.6064 13.4097 27.5038 13.8096L26.5694 13.6822C26.6543 13.2823 26.7941 12.9602 26.9888 12.716C27.1835 12.4682 27.4648 12.2789 27.8329 12.1479C28.201 12.0134 28.6275 11.9462 29.1124 11.9462C29.5938 11.9462 29.9849 12.0028 30.2857 12.116C30.5866 12.2293 30.8078 12.3727 30.9494 12.5461C31.0909 12.716 31.19 12.9319 31.2467 13.1938C31.2785 13.3566 31.2944 13.6504 31.2944 14.0751V15.3493C31.2944 16.2377 31.3139 16.8004 31.3528 17.0376C31.3953 17.2712 31.4767 17.4959 31.5971 17.7118H30.599C30.4999 17.5136 30.4361 17.2818 30.4078 17.0163ZM30.3282 14.8821C29.9813 15.0236 29.461 15.144 28.7673 15.2431C28.3745 15.2997 28.0966 15.3634 27.9338 15.4342C27.771 15.505 27.6453 15.6094 27.5569 15.7475C27.4684 15.8819 27.4241 16.0324 27.4241 16.1987C27.4241 16.4536 27.5197 16.6659 27.7108 16.8358C27.9055 17.0057 28.1886 17.0906 28.5603 17.0906C28.9284 17.0906 29.2558 17.011 29.5425 16.8517C29.8291 16.6889 30.0397 16.4677 30.1742 16.1881C30.2769 15.9722 30.3282 15.6537 30.3282 15.2325V14.8821Z" fill="#006CB7"/>
<path d="M32.7704 17.7118V12.0736H33.6304V12.9283C33.8499 12.5284 34.0516 12.2647 34.2357 12.1373C34.4233 12.0099 34.6285 11.9462 34.8515 11.9462C35.1736 11.9462 35.501 12.0488 35.8337 12.2541L35.5045 13.1407C35.2709 13.0027 35.0373 12.9336 34.8037 12.9336C34.5949 12.9336 34.4073 12.9974 34.241 13.1248C34.0746 13.2486 33.9561 13.4221 33.8853 13.6451C33.7791 13.9848 33.726 14.3565 33.726 14.76V17.7118H32.7704Z" fill="#006CB7"/>
<path d="M36.4018 17.7118V12.0736H37.2618V12.8752C37.6759 12.2559 38.2741 11.9462 39.0563 11.9462C39.3961 11.9462 39.7076 12.0081 39.9907 12.132C40.2774 12.2523 40.4915 12.4116 40.6331 12.6098C40.7747 12.808 40.8738 13.0434 40.9304 13.3159C40.9658 13.4929 40.9835 13.8026 40.9835 14.245V17.7118H40.0279V14.2821C40.0279 13.8928 39.9907 13.6026 39.9164 13.4115C39.842 13.2168 39.7093 13.0628 39.5182 12.9496C39.3306 12.8328 39.1094 12.7744 38.8546 12.7744C38.4475 12.7744 38.0954 12.9036 37.7981 13.1619C37.5043 13.4203 37.3574 13.9105 37.3574 14.6325V17.7118H36.4018Z" fill="#006CB7"/>
<path d="M42.4594 11.0277V9.92871H43.415V11.0277H42.4594ZM42.4594 17.7118V12.0736H43.415V17.7118H42.4594Z" fill="#006CB7"/>
<path d="M44.875 17.7118V12.0736H45.7351V12.8752C46.1492 12.2559 46.7474 11.9462 47.5296 11.9462C47.8694 11.9462 48.1808 12.0081 48.464 12.132C48.7507 12.2523 48.9648 12.4116 49.1064 12.6098C49.2479 12.808 49.3471 13.0434 49.4037 13.3159C49.4391 13.4929 49.4568 13.8026 49.4568 14.245V17.7118H48.5011V14.2821C48.5011 13.8928 48.464 13.6026 48.3897 13.4115C48.3153 13.2168 48.1826 13.0628 47.9915 12.9496C47.8039 12.8328 47.5827 12.7744 47.3278 12.7744C46.9208 12.7744 46.5686 12.9036 46.2713 13.1619C45.9776 13.4203 45.8307 13.9105 45.8307 14.6325V17.7118H44.875Z" fill="#006CB7"/>
<path d="M50.7522 18.179L51.6813 18.317C51.7202 18.6037 51.8282 18.8126 52.0051 18.9435C52.2423 19.1205 52.5661 19.209 52.9767 19.209C53.4191 19.209 53.7607 19.1205 54.0013 18.9435C54.242 18.7665 54.4048 18.5188 54.4898 18.2002C54.5393 18.0056 54.5623 17.5968 54.5588 16.9738C54.1411 17.4658 53.6209 17.7118 52.9979 17.7118C52.2228 17.7118 51.6229 17.4322 51.1981 16.873C50.7734 16.3138 50.5611 15.643 50.5611 14.8608C50.5611 14.3229 50.6584 13.8273 50.8531 13.3743C51.0477 12.9177 51.3291 12.5655 51.6972 12.3178C52.0688 12.07 52.5042 11.9462 53.0032 11.9462C53.6686 11.9462 54.2172 12.2152 54.649 12.7531V12.0736H55.5304V16.9473C55.5304 17.8251 55.4401 18.4462 55.2596 18.8108C55.0826 19.1789 54.7995 19.4691 54.4101 19.6815C54.0243 19.8938 53.5483 20 52.982 20C52.3095 20 51.7662 19.8478 51.3521 19.5434C50.938 19.2426 50.738 18.7878 50.7522 18.179ZM51.5432 14.7918C51.5432 15.5316 51.6901 16.0713 51.9839 16.4111C52.2777 16.7509 52.6458 16.9208 53.0882 16.9208C53.5271 16.9208 53.8952 16.7526 54.1925 16.4164C54.4898 16.0766 54.6384 15.5457 54.6384 14.8237C54.6384 14.1335 54.4845 13.6132 54.1765 13.2628C53.8722 12.9124 53.5041 12.7372 53.0723 12.7372C52.6475 12.7372 52.2865 12.9106 51.9892 13.2575C51.6919 13.6008 51.5432 14.1123 51.5432 14.7918Z" fill="#006CB7"/>
<path d="M11.7622 3.00577C11.7622 3.00577 9.81106 2.60525 6.61788 4.5748C3.4247 6.54436 1.99898 8.95853 2.23782 11.0934C2.47667 13.2284 4.18533 15.8704 11.9901 18.4058L15.694 19.4383L13.7943 18.5454C13.7943 18.5454 8.91814 16.3186 6.85673 13.085C6.85673 13.085 4.28454 9.66037 7.25358 6.30919C9.92497 3.82887 9.83311 3.88031 11.7622 3.00577Z" stroke="#006CB7" stroke-width="0.47" stroke-miterlimit="10"/>
<path d="M11.5528 1.87076C11.5528 1.87076 9.59795 1.47024 6.3864 3.43979C3.17485 5.40935 1.79322 7.82352 2.02471 9.95843C2.25621 12.0933 3.97222 14.7353 11.777 17.2708L15.4809 18.3033L13.5848 17.4141C13.5848 17.4141 8.70871 15.1873 6.64362 11.95C6.64362 11.95 4.07144 8.52904 7.04414 5.17418C7.04414 5.17418 9.69349 2.71591 11.5528 1.87076Z" fill="#006CB7"/>
<path d="M4.00892 2.45821L3.32545 2.52068L3.29238 2.44351L3.78477 2.07606L3.68556 1.89968L3.03516 2.07606L3.46876 1.64981L3.34015 1.51018L3.28136 1.46976L2.66036 1.74167L2.9433 1.28236C2.52878 1.10126 2.06689 1.05873 1.62627 1.16108C1.18565 1.26343 0.789802 1.5052 0.49755 1.85048C0.205299 2.19575 0.0322362 2.62609 0.0040776 3.07757C-0.024081 3.52905 0.0941669 3.97756 0.341251 4.35647C0.588336 4.73538 0.951071 5.02447 1.37556 5.18078C1.80005 5.33709 2.26364 5.35228 2.69745 5.22409C3.13127 5.0959 3.51215 4.83118 3.7835 4.46926C4.05486 4.10733 4.20221 3.66752 4.20367 3.21517C4.20455 2.9427 4.15082 2.67282 4.04566 2.42147L4.00892 2.45821Z" fill="#EB1F27"/>
</svg>
