<svg width="102" height="20" viewBox="0 0 102 20" fill="none" xmlns="http://www.w3.org/2000/svg">
<path fill-rule="evenodd" clip-rule="evenodd" d="M2.22112 2.10293C2.14999 2.21121 2.07688 2.31556 2.00773 2.42188C2.23099 2.42188 2.34757 2.31163 2.54317 2.28012C2.64789 2.45929 2.33374 2.48883 2.32781 2.6739C2.52539 2.69359 2.75063 2.4396 2.86325 2.60302C2.90079 2.74675 2.60245 2.83141 2.54317 2.99679C2.60245 3.01845 2.90474 2.98104 3.07664 2.99679C3.38882 3.98123 2.55898 4.73531 1.75878 4.80619C0.508091 4.91644 -0.533159 3.62486 0.298656 2.57152C0.644422 2.12458 1.43474 1.83516 2.22112 2.10293Z" fill="#ED1B24"/>
<path fill-rule="evenodd" clip-rule="evenodd" d="M12.5862 16.9384C12.5408 17.0585 12.272 16.9719 12.1219 16.9384C11.0885 16.714 9.90108 16.3714 8.88156 16.0504C6.54023 15.3121 4.3372 14.4163 2.61233 12.9278C1.70148 12.1403 0.776802 10.9806 0.903254 9.30707C0.960785 8.95939 1.04198 8.61602 1.14628 8.27932C1.20753 7.98596 1.19172 7.74182 1.25297 7.49177C1.63233 5.9974 2.79212 4.83183 3.95983 3.97931C5.30337 2.99487 6.98479 2.07147 9.12458 2.1325C8.60297 2.46328 8.00233 2.72317 7.52221 3.09135C8.17027 2.95746 8.9922 2.77633 9.73116 2.94959C7.89168 3.93402 6.02059 4.89089 4.88648 6.7121C4.53479 7.27519 4.15543 8.15134 4.24632 8.91133C4.29374 9.32085 4.57233 9.78944 4.81535 10.1891C6.41378 12.8176 9.19966 14.3474 12.116 15.6193C10.8376 15.4224 9.54741 14.9439 8.30462 14.5895C8.27696 14.5895 8.26906 14.5541 8.23547 14.5541C9.39925 15.4221 10.6686 16.1399 12.0132 16.6903C12.2108 16.7651 12.4459 16.7612 12.5862 16.9384ZM7.10136 3.38077C6.90378 3.43983 6.72003 3.65641 6.53035 3.80604C5.43971 4.67038 4.22261 5.92849 4.10999 7.604C4.06601 7.81928 4.09018 8.04286 4.17914 8.24388C4.3945 6.79676 5.26583 5.89305 6.13914 5.09369C7.01245 4.29432 8.14854 3.64263 9.24708 3.02637C8.5172 3.02669 7.79232 3.14641 7.10136 3.38077V3.38077ZM2.68345 12.7861C4.87265 14.7116 8.40341 15.824 11.4205 16.6195C11.4797 16.6195 11.5074 16.5781 11.4205 16.584C10.4118 16.1051 9.43622 15.5599 8.50023 14.9518C8.19398 14.7549 7.90749 14.4655 7.60914 14.3119C7.43922 14.2273 7.21398 14.2056 7.04011 14.1347C6.50664 13.9221 6.01467 13.6701 5.50886 13.424C3.49749 12.4533 1.65604 11.272 1.11664 8.81091C0.784705 10.6813 1.69358 11.9139 2.68345 12.7861Z" fill="#006CB7"/>
<path d="M12.4138 5.38337H15.2407V6.68457C15.6633 6.15306 16.091 5.77449 16.5236 5.54884C16.9562 5.31819 17.4833 5.20286 18.1048 5.20286C18.9452 5.20286 19.6016 5.45608 20.0739 5.96252C20.5513 6.46395 20.79 7.24116 20.79 8.29415V13.3711H17.7394V8.9786C17.7394 8.47717 17.6474 8.12367 17.4634 7.91808C17.2794 7.70748 17.0208 7.60219 16.6877 7.60219C16.3197 7.60219 16.0214 7.74258 15.7926 8.02338C15.5639 8.30418 15.4495 8.80812 15.4495 9.53519V13.3711H12.4138V5.38337Z" fill="#53A9DC"/>
<path d="M25.3697 7.97073L22.4682 7.66236C22.5776 7.1509 22.7342 6.74976 22.9381 6.45893C23.1469 6.16309 23.4453 5.90736 23.8332 5.69175C24.1116 5.53631 24.4945 5.41596 24.9818 5.33072C25.4691 5.24548 25.9962 5.20286 26.5631 5.20286C27.473 5.20286 28.204 5.25551 28.7559 5.36081C29.3079 5.46109 29.7678 5.6742 30.1358 6.00013C30.3944 6.22577 30.5982 6.54668 30.7474 6.96287C30.8966 7.37404 30.9712 7.76766 30.9712 8.14373V11.6713C30.9712 12.0473 30.9935 12.3432 31.0383 12.5588C31.088 12.7694 31.1924 13.0402 31.3516 13.3711H28.5023C28.388 13.1655 28.3134 13.0101 28.2786 12.9048C28.2438 12.7945 28.2089 12.624 28.1741 12.3933C27.7763 12.7794 27.381 13.0552 26.9882 13.2207C26.4512 13.4413 25.8271 13.5516 25.1161 13.5516C24.1713 13.5516 23.4528 13.331 22.9605 12.8897C22.4732 12.4485 22.2295 11.9044 22.2295 11.2576C22.2295 10.6509 22.406 10.1519 22.7591 9.76083C23.1121 9.36971 23.7635 9.07889 24.7133 8.88834C25.852 8.65769 26.5904 8.49723 26.9285 8.40698C27.2667 8.3117 27.6247 8.18885 28.0026 8.03843C28.0026 7.66236 27.9255 7.39911 27.7714 7.24868C27.6172 7.09825 27.3462 7.02304 26.9584 7.02304C26.4611 7.02304 26.0882 7.10327 25.8396 7.26372C25.6456 7.38908 25.489 7.62475 25.3697 7.97073ZM28.0026 9.58031C27.5849 9.73074 27.1498 9.86362 26.6973 9.97895C26.0807 10.1444 25.6904 10.3074 25.5263 10.4678C25.3572 10.6333 25.2727 10.8213 25.2727 11.0319C25.2727 11.2726 25.3547 11.4707 25.5188 11.6261C25.6879 11.7766 25.934 11.8518 26.2572 11.8518C26.5954 11.8518 26.9086 11.769 27.197 11.6036C27.4904 11.4381 27.6968 11.2375 27.8161 11.0019C27.9404 10.7612 28.0026 10.4503 28.0026 10.0692V9.58031Z" fill="#53A9DC"/>
<path d="M41.1374 13.3711H38.3031V12.0774C37.8804 12.6089 37.4528 12.9875 37.0202 13.2131C36.5926 13.4388 36.0655 13.5516 35.439 13.5516C34.6036 13.5516 33.9472 13.3009 33.4698 12.7995C32.9975 12.293 32.7613 11.5158 32.7613 10.4678V5.38337H35.8119V9.77587C35.8119 10.2773 35.9039 10.6333 36.0879 10.8439C36.2718 11.0545 36.5304 11.1598 36.8636 11.1598C37.2266 11.1598 37.5224 11.0194 37.7512 10.7386C37.9849 10.4578 38.1017 9.95388 38.1017 9.22681V5.38337H41.1374V13.3711Z" fill="#53A9DC"/>
<path d="M42.9797 2.34473H46.0826V8.03091L48.35 5.38337H52.0869L49.2451 8.18133L52.251 13.3711H48.8274L47.2238 10.167L46.0826 11.2952V13.3711H42.9797V2.34473Z" fill="#53A9DC"/>
<path d="M53.1982 5.38337H56.04V6.6921C56.3135 6.12548 56.5944 5.73688 56.8828 5.52628C57.1762 5.31067 57.5367 5.20286 57.9644 5.20286C58.4119 5.20286 58.9017 5.34326 59.4337 5.62406L58.4939 7.80526C58.1359 7.65484 57.8525 7.57962 57.6436 7.57962C57.2458 7.57962 56.9375 7.74509 56.7187 8.07603C56.4055 8.54236 56.2488 9.41484 56.2488 10.6935V13.3711H53.1982V5.38337Z" fill="#53A9DC"/>
<path d="M60.0677 2.34473H63.1034V4.42815H60.0677V2.34473ZM60.0677 5.38337H63.1034V13.3711H60.0677V5.38337Z" fill="#53A9DC"/>
<path d="M73.5333 10.2743L76.4287 10.602C76.2691 11.2029 76.0072 11.7244 75.6431 12.1663C75.279 12.6033 74.8126 12.9435 74.244 13.1869C73.6804 13.4302 72.9622 13.5519 72.0894 13.5519C71.2464 13.5519 70.5432 13.4749 69.9796 13.3209C69.421 13.162 68.9396 12.9088 68.5356 12.5611C68.1316 12.2086 67.8149 11.7964 67.5855 11.3246C67.356 10.8528 67.2413 10.2271 67.2413 9.44745C67.2413 8.63302 67.381 7.95516 67.6603 7.41387C67.8648 7.01659 68.1441 6.66152 68.4982 6.34866C68.8524 6.03083 69.2165 5.79495 69.5905 5.641C70.1841 5.39767 70.9447 5.276 71.8724 5.276C73.1692 5.276 74.1568 5.50692 74.8351 5.96876C75.5184 6.4306 75.9972 7.10598 76.2715 7.99489L73.4061 8.37479C73.3163 8.0371 73.1517 7.78384 72.9123 7.61499C72.6779 7.44118 72.3612 7.35428 71.9622 7.35428C71.4584 7.35428 71.0494 7.53554 70.7352 7.89805C70.426 8.25561 70.2714 8.79938 70.2714 9.52939C70.2714 10.1799 70.426 10.6741 70.7352 11.0117C71.0444 11.3494 71.4385 11.5183 71.9173 11.5183C72.3163 11.5183 72.6505 11.4165 72.9198 11.2129C73.1941 11.0093 73.3986 10.6964 73.5333 10.2743Z" fill="#006CB7"/>
<path d="M77.4536 9.43255C77.4536 8.22581 77.8626 7.23261 78.6806 6.45295C79.4986 5.66832 80.6034 5.276 81.9949 5.276C83.586 5.276 84.788 5.73536 85.601 6.65407C86.2544 7.394 86.5811 8.30527 86.5811 9.38786C86.5811 10.6045 86.1746 11.6027 85.3616 12.3824C84.5536 13.1571 83.4339 13.5444 82.0024 13.5444C80.7256 13.5444 79.6931 13.2216 78.905 12.576C77.9374 11.7765 77.4536 10.7287 77.4536 9.43255ZM80.5061 9.4251C80.5061 10.1303 80.6482 10.6517 80.9325 10.9894C81.2218 11.3271 81.5834 11.4959 82.0174 11.4959C82.4563 11.4959 82.8154 11.3296 83.0947 10.9968C83.379 10.6641 83.5212 10.1303 83.5212 9.39531C83.5212 8.71 83.379 8.20098 83.0947 7.86826C82.8104 7.53057 82.4588 7.36172 82.0398 7.36172C81.5959 7.36172 81.2293 7.53305 80.94 7.87571C80.6507 8.2134 80.5061 8.72986 80.5061 9.4251Z" fill="#006CB7"/>
<path d="M88.0699 5.45478H90.9129V6.60937C91.3219 6.12767 91.7334 5.78502 92.1474 5.58141C92.5663 5.3778 93.0701 5.276 93.6586 5.276C94.2921 5.276 94.7933 5.38774 95.1624 5.61121C95.5315 5.83468 95.8333 6.1674 96.0677 6.60937C96.5465 6.09291 96.9829 5.74281 97.377 5.55906C97.771 5.37036 98.2573 5.276 98.8359 5.276C99.6887 5.276 100.355 5.52927 100.833 6.0358C101.312 6.53737 101.552 7.32448 101.552 8.39714V13.3656H98.4992V8.85898C98.4992 8.50142 98.4294 8.23574 98.2897 8.06193C98.0852 7.7888 97.8308 7.65224 97.5266 7.65224C97.1675 7.65224 96.8782 7.78135 96.6587 8.03959C96.4393 8.29782 96.3295 8.71248 96.3295 9.28357V13.3656H93.2771V9.00796C93.2771 8.66034 93.2571 8.42445 93.2172 8.3003C93.1524 8.10166 93.0402 7.94275 92.8805 7.82356C92.7209 7.69941 92.5339 7.63734 92.3194 7.63734C91.9703 7.63734 91.6835 7.76894 91.4591 8.03214C91.2346 8.29533 91.1224 8.72738 91.1224 9.32826V13.3656H88.0699V5.45478Z" fill="#006CB7"/>
<circle cx="65.3447" cy="12" r="1.55172" fill="#ED1B24"/>
</svg>
