<svg width="56" height="20" viewBox="0 0 56 20" fill="none" xmlns="http://www.w3.org/2000/svg">
<path d="M46.6117 12.9615C46.1306 12.6595 45.586 12.4733 45.0207 12.4178C44.4553 12.3622 43.8848 12.4387 43.3541 12.6413L42.965 12.7652V10.0414H41.3879V19.6454H42.965V15.0448C42.9385 14.8407 42.9891 14.6341 43.1069 14.4653C43.2248 14.2965 43.4013 14.1778 43.6021 14.1323C44.2095 13.9189 44.8714 13.9189 45.4788 14.1323C45.6717 14.1762 45.8408 14.2915 45.952 14.4551C46.0631 14.6187 46.1082 14.8184 46.078 15.0139V19.06C46.0739 19.1389 46.0866 19.2177 46.1152 19.2912C46.1439 19.3648 46.1878 19.4315 46.2441 19.4868C46.3004 19.5422 46.3678 19.5849 46.4419 19.6122C46.516 19.6396 46.595 19.6509 46.6737 19.6454H47.6655V14.8245C47.6735 14.4517 47.582 14.0835 47.4004 13.7579C47.2189 13.4323 46.9537 13.1609 46.6324 12.9718" fill="#01808C"/>
<path fill-rule="evenodd" clip-rule="evenodd" d="M28.1716 10.7477C28.1757 10.8684 28.1557 10.9886 28.1127 11.1014C28.0697 11.2142 28.0046 11.3173 27.9211 11.4045C27.8377 11.4918 27.7377 11.5615 27.627 11.6096C27.5162 11.6576 27.397 11.683 27.2763 11.6844C27.1528 11.689 27.0296 11.6687 26.9141 11.6249C26.7986 11.581 26.6931 11.5144 26.6038 11.4289C26.5145 11.3435 26.4433 11.241 26.3944 11.1276C26.3454 11.0141 26.3198 10.8919 26.319 10.7684C26.3162 10.5227 26.4112 10.286 26.583 10.1104C26.7548 9.9347 26.9893 9.83446 27.2349 9.83172C27.4806 9.82898 27.7173 9.92397 27.893 10.0957C28.0686 10.2675 28.1688 10.502 28.1716 10.7477Z" fill="#01808C"/>
<path d="M35.3376 12.6786H34.0016C33.8361 12.6745 33.6717 12.7056 33.5192 12.7697C33.3666 12.8338 33.2294 12.9295 33.1166 13.0505C33.1166 13.0505 30.8714 16.1497 30.8783 16.1703L33.1166 19.2695C33.2274 19.3933 33.3641 19.4912 33.5171 19.556C33.6701 19.6209 33.8355 19.6513 34.0016 19.6449H35.3376L32.7963 16.1531L35.3376 12.6786Z" fill="#01808C"/>
<path d="M30.8646 10.0412H29.284V19.6452H30.8646V10.0377V10.0412Z" fill="#01808C"/>
<path d="M26.4534 19.0635C26.4494 19.1417 26.462 19.2199 26.4902 19.293C26.5184 19.366 26.5617 19.4323 26.6172 19.4875C26.6728 19.5428 26.7393 19.5857 26.8126 19.6135C26.8858 19.6413 26.9641 19.6533 27.0423 19.6489H28.0306V12.5724H26.4534V19.0635Z" fill="#01808C"/>
<path d="M24.3255 12.9615C23.8444 12.6595 23.2997 12.4733 22.7344 12.4178C22.1691 12.3622 21.5986 12.4387 21.0679 12.6413L20.6788 12.7652V10.0414H19.1016V19.6454H20.6822V15.0448C20.6548 14.8411 20.7046 14.6344 20.8218 14.4655C20.9391 14.2966 21.1153 14.1778 21.3158 14.1323C21.9232 13.9189 22.5852 13.9189 23.1926 14.1323C23.3854 14.1762 23.5545 14.2915 23.6657 14.4551C23.7769 14.6187 23.8219 14.8184 23.7917 15.0139V19.06C23.7882 19.1383 23.8012 19.2164 23.8298 19.2893C23.8585 19.3622 23.9022 19.4282 23.958 19.4831C24.0139 19.538 24.0807 19.5806 24.1541 19.6079C24.2275 19.6353 24.3058 19.6469 24.384 19.642H25.3723V14.821C25.38 14.4483 25.2884 14.0803 25.1068 13.7547C24.9253 13.4292 24.6604 13.1578 24.3393 12.9684" fill="#01808C"/>
<path d="M40.6683 17.3382V17.2694C40.5959 16.7885 40.3512 16.3503 39.9796 16.0366C39.7609 15.8496 39.5161 15.6953 39.253 15.5786C38.6676 15.3203 38.0754 15.0689 37.4968 14.7935H37.5347C37.4798 14.7543 37.4349 14.7027 37.4038 14.6428C37.3727 14.5829 37.3562 14.5166 37.3556 14.4491C37.3555 14.3381 37.3974 14.2311 37.4727 14.1495V14.1495C37.4841 14.1354 37.4981 14.1237 37.514 14.1151V14.1151C37.5484 14.0893 37.5868 14.0695 37.6277 14.0565L37.7551 14.0256C37.8548 14.0043 37.9562 13.9916 38.0581 13.9877H38.2854H38.43H38.461H38.5884C39.152 14.0306 39.7076 14.1463 40.2413 14.332H40.2758V13.0441C40.2846 12.9794 40.2761 12.9135 40.2514 12.853C40.2266 12.7926 40.1863 12.7397 40.1346 12.6998C40.0848 12.665 40.0286 12.6404 39.9693 12.6275C39.3307 12.4327 38.6627 12.3522 37.9961 12.3899C37.7986 12.4025 37.602 12.4266 37.4073 12.4622C36.3501 12.655 35.6649 13.3093 35.5409 14.2528C35.5358 14.3285 35.5358 14.4044 35.5409 14.4801C35.5409 14.4801 35.5409 14.4801 35.5409 14.4801C35.5473 14.7638 35.6221 15.0419 35.7587 15.2906C35.8954 15.5394 36.09 15.7516 36.326 15.9092C36.5116 16.0451 36.7113 16.1606 36.9218 16.2535C37.4934 16.5118 38.0719 16.7563 38.6435 17.0146L38.7606 17.0731H38.7847L38.8777 17.1316C38.9813 17.2181 39.0512 17.3383 39.0751 17.4711C39.099 17.604 39.0755 17.741 39.0085 17.8582C38.9839 17.899 38.955 17.937 38.9225 17.9718C38.8346 18.0525 38.7261 18.1073 38.6091 18.1303H38.5609C38.3474 18.159 38.1323 18.1739 37.9169 18.175C37.1347 18.1768 36.3643 17.9839 35.6752 17.6137C35.6752 17.9994 35.6752 18.3782 35.6752 18.757C35.6668 18.9287 35.7181 19.098 35.8205 19.2361C35.9228 19.3742 36.0698 19.4726 36.2365 19.5145H36.2916C36.8835 19.6797 37.4953 19.7631 38.1098 19.7625H38.1546C38.3804 19.7484 38.6049 19.7174 38.826 19.6695C39.2967 19.5995 39.7317 19.3782 40.0654 19.039C40.399 18.6997 40.6131 18.2611 40.6752 17.7893C40.6925 17.6176 40.6925 17.4446 40.6752 17.2728" fill="#01808C"/>
<path d="M18.3781 17.3384C18.3765 17.3155 18.3765 17.2925 18.3781 17.2696C18.3051 16.7889 18.0605 16.3509 17.6894 16.0368C17.4712 15.849 17.2264 15.6946 16.9629 15.5788C16.3775 15.3205 15.7886 15.0691 15.2101 14.7936H15.2445C15.1945 14.7573 15.1528 14.7106 15.1222 14.6567C15.0917 14.6029 15.073 14.5432 15.0675 14.4815C15.0619 14.4199 15.0696 14.3578 15.0901 14.2993C15.1105 14.2409 15.1432 14.1875 15.186 14.1428V14.1428L15.2273 14.1084C15.2629 14.0827 15.3025 14.0629 15.3444 14.0498L15.4718 14.0188C15.5715 13.9973 15.6729 13.9846 15.7748 13.981H15.9987H16.1467H16.1743H16.3051C16.8675 14.0244 17.4219 14.1401 17.9546 14.3253H17.9925V13.0374C18.0013 12.9727 17.9928 12.9068 17.9681 12.8463C17.9433 12.7859 17.903 12.733 17.8513 12.6931C17.7999 12.659 17.7427 12.6345 17.6826 12.6208C17.0452 12.426 16.3783 12.3455 15.7128 12.3832C15.5153 12.3954 15.3186 12.4195 15.124 12.4555C14.0634 12.6483 13.3781 13.3026 13.2542 14.2461C13.249 14.3218 13.249 14.3977 13.2542 14.4734C13.2591 14.7571 13.3328 15.0353 13.4689 15.2842C13.6051 15.5332 13.7996 15.7453 14.0358 15.9025C14.2221 16.0392 14.4231 16.1547 14.635 16.2468C15.2066 16.5051 15.7852 16.7496 16.3568 17.0078L16.4739 17.0664H16.4945C16.5272 17.0831 16.5583 17.1027 16.5875 17.1249C16.6528 17.1782 16.7053 17.2454 16.7411 17.3217C16.7769 17.3981 16.795 17.4814 16.7941 17.5657C16.7944 17.666 16.7683 17.7645 16.7184 17.8515C16.6947 17.893 16.6658 17.9312 16.6323 17.9651C16.5448 18.0464 16.4362 18.1013 16.3189 18.1236H16.2707C16.0572 18.1524 15.8421 18.1674 15.6268 18.1683C14.8446 18.1692 14.0744 17.9764 13.385 17.607C13.385 17.9927 13.385 18.3715 13.385 18.7503C13.3764 18.9215 13.4273 19.0904 13.5289 19.2285C13.6306 19.3665 13.7768 19.4652 13.9429 19.5079H14.0014C14.5922 19.6728 15.2028 19.7562 15.8162 19.7558H15.8644C16.0891 19.7417 16.3124 19.7107 16.5324 19.6628C17.0033 19.5934 17.4386 19.3722 17.7723 19.0329C18.1061 18.6935 18.32 18.2546 18.3816 17.7826C18.4006 17.611 18.4006 17.4378 18.3816 17.2661" fill="#01808C"/>
<path d="M54.1669 12.5519C54.1669 12.731 54.1669 12.9169 54.1669 13.1098C53.4238 12.5541 52.4955 12.3056 51.5742 12.4159C50.6529 12.5261 49.8094 12.9867 49.2185 13.7021C48.665 14.3637 48.3577 15.1966 48.3489 16.0591C48.3402 16.9217 48.6304 17.7607 49.1703 18.4335C49.7062 19.1194 50.4716 19.5889 51.3259 19.7558C51.8202 19.8631 52.3323 19.8568 52.8238 19.7375C53.3153 19.6182 53.7733 19.389 54.1634 19.0671C54.5444 19.4402 55.0495 19.6597 55.5822 19.6835V12.5519H54.1634H54.1669ZM52.1007 18.22C51.8194 18.2283 51.5393 18.18 51.277 18.0779C51.0148 17.9759 50.7757 17.8222 50.574 17.6259C50.3722 17.4296 50.212 17.1948 50.1028 16.9355C49.9936 16.6761 49.9376 16.3974 49.9382 16.116C49.9495 15.5661 50.1736 15.0421 50.5634 14.6541C50.9531 14.2661 51.4781 14.0443 52.0279 14.0354C52.5778 14.0265 53.1097 14.2311 53.5118 14.6063C53.9139 14.9815 54.1549 15.4979 54.1841 16.0471C54.1987 16.3287 54.1554 16.6104 54.0571 16.8747C53.9587 17.139 53.8073 17.3803 53.6121 17.5839C53.4169 17.7874 53.1821 17.9489 52.9222 18.0583C52.6623 18.1677 52.3827 18.2227 52.1007 18.22" fill="#01808C"/>
<path d="M7.88573 3.47087C7.88573 3.54663 7.95116 3.57762 8.01315 3.57762H8.2232V2.33105H7.87885V3.47087H7.88573Z" fill="#01808C"/>
<path d="M7.15218 3.80856V2.43114H8.87395L5.39597 0L1.8009 2.43114H3.49857V3.80856C4.05011 3.47845 4.68086 3.30412 5.32365 3.30412C5.96644 3.30412 6.59719 3.47845 7.14873 3.80856" fill="#01808C"/>
<path d="M7.9409 7.08359C7.9409 7.06293 7.9409 7.04227 7.9409 7.02161C8.35753 7.10781 8.75233 7.27768 9.10139 7.52092C9.00053 8.40581 8.59546 9.22818 7.95543 9.84748C7.31539 10.4668 6.48013 10.8446 5.59241 10.9163V9.72823C6.24013 9.65154 6.83724 9.34002 7.27069 8.85263C7.70414 8.36524 7.94382 7.73583 7.94435 7.08359" fill="#FAB44E"/>
<path d="M2.7444 7.08359V7.02161C2.32797 7.10845 1.9333 7.27827 1.58392 7.52092C1.68491 8.40634 2.09047 9.22914 2.7312 9.84851C3.37194 10.4679 4.20801 10.8453 5.09634 10.9163V9.72823C4.44832 9.65226 3.85078 9.34095 3.41719 8.85341C2.98361 8.36586 2.74418 7.73604 2.7444 7.08359" fill="#FAB44E"/>
<path d="M9.0979 7.52026C8.99653 8.40527 8.5914 9.22774 7.95154 9.8475C7.31169 10.4673 6.47672 10.8459 5.58893 10.919V19.9997H5.90573C5.93451 20.0011 5.96283 19.9921 5.98558 19.9744C6.00832 19.9567 6.02397 19.9315 6.0297 19.9032V19.9032C6.8837 14.7379 9.47325 12.7579 10.6819 11.7799C10.6819 9.42454 10.0518 8.1952 9.0979 7.52026Z" fill="#01808C"/>
<path d="M1.58403 7.52026C1.6854 8.40527 2.09054 9.22774 2.73039 9.8475C3.37024 10.4673 4.20522 10.846 5.093 10.919V19.9997H4.77964C4.7507 20.0018 4.722 19.9932 4.6991 19.9753C4.67619 19.9575 4.66071 19.9318 4.65567 19.9032C3.79823 14.7379 1.21213 12.7579 0 11.7799C0 9.42454 0.63361 8.1952 1.58403 7.52026" fill="#01808C"/>
</svg>
