<svg width="144" height="29" viewBox="0 0 144 29" fill="none" xmlns="http://www.w3.org/2000/svg">
<path d="M29.9221 9.70539V6.62118H44.4578V9.70539H39.0394V24.3143H35.3406V9.70539H29.9221Z" fill="url(#paint0_linear_1_1278)"/>
<path d="M50.0551 24.5735C48.6897 24.5735 47.5144 24.2971 46.5292 23.7441C45.5498 23.1855 44.7951 22.3964 44.265 21.377C43.735 20.3518 43.47 19.1394 43.47 17.7399C43.47 16.3749 43.735 15.1769 44.265 14.146C44.7951 13.115 45.5412 12.3116 46.5033 11.7356C47.4712 11.1597 48.6062 10.8717 49.9082 10.8717C50.7839 10.8717 51.5992 11.0128 52.3539 11.295C53.1144 11.5715 53.7769 11.989 54.3415 12.5477C54.9119 13.1064 55.3555 13.809 55.6724 14.6557C55.9893 15.4966 56.1477 16.4814 56.1477 17.6103V18.6211H44.9391V16.3403H52.6823C52.6823 15.8104 52.567 15.341 52.3366 14.9321C52.1061 14.5232 51.7864 14.2035 51.3773 13.9732C50.9741 13.737 50.5045 13.619 49.9687 13.619C49.4099 13.619 48.9144 13.7485 48.4823 14.0077C48.056 14.2611 47.7218 14.6038 47.4798 15.0358C47.2379 15.462 47.114 15.9372 47.1082 16.4613V18.6297C47.1082 19.2863 47.2292 19.8536 47.4712 20.3316C47.7189 20.8097 48.0675 21.1783 48.5169 21.4375C48.9662 21.6966 49.4992 21.8262 50.1156 21.8262C50.5247 21.8262 50.8992 21.7686 51.2391 21.6534C51.579 21.5383 51.8699 21.3655 52.1119 21.1351C52.3539 20.9047 52.5382 20.6225 52.665 20.2884L56.0699 20.5131C55.8971 21.3309 55.5427 22.0451 55.007 22.6556C54.4769 23.2603 53.7913 23.7326 52.9502 24.0724C52.1148 24.4065 51.1498 24.5735 50.0551 24.5735Z" fill="url(#paint1_linear_1_1278)"/>
<path d="M63.6959 24.5735C62.3362 24.5735 61.1667 24.2855 60.1873 23.7096C59.2136 23.1279 58.4646 22.3215 57.9404 21.2906C57.4219 20.2596 57.1626 19.0732 57.1626 17.7312C57.1626 16.372 57.4247 15.1798 57.949 14.1546C58.479 13.1236 59.2309 12.3202 60.2046 11.7442C61.1782 11.1625 62.3362 10.8717 63.6786 10.8717C64.8366 10.8717 65.8506 11.0819 66.7206 11.5023C67.5905 11.9228 68.279 12.5131 68.786 13.2734C69.293 14.0336 69.5724 14.9264 69.6243 15.9516H66.1502C66.0523 15.2892 65.793 14.7565 65.3724 14.3533C64.9576 13.9444 64.4132 13.7399 63.7391 13.7399C63.1687 13.7399 62.6704 13.8954 62.244 14.2064C61.8235 14.5117 61.4951 14.958 61.2589 15.5455C61.0227 16.133 60.9045 16.8443 60.9045 17.6794C60.9045 18.526 61.0198 19.246 61.2502 19.8392C61.4864 20.4324 61.8177 20.8846 62.244 21.1956C62.6704 21.5066 63.1687 21.6621 63.7391 21.6621C64.1597 21.6621 64.537 21.5757 64.8712 21.4029C65.2111 21.2301 65.4905 20.9796 65.7095 20.6513C65.9341 20.3172 66.0811 19.917 66.1502 19.4504H69.6243C69.5666 20.4641 69.2901 21.3568 68.7946 22.1286C68.3049 22.8946 67.628 23.4936 66.7638 23.9256C65.8996 24.3575 64.877 24.5735 63.6959 24.5735Z" fill="url(#paint2_linear_1_1278)"/>
<path d="M74.8111 16.6427V24.3143H71.1296V6.62118H74.7073V13.3857H74.8629C75.1625 12.6024 75.6464 11.989 76.3147 11.5455C76.9831 11.0963 77.8213 10.8717 78.8295 10.8717C79.7514 10.8717 80.555 11.0733 81.2406 11.4764C81.932 11.8738 82.4678 12.4469 82.848 13.1956C83.234 13.9386 83.4242 14.8285 83.4184 15.8652V24.3143H79.7369V16.5217C79.7427 15.7039 79.5353 15.0675 79.1147 14.6125C78.6999 14.1575 78.118 13.93 77.3691 13.93C76.8678 13.93 76.4242 14.0365 76.0382 14.2496C75.658 14.4627 75.3584 14.7737 75.1394 15.1827C74.9263 15.5858 74.8168 16.0725 74.8111 16.6427Z" fill="url(#paint3_linear_1_1278)"/>
<path d="M85.4639 24.3143V11.0445H88.9725V13.3857H89.128C89.4046 12.6082 89.8655 11.9948 90.5107 11.5455C91.156 11.0963 91.928 10.8717 92.8268 10.8717C93.7371 10.8717 94.512 11.0992 95.1515 11.5542C95.791 12.0034 96.2173 12.6139 96.4305 13.3857H96.5687C96.8395 12.6254 97.3292 12.0178 98.0379 11.5628C98.7523 11.1021 99.5963 10.8717 100.57 10.8717C101.809 10.8717 102.814 11.2662 103.586 12.0553C104.364 12.8385 104.753 13.9501 104.753 15.39V24.3143H101.08V16.1157C101.08 15.3785 100.884 14.8256 100.492 14.457C100.1 14.0884 99.6107 13.9041 99.023 13.9041C98.3547 13.9041 97.8333 14.1172 97.4589 14.5434C97.0844 14.9638 96.8971 15.5196 96.8971 16.2107V24.3143H93.328V16.0379C93.328 15.3871 93.1408 14.8688 92.7663 14.4829C92.3976 14.097 91.9107 13.9041 91.3058 13.9041C90.8968 13.9041 90.528 14.0077 90.1996 14.2151C89.877 14.4166 89.6206 14.7017 89.4305 15.0704C89.2404 15.4332 89.1453 15.8594 89.1453 16.349V24.3143H85.4639Z" fill="url(#paint4_linear_1_1278)"/>
<path d="M106.809 24.3143V11.0445H110.49V24.3143H106.809ZM108.658 9.3339C108.111 9.3339 107.641 9.15248 107.25 8.78963C106.864 8.42102 106.671 7.98042 106.671 7.46783C106.671 6.96099 106.864 6.52615 107.25 6.1633C107.641 5.79469 108.111 5.61039 108.658 5.61039C109.206 5.61039 109.672 5.79469 110.058 6.1633C110.45 6.52615 110.646 6.96099 110.646 7.46783C110.646 7.98042 110.45 8.42102 110.058 8.78963C109.672 9.15248 109.206 9.3339 108.658 9.3339Z" fill="url(#paint5_linear_1_1278)"/>
<path d="M116.269 16.6427V24.3143H112.588V11.0445H116.096V13.3857H116.252C116.546 12.6139 117.038 12.0034 117.73 11.5542C118.421 11.0992 119.259 10.8717 120.244 10.8717C121.166 10.8717 121.97 11.0733 122.656 11.4764C123.341 11.8796 123.874 12.4555 124.254 13.2043C124.635 13.9473 124.825 14.8342 124.825 15.8652V24.3143H121.143V16.5217C121.149 15.7097 120.942 15.0761 120.521 14.6211C120.1 14.1604 119.521 13.93 118.784 13.93C118.288 13.93 117.851 14.0365 117.47 14.2496C117.096 14.4627 116.802 14.7737 116.589 15.1827C116.381 15.5858 116.275 16.0725 116.269 16.6427Z" fill="url(#paint6_linear_1_1278)"/>
<path d="M126.874 24.3143V11.0445H130.556V24.3143H126.874ZM128.724 9.3339C128.176 9.3339 127.707 9.15248 127.315 8.78963C126.929 8.42102 126.736 7.98042 126.736 7.46783C126.736 6.96099 126.929 6.52615 127.315 6.1633C127.707 5.79469 128.176 5.61039 128.724 5.61039C129.271 5.61039 129.738 5.79469 130.124 6.1633C130.516 6.52615 130.711 6.96099 130.711 7.46783C130.711 7.98042 130.516 8.42102 130.124 8.78963C129.738 9.15248 129.271 9.3339 128.724 9.3339Z" fill="url(#paint7_linear_1_1278)"/>
<path d="M143.698 14.8285L140.327 15.0358C140.27 14.7478 140.146 14.4886 139.956 14.2583C139.766 14.0221 139.515 13.8349 139.204 13.6967C138.898 13.5527 138.533 13.4807 138.106 13.4807C137.536 13.4807 137.055 13.6017 136.663 13.8436C136.271 14.0797 136.075 14.3965 136.075 14.7939C136.075 15.1107 136.202 15.3785 136.456 15.5973C136.709 15.8162 137.144 15.9919 137.761 16.1243L140.163 16.6081C141.454 16.8731 142.416 17.2993 143.049 17.8867C143.683 18.4742 144 19.246 144 20.2021C144 21.0717 143.744 21.8349 143.231 22.4915C142.724 23.148 142.027 23.6606 141.14 24.0292C140.258 24.3921 139.241 24.5735 138.089 24.5735C136.332 24.5735 134.932 24.2078 133.889 23.4763C132.852 22.7391 132.244 21.737 132.066 20.4699L135.687 20.2798C135.796 20.8154 136.061 21.2244 136.482 21.5066C136.902 21.783 137.441 21.9213 138.098 21.9213C138.743 21.9213 139.261 21.7974 139.653 21.5498C140.051 21.2964 140.252 20.9709 140.258 20.5735C140.252 20.2395 140.111 19.9659 139.835 19.7528C139.558 19.534 139.132 19.3669 138.556 19.2517L136.257 18.7939C134.961 18.5347 133.996 18.0854 133.362 17.4461C132.734 16.8068 132.42 15.9919 132.42 15.0012C132.42 14.1488 132.65 13.4145 133.111 12.7982C133.578 12.182 134.232 11.7068 135.073 11.3728C135.92 11.0387 136.911 10.8717 138.046 10.8717C139.722 10.8717 141.042 11.2259 142.004 11.9343C142.972 12.6427 143.536 13.6074 143.698 14.8285Z" fill="url(#paint8_linear_1_1278)"/>
<path d="M5.58935 20.3565L10.585 17.5609V28.026L5.48408 24.9415L5.4801 20.4202L5.58935 20.3565Z" fill="url(#paint9_linear_1_1278)"/>
<path d="M16.8838 7.44836V13.2409L16.8341 25.1726L11.5783 28.0519V15.8572L5.52597 19.2745L0 15.8452V10.8139L5.52994 14.2113L16.8838 7.44836Z" fill="url(#paint10_linear_1_1278)"/>
<path d="M22.4415 3.45917V10.1284L17.8769 12.6849V5.69886L5.53786 13.0476L0.0456543 9.67412L17.3188 0L22.4415 3.45917Z" fill="url(#paint11_linear_1_1278)"/>
<defs>
<linearGradient id="paint0_linear_1_1278" x1="197" y1="-12.5" x2="153.228" y2="122.682" gradientUnits="userSpaceOnUse">
<stop stop-color="#FF6A00"/>
<stop offset="1" stop-color="#EE0979"/>
</linearGradient>
<linearGradient id="paint1_linear_1_1278" x1="197" y1="-12.5" x2="153.228" y2="122.682" gradientUnits="userSpaceOnUse">
<stop stop-color="#FF6A00"/>
<stop offset="1" stop-color="#EE0979"/>
</linearGradient>
<linearGradient id="paint2_linear_1_1278" x1="197" y1="-12.5" x2="153.228" y2="122.682" gradientUnits="userSpaceOnUse">
<stop stop-color="#FF6A00"/>
<stop offset="1" stop-color="#EE0979"/>
</linearGradient>
<linearGradient id="paint3_linear_1_1278" x1="197" y1="-12.5" x2="153.228" y2="122.682" gradientUnits="userSpaceOnUse">
<stop stop-color="#FF6A00"/>
<stop offset="1" stop-color="#EE0979"/>
</linearGradient>
<linearGradient id="paint4_linear_1_1278" x1="197" y1="-12.5" x2="153.228" y2="122.682" gradientUnits="userSpaceOnUse">
<stop stop-color="#FF6A00"/>
<stop offset="1" stop-color="#EE0979"/>
</linearGradient>
<linearGradient id="paint5_linear_1_1278" x1="197" y1="-12.5" x2="153.228" y2="122.682" gradientUnits="userSpaceOnUse">
<stop stop-color="#FF6A00"/>
<stop offset="1" stop-color="#EE0979"/>
</linearGradient>
<linearGradient id="paint6_linear_1_1278" x1="197" y1="-12.5" x2="153.228" y2="122.682" gradientUnits="userSpaceOnUse">
<stop stop-color="#FF6A00"/>
<stop offset="1" stop-color="#EE0979"/>
</linearGradient>
<linearGradient id="paint7_linear_1_1278" x1="197" y1="-12.5" x2="153.228" y2="122.682" gradientUnits="userSpaceOnUse">
<stop stop-color="#FF6A00"/>
<stop offset="1" stop-color="#EE0979"/>
</linearGradient>
<linearGradient id="paint8_linear_1_1278" x1="197" y1="-12.5" x2="153.228" y2="122.682" gradientUnits="userSpaceOnUse">
<stop stop-color="#FF6A00"/>
<stop offset="1" stop-color="#EE0979"/>
</linearGradient>
<linearGradient id="paint9_linear_1_1278" x1="10.6913" y1="17.2556" x2="3.74705" y2="18.3612" gradientUnits="userSpaceOnUse">
<stop stop-color="#FF6A00"/>
<stop offset="1" stop-color="#EE0979"/>
</linearGradient>
<linearGradient id="paint10_linear_1_1278" x1="17.2356" y1="6.84743" x2="-4.74192" y2="12.7255" gradientUnits="userSpaceOnUse">
<stop stop-color="#FF6A00"/>
<stop offset="1" stop-color="#EE0979"/>
</linearGradient>
<linearGradient id="paint11_linear_1_1278" x1="22.9081" y1="-0.380554" x2="-0.867636" y2="12.9392" gradientUnits="userSpaceOnUse">
<stop stop-color="#FF6A00"/>
<stop offset="1" stop-color="#EE0979"/>
</linearGradient>
</defs>
</svg>
